M48
; DRILL file {KiCad (6.0.7)} date Wed Oct  5 21:11:49 2022
; FORMAT={-:-/ absolute / metric / decimal}
; #@! TF.CreationDate,2022-10-05T21:11:49-04:00
; #@! TF.GenerationSoftware,Kicad,Pcbnew,(6.0.7)
; #@! TF.FileFunction,Plated,1,2,PTH
FMAT,2
METRIC
; #@! TA.AperFunction,Plated,PTH,ViaDrill
T1C0.400
; #@! TA.AperFunction,Plated,PTH,ComponentDrill
T2C0.460
; #@! TA.AperFunction,Plated,PTH,ComponentDrill
T3C0.500
; #@! TA.AperFunction,Plated,PTH,ComponentDrill
T4C0.550
; #@! TA.AperFunction,Plated,PTH,ComponentDrill
T5C0.750
; #@! TA.AperFunction,Plated,PTH,ComponentDrill
T6C0.800
; #@! TA.AperFunction,Plated,PTH,ComponentDrill
T7C0.900
; #@! TA.AperFunction,Plated,PTH,ViaDrill
T8C3.000
%
G90
G05
T1
X107.95Y-92.71
X109.982Y-113.538
X111.419Y-98.333
X112.173Y-104.299
X112.268Y-106.934
X112.776Y-98.044
X113.284Y-100.076
X114.554Y-102.172
X115.062Y-112.776
X115.406Y-96.134
X115.57Y-119.38
X116.586Y-109.494
X118.11Y-107.188
X118.618Y-104.394
X118.618Y-105.664
X119.126Y-98.044
X125.476Y-101.092
X125.984Y-98.806
X129.794Y-100.584
X130.048Y-101.854
X130.81Y-91.44
X132.334Y-103.378
X133.35Y-102.108
X135.89Y-119.38
X137.16Y-104.394
X137.16Y-105.664
X138.43Y-107.95
X139.446Y-108.966
X139.446Y-118.11
X142.24Y-107.95
X145.034Y-95.504
X146.05Y-101.6
X146.05Y-107.95
X146.05Y-118.11
X146.304Y-96.774
X148.336Y-108.966
X148.844Y-94.234
X149.098Y-99.314
X149.098Y-102.616
X149.86Y-95.758
X150.241Y-101.727
X150.368Y-108.966
X150.622Y-98.298
X150.876Y-103.378
X151.13Y-119.38
X152.654Y-113.284
X154.178Y-91.186
X154.686Y-107.95
X154.94Y-105.156
X155.194Y-106.934
X155.956Y-100.076
X157.48Y-104.14
X158.75Y-91.186
X158.75Y-93.218
X158.75Y-95.25
X158.75Y-97.282
X162.56Y-88.9
X162.56Y-93.98
X162.56Y-99.06
X162.56Y-104.14
X162.56Y-106.68
X162.56Y-109.22
X162.56Y-111.76
X162.56Y-114.3
X162.56Y-116.84
X162.56Y-119.38
X166.366Y-111.76
X166.366Y-114.3
X166.37Y-104.14
X166.37Y-106.68
X166.37Y-109.22
X166.37Y-116.84
X166.37Y-119.38
X167.64Y-88.9
X167.64Y-93.98
X167.64Y-99.06
X170.18Y-104.14
X170.18Y-106.68
X170.18Y-109.22
X170.18Y-111.76
X170.18Y-114.3
X170.18Y-116.84
X170.18Y-119.38
X172.72Y-88.9
X172.72Y-93.98
X172.72Y-99.06
X175.26Y-104.14
X177.8Y-106.68
X177.8Y-109.22
X177.8Y-111.76
X177.8Y-114.3
X177.8Y-116.84
X178.308Y-93.218
X181.61Y-92.71
X181.61Y-111.76
T2
X179.015Y-97.742
X179.015Y-104.727
T5
X114.84Y-92.202
X116.84Y-92.202
T7
X125.0Y-87.63
X127.0Y-87.63
X129.0Y-87.63
T8
X109.1Y-88.0
X109.1Y-119.0
X181.1Y-88.0
X181.1Y-119.0
T3
X107.861Y-102.438G85X107.211Y-102.438
G05
X107.861Y-109.438G85X107.211Y-109.438
G05
T4
X110.236Y-103.288G85X110.236Y-103.588
G05
X110.236Y-108.288G85X110.236Y-108.588
G05
T6
X122.85Y-87.23G85X122.85Y-88.03
G05
X131.15Y-87.23G85X131.15Y-88.03
G05
T0
M30
