G04 #@! TF.GenerationSoftware,KiCad,Pcbnew,(6.0.7)*
G04 #@! TF.CreationDate,2022-10-05T21:11:47-04:00*
G04 #@! TF.ProjectId,Dogometer_v1,446f676f-6d65-4746-9572-5f76312e6b69,rev?*
G04 #@! TF.SameCoordinates,Original*
G04 #@! TF.FileFunction,Copper,L2,Bot*
G04 #@! TF.FilePolarity,Positive*
%FSLAX46Y46*%
G04 Gerber Fmt 4.6, Leading zero omitted, Abs format (unit mm)*
G04 Created by KiCad (PCBNEW (6.0.7)) date 2022-10-05 21:11:47*
%MOMM*%
%LPD*%
G01*
G04 APERTURE LIST*
G04 Aperture macros list*
%AMRoundRect*
0 Rectangle with rounded corners*
0 $1 Rounding radius*
0 $2 $3 $4 $5 $6 $7 $8 $9 X,Y pos of 4 corners*
0 Add a 4 corners polygon primitive as box body*
4,1,4,$2,$3,$4,$5,$6,$7,$8,$9,$2,$3,0*
0 Add four circle primitives for the rounded corners*
1,1,$1+$1,$2,$3*
1,1,$1+$1,$4,$5*
1,1,$1+$1,$6,$7*
1,1,$1+$1,$8,$9*
0 Add four rect primitives between the rounded corners*
20,1,$1+$1,$2,$3,$4,$5,0*
20,1,$1+$1,$4,$5,$6,$7,0*
20,1,$1+$1,$6,$7,$8,$9,0*
20,1,$1+$1,$8,$9,$2,$3,0*%
G04 Aperture macros list end*
G04 #@! TA.AperFunction,ComponentPad*
%ADD10O,1.550000X0.890000*%
G04 #@! TD*
G04 #@! TA.AperFunction,ComponentPad*
%ADD11O,0.950000X1.250000*%
G04 #@! TD*
G04 #@! TA.AperFunction,ComponentPad*
%ADD12C,0.970000*%
G04 #@! TD*
G04 #@! TA.AperFunction,SMDPad,CuDef*
%ADD13R,4.190000X2.665000*%
G04 #@! TD*
G04 #@! TA.AperFunction,SMDPad,CuDef*
%ADD14R,0.890000X0.460000*%
G04 #@! TD*
G04 #@! TA.AperFunction,ComponentPad*
%ADD15C,1.524000*%
G04 #@! TD*
G04 #@! TA.AperFunction,ComponentPad*
%ADD16O,1.400000X2.200000*%
G04 #@! TD*
G04 #@! TA.AperFunction,ComponentPad*
%ADD17RoundRect,0.250000X0.350000X0.625000X-0.350000X0.625000X-0.350000X-0.625000X0.350000X-0.625000X0*%
G04 #@! TD*
G04 #@! TA.AperFunction,ComponentPad*
%ADD18O,1.200000X1.750000*%
G04 #@! TD*
G04 #@! TA.AperFunction,ViaPad*
%ADD19C,0.800000*%
G04 #@! TD*
G04 #@! TA.AperFunction,ViaPad*
%ADD20C,4.500000*%
G04 #@! TD*
G04 #@! TA.AperFunction,Conductor*
%ADD21C,0.400000*%
G04 #@! TD*
G04 #@! TA.AperFunction,Conductor*
%ADD22C,0.250000*%
G04 #@! TD*
G04 #@! TA.AperFunction,Conductor*
%ADD23C,0.200000*%
G04 #@! TD*
G04 APERTURE END LIST*
D10*
X107536000Y-102438000D03*
D11*
X110236000Y-108438000D03*
X110236000Y-103438000D03*
D10*
X107536000Y-109438000D03*
D12*
X179015000Y-104726500D03*
X179015000Y-97741500D03*
D13*
X182000000Y-97741500D03*
X182000000Y-104726500D03*
D14*
X179460000Y-104726500D03*
X179460000Y-97741500D03*
D15*
X125000000Y-87630000D03*
X127000000Y-87630000D03*
X129000000Y-87630000D03*
D16*
X131150000Y-87630000D03*
X122850000Y-87630000D03*
D17*
X116840000Y-92202000D03*
D18*
X114840000Y-92202000D03*
D19*
X151130000Y-119380000D03*
X166370000Y-119380000D03*
X166370000Y-116840000D03*
X166366000Y-114300000D03*
X166366000Y-111760000D03*
X166370000Y-109220000D03*
X166370000Y-106680000D03*
X166370000Y-104140000D03*
X181610000Y-92710000D03*
X181610000Y-111760000D03*
X130810000Y-91440000D03*
X107950000Y-92710000D03*
X115570000Y-119380000D03*
X135890000Y-119380000D03*
X146050000Y-101600000D03*
X146050000Y-107950000D03*
X142240000Y-107950000D03*
X167640000Y-88900000D03*
X167640000Y-93980000D03*
X167640000Y-99060000D03*
X172720000Y-99060000D03*
X172720000Y-93980000D03*
X172720000Y-88900000D03*
X162560000Y-88900000D03*
X162560000Y-93980000D03*
X162560000Y-99060000D03*
X157480000Y-104140000D03*
X177800000Y-116840000D03*
X177800000Y-114300000D03*
X177800000Y-111760000D03*
X177800000Y-109220000D03*
X177800000Y-106680000D03*
X175260000Y-104140000D03*
X170180000Y-104140000D03*
X162560000Y-104140000D03*
X170180000Y-106680000D03*
X170180000Y-109220000D03*
X170180000Y-111760000D03*
X170180000Y-114300000D03*
X170180000Y-116840000D03*
X170180000Y-119380000D03*
X162560000Y-119380000D03*
X162560000Y-116840000D03*
X162560000Y-114300000D03*
X162560000Y-111760000D03*
X162560000Y-109220000D03*
X162560000Y-106680000D03*
D20*
X181100000Y-88000000D03*
X181100000Y-119000000D03*
X109100000Y-119000000D03*
X109100000Y-88000000D03*
D19*
X149860000Y-95758000D03*
X111418684Y-98333082D03*
X119126000Y-98044000D03*
X146304000Y-96774000D03*
X125476000Y-101092000D03*
X118110000Y-107188000D03*
X115406337Y-96133763D03*
X152654000Y-113284000D03*
X150368000Y-108966000D03*
X178308000Y-93218000D03*
X148844000Y-94234000D03*
X115062000Y-112776000D03*
X112173000Y-104299000D03*
X112268000Y-106934000D03*
X109982000Y-113538000D03*
X112776000Y-98044000D03*
X113284000Y-100076000D03*
X139446000Y-118110000D03*
X139446000Y-108966000D03*
X146050000Y-118110000D03*
X138430000Y-107950000D03*
X116586000Y-109494000D03*
X114554000Y-102172000D03*
X154940000Y-105156000D03*
X155956000Y-100076000D03*
X154178000Y-91186000D03*
X145034000Y-95504000D03*
X125984000Y-98806000D03*
X118618000Y-105664000D03*
X133350000Y-102108000D03*
X132334000Y-103378000D03*
X118618000Y-104394000D03*
X149098000Y-99314000D03*
X130048000Y-101854000D03*
X150622000Y-98298000D03*
X129794000Y-100584000D03*
X149098000Y-102616000D03*
X158750000Y-91186000D03*
X158750000Y-93218000D03*
X150241000Y-101727000D03*
X158750000Y-95250000D03*
X150876000Y-103378000D03*
X148336000Y-108966000D03*
X158750000Y-97282000D03*
X137160000Y-104394000D03*
X155194000Y-106934000D03*
X137160000Y-105664000D03*
X154686000Y-107950000D03*
D21*
X159258000Y-85598000D02*
X177800000Y-85598000D01*
X152654000Y-111252000D02*
X152654000Y-113284000D01*
X157480000Y-89916000D02*
X158750000Y-88646000D01*
X178308000Y-87122000D02*
X178308000Y-93218000D01*
X150368000Y-108966000D02*
X152654000Y-111252000D01*
X158750000Y-86106000D02*
X159258000Y-85598000D01*
X158750000Y-88646000D02*
X158750000Y-86360000D01*
X178562000Y-86106000D02*
X178562000Y-86868000D01*
X153162000Y-94234000D02*
X157480000Y-89916000D01*
X178562000Y-86868000D02*
X178308000Y-87122000D01*
X177800000Y-85598000D02*
X178054000Y-85598000D01*
X148844000Y-94234000D02*
X153162000Y-94234000D01*
X158750000Y-86360000D02*
X158750000Y-86106000D01*
X178054000Y-85598000D02*
X178562000Y-86106000D01*
D22*
X113829000Y-111543000D02*
X113829000Y-105955000D01*
X115062000Y-112776000D02*
X113829000Y-111543000D01*
X113829000Y-105955000D02*
X112173000Y-104299000D01*
D23*
X112268000Y-109220000D02*
X109982000Y-111506000D01*
X109982000Y-111506000D02*
X109982000Y-113538000D01*
X112268000Y-106934000D02*
X112268000Y-109220000D01*
D22*
X112776000Y-99568000D02*
X112776000Y-98044000D01*
X113284000Y-100076000D02*
X112776000Y-99568000D01*
X139446000Y-108966000D02*
X139446000Y-118110000D01*
X139455305Y-107950000D02*
X146050000Y-114544695D01*
X146050000Y-114544695D02*
X146050000Y-118110000D01*
X138430000Y-107950000D02*
X139455305Y-107950000D01*
X114554000Y-103188000D02*
X114554000Y-102172000D01*
X116586000Y-105220000D02*
X114554000Y-103188000D01*
X116586000Y-109494000D02*
X116586000Y-105220000D01*
X154940000Y-101092000D02*
X155956000Y-100076000D01*
X154940000Y-105156000D02*
X154940000Y-101092000D01*
X148336000Y-92202000D02*
X152400000Y-92202000D01*
X145034000Y-95504000D02*
X148336000Y-92202000D01*
X153162000Y-92202000D02*
X154178000Y-91186000D01*
X152400000Y-92202000D02*
X153162000Y-92202000D01*
X127000000Y-97790000D02*
X127000000Y-87630000D01*
X125984000Y-98806000D02*
X127000000Y-97790000D01*
X118618000Y-105664000D02*
X131826000Y-105664000D01*
X133350000Y-104140000D02*
X133350000Y-102108000D01*
X131826000Y-105664000D02*
X133350000Y-104140000D01*
X132334000Y-103378000D02*
X131318000Y-104394000D01*
X131318000Y-104394000D02*
X118618000Y-104394000D01*
X132588000Y-99314000D02*
X149098000Y-99314000D01*
X130048000Y-101854000D02*
X132588000Y-99314000D01*
X129794000Y-100584000D02*
X132080000Y-98298000D01*
X132080000Y-98298000D02*
X150622000Y-98298000D01*
X149352000Y-100584000D02*
X149361305Y-100584000D01*
X149098000Y-100838000D02*
X149352000Y-100584000D01*
X149361305Y-100584000D02*
X158750000Y-91195305D01*
X158750000Y-91195305D02*
X158750000Y-91186000D01*
X149098000Y-102616000D02*
X149098000Y-100838000D01*
X150241000Y-101727000D02*
X150114000Y-101854000D01*
X158750000Y-93218000D02*
X150241000Y-101727000D01*
X150876000Y-103124000D02*
X150876000Y-103378000D01*
X158750000Y-95250000D02*
X150876000Y-103124000D01*
X155956000Y-107705305D02*
X154986305Y-108675000D01*
X149860000Y-107442000D02*
X148336000Y-108966000D01*
X150876000Y-107442000D02*
X149860000Y-107442000D01*
X155956000Y-103632000D02*
X155956000Y-107705305D01*
X157988000Y-101600000D02*
X155956000Y-103632000D01*
X157988000Y-98044000D02*
X157988000Y-99314000D01*
X157988000Y-99314000D02*
X157988000Y-101600000D01*
X154986305Y-108675000D02*
X152109000Y-108675000D01*
X152109000Y-108675000D02*
X150876000Y-107442000D01*
X158750000Y-97282000D02*
X157988000Y-98044000D01*
X152654000Y-104394000D02*
X155194000Y-106934000D01*
X137160000Y-104394000D02*
X152654000Y-104394000D01*
X152400000Y-105664000D02*
X154686000Y-107950000D01*
X137160000Y-105664000D02*
X152400000Y-105664000D01*
G04 #@! TA.AperFunction,Conductor*
G36*
X134308121Y-85528502D02*
G01*
X134354614Y-85582158D01*
X134366000Y-85634500D01*
X134366000Y-91948000D01*
X147389905Y-91948000D01*
X147458026Y-91968002D01*
X147504519Y-92021658D01*
X147514623Y-92091932D01*
X147485129Y-92156512D01*
X147479000Y-92163095D01*
X145083500Y-94558595D01*
X145021188Y-94592621D01*
X144994405Y-94595500D01*
X144938513Y-94595500D01*
X144932061Y-94596872D01*
X144932056Y-94596872D01*
X144864279Y-94611279D01*
X144751712Y-94635206D01*
X144745682Y-94637891D01*
X144745681Y-94637891D01*
X144583278Y-94710197D01*
X144583276Y-94710198D01*
X144577248Y-94712882D01*
X144571907Y-94716762D01*
X144571906Y-94716763D01*
X144569138Y-94718774D01*
X144422747Y-94825134D01*
X144418326Y-94830044D01*
X144418325Y-94830045D01*
X144323667Y-94935174D01*
X144294960Y-94967056D01*
X144199473Y-95132444D01*
X144140458Y-95314072D01*
X144120496Y-95504000D01*
X144140458Y-95693928D01*
X144199473Y-95875556D01*
X144294960Y-96040944D01*
X144422747Y-96182866D01*
X144577248Y-96295118D01*
X144583276Y-96297802D01*
X144583278Y-96297803D01*
X144603147Y-96306649D01*
X144751712Y-96372794D01*
X144829117Y-96389247D01*
X144932056Y-96411128D01*
X144932061Y-96411128D01*
X144938513Y-96412500D01*
X145129487Y-96412500D01*
X145135939Y-96411128D01*
X145135944Y-96411128D01*
X145238883Y-96389247D01*
X145316288Y-96372794D01*
X145464853Y-96306649D01*
X145484722Y-96297803D01*
X145484724Y-96297802D01*
X145490752Y-96295118D01*
X145645253Y-96182866D01*
X145773040Y-96040944D01*
X145868527Y-95875556D01*
X145927542Y-95693928D01*
X145944907Y-95528706D01*
X145971920Y-95463050D01*
X145981122Y-95452782D01*
X148030498Y-93403406D01*
X148053852Y-93390654D01*
X148059674Y-93375699D01*
X148070359Y-93363545D01*
X148561499Y-92872405D01*
X148623811Y-92838379D01*
X148650594Y-92835500D01*
X153083233Y-92835500D01*
X153094416Y-92836027D01*
X153101909Y-92837702D01*
X153109835Y-92837453D01*
X153109836Y-92837453D01*
X153169986Y-92835562D01*
X153173945Y-92835500D01*
X153201856Y-92835500D01*
X153205791Y-92835003D01*
X153205856Y-92834995D01*
X153217695Y-92834062D01*
X153234198Y-92833544D01*
X153252992Y-92832953D01*
X153321707Y-92850806D01*
X153369862Y-92902975D01*
X153382168Y-92972897D01*
X153354718Y-93038372D01*
X153346044Y-93047986D01*
X152905435Y-93488595D01*
X152843123Y-93522621D01*
X152816340Y-93525500D01*
X149455405Y-93525500D01*
X149387284Y-93505498D01*
X149381344Y-93501436D01*
X149306094Y-93446763D01*
X149306093Y-93446762D01*
X149300752Y-93442882D01*
X149294724Y-93440198D01*
X149294722Y-93440197D01*
X149132319Y-93367891D01*
X149132318Y-93367891D01*
X149126288Y-93365206D01*
X149032888Y-93345353D01*
X148945944Y-93326872D01*
X148945939Y-93326872D01*
X148939487Y-93325500D01*
X148748513Y-93325500D01*
X148742061Y-93326872D01*
X148742056Y-93326872D01*
X148655113Y-93345353D01*
X148561712Y-93365206D01*
X148555682Y-93367891D01*
X148555681Y-93367891D01*
X148393278Y-93440197D01*
X148393276Y-93440198D01*
X148387248Y-93442882D01*
X148381907Y-93446762D01*
X148381906Y-93446763D01*
X148233515Y-93554576D01*
X148227450Y-93556740D01*
X148213229Y-93576811D01*
X148104960Y-93697056D01*
X148009473Y-93862444D01*
X147950458Y-94044072D01*
X147949768Y-94050633D01*
X147949768Y-94050635D01*
X147941060Y-94133492D01*
X147930496Y-94234000D01*
X147931186Y-94240565D01*
X147945824Y-94379834D01*
X147950458Y-94423928D01*
X148009473Y-94605556D01*
X148104960Y-94770944D01*
X148109378Y-94775851D01*
X148109379Y-94775852D01*
X148212367Y-94890232D01*
X148232747Y-94912866D01*
X148387248Y-95025118D01*
X148393276Y-95027802D01*
X148393278Y-95027803D01*
X148465756Y-95060072D01*
X148561712Y-95102794D01*
X148655113Y-95122647D01*
X148742056Y-95141128D01*
X148742061Y-95141128D01*
X148748513Y-95142500D01*
X148939487Y-95142500D01*
X148945939Y-95141128D01*
X148945944Y-95141128D01*
X149032888Y-95122647D01*
X149126288Y-95102794D01*
X149222244Y-95060072D01*
X149294722Y-95027803D01*
X149294724Y-95027802D01*
X149300752Y-95025118D01*
X149381344Y-94966564D01*
X149448211Y-94942706D01*
X149455405Y-94942500D01*
X153133088Y-94942500D01*
X153141658Y-94942792D01*
X153191776Y-94946209D01*
X153191780Y-94946209D01*
X153199352Y-94946725D01*
X153206829Y-94945420D01*
X153206830Y-94945420D01*
X153233308Y-94940799D01*
X153262303Y-94935738D01*
X153268821Y-94934777D01*
X153332242Y-94927102D01*
X153339343Y-94924419D01*
X153341952Y-94923778D01*
X153358262Y-94919315D01*
X153360798Y-94918550D01*
X153368284Y-94917243D01*
X153426800Y-94891556D01*
X153432904Y-94889065D01*
X153485548Y-94869173D01*
X153485549Y-94869172D01*
X153492656Y-94866487D01*
X153498919Y-94862183D01*
X153501285Y-94860946D01*
X153516097Y-94852701D01*
X153518351Y-94851368D01*
X153525305Y-94848315D01*
X153576002Y-94809413D01*
X153581332Y-94805541D01*
X153627720Y-94773661D01*
X153627725Y-94773656D01*
X153633981Y-94769357D01*
X153675436Y-94722829D01*
X153680416Y-94717554D01*
X157704132Y-90693839D01*
X157766444Y-90659813D01*
X157837260Y-90664878D01*
X157894095Y-90707425D01*
X157918906Y-90773945D01*
X157913060Y-90821870D01*
X157899896Y-90862385D01*
X157856458Y-90996072D01*
X157855768Y-91002633D01*
X157855768Y-91002635D01*
X157838000Y-91171691D01*
X157810987Y-91237348D01*
X157801785Y-91247616D01*
X151420484Y-97628916D01*
X151358172Y-97662942D01*
X151287357Y-97657877D01*
X151243159Y-97627812D01*
X151242577Y-97628459D01*
X151237842Y-97624196D01*
X151237760Y-97624140D01*
X151233253Y-97619134D01*
X151078752Y-97506882D01*
X151072724Y-97504198D01*
X151072722Y-97504197D01*
X150910319Y-97431891D01*
X150910318Y-97431891D01*
X150904288Y-97429206D01*
X150810887Y-97409353D01*
X150723944Y-97390872D01*
X150723939Y-97390872D01*
X150717487Y-97389500D01*
X150526513Y-97389500D01*
X150520061Y-97390872D01*
X150520056Y-97390872D01*
X150433113Y-97409353D01*
X150339712Y-97429206D01*
X150333682Y-97431891D01*
X150333681Y-97431891D01*
X150171278Y-97504197D01*
X150171276Y-97504198D01*
X150165248Y-97506882D01*
X150159907Y-97510762D01*
X150159906Y-97510763D01*
X150060913Y-97582686D01*
X150010747Y-97619134D01*
X150006332Y-97624037D01*
X150001420Y-97628460D01*
X150000295Y-97627211D01*
X149946986Y-97660051D01*
X149913800Y-97664500D01*
X132158767Y-97664500D01*
X132147584Y-97663973D01*
X132140091Y-97662298D01*
X132132165Y-97662547D01*
X132132164Y-97662547D01*
X132072014Y-97664438D01*
X132068055Y-97664500D01*
X132040144Y-97664500D01*
X132036210Y-97664997D01*
X132036209Y-97664997D01*
X132036144Y-97665005D01*
X132024307Y-97665938D01*
X131992490Y-97666938D01*
X131988029Y-97667078D01*
X131980110Y-97667327D01*
X131962496Y-97672444D01*
X131960658Y-97672978D01*
X131941306Y-97676986D01*
X131934235Y-97677880D01*
X131921203Y-97679526D01*
X131913834Y-97682443D01*
X131913832Y-97682444D01*
X131880097Y-97695800D01*
X131868869Y-97699645D01*
X131826407Y-97711982D01*
X131819585Y-97716016D01*
X131819579Y-97716019D01*
X131808968Y-97722294D01*
X131791218Y-97730990D01*
X131779756Y-97735528D01*
X131779751Y-97735531D01*
X131772383Y-97738448D01*
X131765968Y-97743109D01*
X131736625Y-97764427D01*
X131726707Y-97770943D01*
X131708019Y-97781995D01*
X131688637Y-97793458D01*
X131674313Y-97807782D01*
X131659281Y-97820621D01*
X131642893Y-97832528D01*
X131614712Y-97866593D01*
X131606722Y-97875373D01*
X129843500Y-99638595D01*
X129781188Y-99672621D01*
X129754405Y-99675500D01*
X129698513Y-99675500D01*
X129692061Y-99676872D01*
X129692056Y-99676872D01*
X129605112Y-99695353D01*
X129511712Y-99715206D01*
X129505682Y-99717891D01*
X129505681Y-99717891D01*
X129343278Y-99790197D01*
X129343276Y-99790198D01*
X129337248Y-99792882D01*
X129182747Y-99905134D01*
X129178326Y-99910044D01*
X129178325Y-99910045D01*
X129079400Y-100019913D01*
X129054960Y-100047056D01*
X129038249Y-100076000D01*
X128972383Y-100190084D01*
X128959473Y-100212444D01*
X128900458Y-100394072D01*
X128899768Y-100400633D01*
X128899768Y-100400635D01*
X128887963Y-100512959D01*
X128880496Y-100584000D01*
X128881186Y-100590565D01*
X128899726Y-100766959D01*
X128900458Y-100773928D01*
X128959473Y-100955556D01*
X129054960Y-101120944D01*
X129182747Y-101262866D01*
X129188089Y-101266747D01*
X129188091Y-101266749D01*
X129201920Y-101276796D01*
X129245274Y-101333018D01*
X129251349Y-101403754D01*
X129236978Y-101441732D01*
X129213473Y-101482444D01*
X129154458Y-101664072D01*
X129153768Y-101670633D01*
X129153768Y-101670635D01*
X129147844Y-101727000D01*
X129134496Y-101854000D01*
X129135186Y-101860565D01*
X129152214Y-102022574D01*
X129154458Y-102043928D01*
X129213473Y-102225556D01*
X129308960Y-102390944D01*
X129313378Y-102395851D01*
X129313379Y-102395852D01*
X129411445Y-102504765D01*
X129436747Y-102532866D01*
X129511093Y-102586882D01*
X129560207Y-102622565D01*
X129591248Y-102645118D01*
X129597276Y-102647802D01*
X129597278Y-102647803D01*
X129759681Y-102720109D01*
X129765712Y-102722794D01*
X129857965Y-102742403D01*
X129946056Y-102761128D01*
X129946061Y-102761128D01*
X129952513Y-102762500D01*
X130143487Y-102762500D01*
X130149939Y-102761128D01*
X130149944Y-102761128D01*
X130238035Y-102742403D01*
X130330288Y-102722794D01*
X130336319Y-102720109D01*
X130498722Y-102647803D01*
X130498724Y-102647802D01*
X130504752Y-102645118D01*
X130535794Y-102622565D01*
X130584907Y-102586882D01*
X130659253Y-102532866D01*
X130684555Y-102504765D01*
X130782621Y-102395852D01*
X130782622Y-102395851D01*
X130787040Y-102390944D01*
X130882527Y-102225556D01*
X130941542Y-102043928D01*
X130943787Y-102022574D01*
X130950619Y-101957566D01*
X130958907Y-101878706D01*
X130985920Y-101813050D01*
X130995122Y-101802782D01*
X132813499Y-99984405D01*
X132875811Y-99950379D01*
X132902594Y-99947500D01*
X148389800Y-99947500D01*
X148457921Y-99967502D01*
X148477147Y-99983843D01*
X148477420Y-99983540D01*
X148482332Y-99987963D01*
X148486747Y-99992866D01*
X148492086Y-99996745D01*
X148610207Y-100082565D01*
X148641248Y-100105118D01*
X148647281Y-100107804D01*
X148677007Y-100121039D01*
X148731103Y-100167018D01*
X148751753Y-100234945D01*
X148732401Y-100303254D01*
X148714854Y-100325241D01*
X148705747Y-100334348D01*
X148697461Y-100341888D01*
X148690982Y-100346000D01*
X148685557Y-100351777D01*
X148644357Y-100395651D01*
X148641602Y-100398493D01*
X148621865Y-100418230D01*
X148619385Y-100421427D01*
X148611682Y-100430447D01*
X148581414Y-100462679D01*
X148577595Y-100469625D01*
X148577593Y-100469628D01*
X148571652Y-100480434D01*
X148560801Y-100496953D01*
X148548386Y-100512959D01*
X148545241Y-100520228D01*
X148545238Y-100520232D01*
X148530826Y-100553537D01*
X148525609Y-100564187D01*
X148504305Y-100602940D01*
X148502334Y-100610615D01*
X148502334Y-100610616D01*
X148499267Y-100622562D01*
X148492863Y-100641266D01*
X148484819Y-100659855D01*
X148483580Y-100667678D01*
X148483577Y-100667688D01*
X148477901Y-100703524D01*
X148475495Y-100715144D01*
X148464500Y-100757970D01*
X148464500Y-100778224D01*
X148462949Y-100797934D01*
X148459780Y-100817943D01*
X148460526Y-100825835D01*
X148463941Y-100861961D01*
X148464500Y-100873819D01*
X148464500Y-101913476D01*
X148444498Y-101981597D01*
X148432142Y-101997779D01*
X148358960Y-102079056D01*
X148263473Y-102244444D01*
X148204458Y-102426072D01*
X148203768Y-102432633D01*
X148203768Y-102432635D01*
X148192771Y-102537271D01*
X148184496Y-102616000D01*
X148185186Y-102622565D01*
X148199894Y-102762500D01*
X148204458Y-102805928D01*
X148263473Y-102987556D01*
X148358960Y-103152944D01*
X148363378Y-103157851D01*
X148363379Y-103157852D01*
X148478311Y-103285497D01*
X148486747Y-103294866D01*
X148522478Y-103320826D01*
X148622410Y-103393431D01*
X148641248Y-103407118D01*
X148647276Y-103409802D01*
X148647278Y-103409803D01*
X148757840Y-103459028D01*
X148815712Y-103484794D01*
X148911700Y-103505197D01*
X148940191Y-103511253D01*
X149002664Y-103544982D01*
X149036986Y-103607131D01*
X149032258Y-103677970D01*
X148989982Y-103735008D01*
X148923581Y-103760135D01*
X148913994Y-103760500D01*
X137868200Y-103760500D01*
X137800079Y-103740498D01*
X137780853Y-103724157D01*
X137780580Y-103724460D01*
X137775668Y-103720037D01*
X137771253Y-103715134D01*
X137691345Y-103657077D01*
X137622094Y-103606763D01*
X137622093Y-103606762D01*
X137616752Y-103602882D01*
X137610724Y-103600198D01*
X137610722Y-103600197D01*
X137448319Y-103527891D01*
X137448318Y-103527891D01*
X137442288Y-103525206D01*
X137333273Y-103502034D01*
X137261944Y-103486872D01*
X137261939Y-103486872D01*
X137255487Y-103485500D01*
X137064513Y-103485500D01*
X137058061Y-103486872D01*
X137058056Y-103486872D01*
X136986727Y-103502034D01*
X136877712Y-103525206D01*
X136871682Y-103527891D01*
X136871681Y-103527891D01*
X136709278Y-103600197D01*
X136709276Y-103600198D01*
X136703248Y-103602882D01*
X136697907Y-103606762D01*
X136697906Y-103606763D01*
X136695217Y-103608717D01*
X136548747Y-103715134D01*
X136544326Y-103720044D01*
X136544325Y-103720045D01*
X136435203Y-103841238D01*
X136420960Y-103857056D01*
X136325473Y-104022444D01*
X136266458Y-104204072D01*
X136246496Y-104394000D01*
X136247186Y-104400565D01*
X136264293Y-104563325D01*
X136266458Y-104583928D01*
X136325473Y-104765556D01*
X136328776Y-104771278D01*
X136328777Y-104771279D01*
X136336378Y-104784444D01*
X136420960Y-104930944D01*
X136433338Y-104944691D01*
X136464054Y-105008697D01*
X136455290Y-105079150D01*
X136433339Y-105113307D01*
X136420960Y-105127056D01*
X136325473Y-105292444D01*
X136266458Y-105474072D01*
X136265768Y-105480633D01*
X136265768Y-105480635D01*
X136257634Y-105558029D01*
X136246496Y-105664000D01*
X136247186Y-105670565D01*
X136263537Y-105826133D01*
X136266458Y-105853928D01*
X136325473Y-106035556D01*
X136420960Y-106200944D01*
X136425378Y-106205851D01*
X136425379Y-106205852D01*
X136525909Y-106317502D01*
X136548747Y-106342866D01*
X136703248Y-106455118D01*
X136709276Y-106457802D01*
X136709278Y-106457803D01*
X136831735Y-106512324D01*
X136877712Y-106532794D01*
X136971113Y-106552647D01*
X137058056Y-106571128D01*
X137058061Y-106571128D01*
X137064513Y-106572500D01*
X137255487Y-106572500D01*
X137261939Y-106571128D01*
X137261944Y-106571128D01*
X137348888Y-106552647D01*
X137442288Y-106532794D01*
X137488265Y-106512324D01*
X137610722Y-106457803D01*
X137610724Y-106457802D01*
X137616752Y-106455118D01*
X137672350Y-106414724D01*
X137749671Y-106358546D01*
X137771253Y-106342866D01*
X137775668Y-106337963D01*
X137780580Y-106333540D01*
X137781705Y-106334789D01*
X137835014Y-106301949D01*
X137868200Y-106297500D01*
X152085406Y-106297500D01*
X152153527Y-106317502D01*
X152174501Y-106334405D01*
X153666501Y-107826405D01*
X153700527Y-107888717D01*
X153695462Y-107959532D01*
X153652915Y-108016368D01*
X153586395Y-108041179D01*
X153577406Y-108041500D01*
X152423595Y-108041500D01*
X152355474Y-108021498D01*
X152334500Y-108004595D01*
X151379652Y-107049747D01*
X151372112Y-107041461D01*
X151368000Y-107034982D01*
X151318348Y-106988356D01*
X151315507Y-106985602D01*
X151295770Y-106965865D01*
X151292573Y-106963385D01*
X151283551Y-106955680D01*
X151267455Y-106940565D01*
X151251321Y-106925414D01*
X151244375Y-106921595D01*
X151244372Y-106921593D01*
X151233566Y-106915652D01*
X151217047Y-106904801D01*
X151216583Y-106904441D01*
X151201041Y-106892386D01*
X151193772Y-106889241D01*
X151193768Y-106889238D01*
X151160463Y-106874826D01*
X151149813Y-106869609D01*
X151111060Y-106848305D01*
X151091437Y-106843267D01*
X151072734Y-106836863D01*
X151061420Y-106831967D01*
X151061419Y-106831967D01*
X151054145Y-106828819D01*
X151046322Y-106827580D01*
X151046312Y-106827577D01*
X151010476Y-106821901D01*
X150998856Y-106819495D01*
X150963711Y-106810472D01*
X150963710Y-106810472D01*
X150956030Y-106808500D01*
X150935776Y-106808500D01*
X150916065Y-106806949D01*
X150913534Y-106806548D01*
X150896057Y-106803780D01*
X150888165Y-106804526D01*
X150852039Y-106807941D01*
X150840181Y-106808500D01*
X149938763Y-106808500D01*
X149927579Y-106807973D01*
X149920091Y-106806299D01*
X149912168Y-106806548D01*
X149852033Y-106808438D01*
X149848075Y-106808500D01*
X149820144Y-106808500D01*
X149816229Y-106808995D01*
X149816225Y-106808995D01*
X149816167Y-106809003D01*
X149816138Y-106809006D01*
X149804296Y-106809939D01*
X149760110Y-106811327D01*
X149742744Y-106816372D01*
X149740658Y-106816978D01*
X149721306Y-106820986D01*
X149709068Y-106822532D01*
X149709066Y-106822533D01*
X149701203Y-106823526D01*
X149660086Y-106839806D01*
X149648885Y-106843641D01*
X149606406Y-106855982D01*
X149599587Y-106860015D01*
X149599582Y-106860017D01*
X149588971Y-106866293D01*
X149571221Y-106874990D01*
X149552383Y-106882448D01*
X149545967Y-106887109D01*
X149545966Y-106887110D01*
X149516625Y-106908428D01*
X149506701Y-106914947D01*
X149475460Y-106933422D01*
X149475455Y-106933426D01*
X149468637Y-106937458D01*
X149454313Y-106951782D01*
X149439281Y-106964621D01*
X149422893Y-106976528D01*
X149394712Y-107010593D01*
X149386722Y-107019373D01*
X148385500Y-108020595D01*
X148323188Y-108054621D01*
X148296405Y-108057500D01*
X148240513Y-108057500D01*
X148234061Y-108058872D01*
X148234056Y-108058872D01*
X148155830Y-108075500D01*
X148053712Y-108097206D01*
X148047682Y-108099891D01*
X148047681Y-108099891D01*
X147885278Y-108172197D01*
X147885276Y-108172198D01*
X147879248Y-108174882D01*
X147873907Y-108178762D01*
X147873906Y-108178763D01*
X147843349Y-108200964D01*
X147724747Y-108287134D01*
X147596960Y-108429056D01*
X147501473Y-108594444D01*
X147442458Y-108776072D01*
X147441768Y-108782633D01*
X147441768Y-108782635D01*
X147433779Y-108858650D01*
X147422496Y-108966000D01*
X147423186Y-108972565D01*
X147440834Y-109140472D01*
X147442458Y-109155928D01*
X147501473Y-109337556D01*
X147596960Y-109502944D01*
X147601375Y-109507847D01*
X147601379Y-109507852D01*
X147704223Y-109622072D01*
X147724747Y-109644866D01*
X147879248Y-109757118D01*
X147885276Y-109759802D01*
X147885278Y-109759803D01*
X148047681Y-109832109D01*
X148053712Y-109834794D01*
X148147113Y-109854647D01*
X148234056Y-109873128D01*
X148234061Y-109873128D01*
X148240513Y-109874500D01*
X148431487Y-109874500D01*
X148437939Y-109873128D01*
X148437944Y-109873128D01*
X148524887Y-109854647D01*
X148618288Y-109834794D01*
X148624319Y-109832109D01*
X148786722Y-109759803D01*
X148786724Y-109759802D01*
X148792752Y-109757118D01*
X148947253Y-109644866D01*
X148967777Y-109622072D01*
X149070621Y-109507852D01*
X149070625Y-109507847D01*
X149075040Y-109502944D01*
X149170527Y-109337556D01*
X149229542Y-109155928D01*
X149229682Y-109154599D01*
X149262482Y-109093844D01*
X149324632Y-109059523D01*
X149395471Y-109064252D01*
X149452508Y-109106528D01*
X149474276Y-109154192D01*
X149474458Y-109155928D01*
X149533473Y-109337556D01*
X149628960Y-109502944D01*
X149633375Y-109507847D01*
X149633379Y-109507852D01*
X149736223Y-109622072D01*
X149756747Y-109644866D01*
X149911248Y-109757118D01*
X149917276Y-109759802D01*
X149917278Y-109759803D01*
X150079681Y-109832109D01*
X150085712Y-109834794D01*
X150200867Y-109859271D01*
X150238569Y-109867285D01*
X150301467Y-109901437D01*
X151908595Y-111508566D01*
X151942621Y-111570878D01*
X151945500Y-111597661D01*
X151945500Y-112665256D01*
X151925498Y-112733377D01*
X151921436Y-112739317D01*
X151919379Y-112742148D01*
X151914960Y-112747056D01*
X151911659Y-112752774D01*
X151911658Y-112752775D01*
X151840612Y-112875831D01*
X151819473Y-112912444D01*
X151760458Y-113094072D01*
X151740496Y-113284000D01*
X151741186Y-113290565D01*
X151758863Y-113458749D01*
X151760458Y-113473928D01*
X151819473Y-113655556D01*
X151914960Y-113820944D01*
X151919378Y-113825851D01*
X151919379Y-113825852D01*
X152038325Y-113957955D01*
X152042747Y-113962866D01*
X152197248Y-114075118D01*
X152203276Y-114077802D01*
X152203278Y-114077803D01*
X152325003Y-114131998D01*
X152371712Y-114152794D01*
X152465112Y-114172647D01*
X152552056Y-114191128D01*
X152552061Y-114191128D01*
X152558513Y-114192500D01*
X152749487Y-114192500D01*
X152755939Y-114191128D01*
X152755944Y-114191128D01*
X152842888Y-114172647D01*
X152936288Y-114152794D01*
X152982997Y-114131998D01*
X153104722Y-114077803D01*
X153104724Y-114077802D01*
X153110752Y-114075118D01*
X153265253Y-113962866D01*
X153269675Y-113957955D01*
X153388621Y-113825852D01*
X153388622Y-113825851D01*
X153393040Y-113820944D01*
X153488527Y-113655556D01*
X153547542Y-113473928D01*
X153549138Y-113458749D01*
X153566814Y-113290565D01*
X153567504Y-113284000D01*
X153547542Y-113094072D01*
X153488527Y-112912444D01*
X153467389Y-112875831D01*
X153396342Y-112752775D01*
X153396341Y-112752774D01*
X153393040Y-112747056D01*
X153388621Y-112742148D01*
X153386564Y-112739317D01*
X153362705Y-112672449D01*
X153362500Y-112665256D01*
X153362500Y-111280912D01*
X153362792Y-111272342D01*
X153366209Y-111222224D01*
X153366209Y-111222220D01*
X153366725Y-111214648D01*
X153355739Y-111151703D01*
X153354777Y-111145182D01*
X153348015Y-111089304D01*
X153347102Y-111081758D01*
X153344416Y-111074650D01*
X153343779Y-111072056D01*
X153339318Y-111055750D01*
X153338548Y-111053199D01*
X153337242Y-111045716D01*
X153311561Y-110987212D01*
X153309069Y-110981105D01*
X153289173Y-110928452D01*
X153289173Y-110928451D01*
X153286487Y-110921344D01*
X153282184Y-110915083D01*
X153280947Y-110912717D01*
X153272720Y-110897937D01*
X153271369Y-110895652D01*
X153268315Y-110888695D01*
X153263695Y-110882675D01*
X153263692Y-110882669D01*
X153229421Y-110838009D01*
X153225541Y-110832668D01*
X153193661Y-110786280D01*
X153193656Y-110786275D01*
X153189357Y-110780019D01*
X153142829Y-110738564D01*
X153137554Y-110733584D01*
X151925785Y-109521815D01*
X151891759Y-109459503D01*
X151896824Y-109388688D01*
X151939371Y-109331852D01*
X152005891Y-109307041D01*
X152025345Y-109307569D01*
X152028970Y-109308500D01*
X152049224Y-109308500D01*
X152068934Y-109310051D01*
X152088943Y-109313220D01*
X152096835Y-109312474D01*
X152116289Y-109310635D01*
X152132962Y-109309059D01*
X152144819Y-109308500D01*
X154907538Y-109308500D01*
X154918721Y-109309027D01*
X154926214Y-109310702D01*
X154934140Y-109310453D01*
X154934141Y-109310453D01*
X154994291Y-109308562D01*
X154998250Y-109308500D01*
X155026161Y-109308500D01*
X155030096Y-109308003D01*
X155030161Y-109307995D01*
X155041998Y-109307062D01*
X155074256Y-109306048D01*
X155078275Y-109305922D01*
X155086194Y-109305673D01*
X155105648Y-109300021D01*
X155125005Y-109296013D01*
X155137235Y-109294468D01*
X155137236Y-109294468D01*
X155145102Y-109293474D01*
X155152473Y-109290555D01*
X155152475Y-109290555D01*
X155186217Y-109277196D01*
X155197447Y-109273351D01*
X155232288Y-109263229D01*
X155232289Y-109263229D01*
X155239898Y-109261018D01*
X155246717Y-109256985D01*
X155246722Y-109256983D01*
X155257333Y-109250707D01*
X155275081Y-109242012D01*
X155293922Y-109234552D01*
X155302682Y-109228188D01*
X155329692Y-109208564D01*
X155339612Y-109202048D01*
X155370840Y-109183580D01*
X155370843Y-109183578D01*
X155377667Y-109179542D01*
X155391988Y-109165221D01*
X155407022Y-109152380D01*
X155408737Y-109151134D01*
X155423412Y-109140472D01*
X155428462Y-109134368D01*
X155428467Y-109134363D01*
X155451598Y-109106402D01*
X155459588Y-109097621D01*
X156348258Y-108208952D01*
X156356537Y-108201418D01*
X156363018Y-108197305D01*
X156409644Y-108147653D01*
X156412398Y-108144812D01*
X156432135Y-108125075D01*
X156434615Y-108121878D01*
X156442320Y-108112856D01*
X156467159Y-108086405D01*
X156472586Y-108080626D01*
X156476405Y-108073680D01*
X156476407Y-108073677D01*
X156482348Y-108062871D01*
X156493199Y-108046352D01*
X156500758Y-108036606D01*
X156505614Y-108030346D01*
X156508759Y-108023077D01*
X156508762Y-108023073D01*
X156523174Y-107989768D01*
X156528391Y-107979118D01*
X156549695Y-107940365D01*
X156554733Y-107920742D01*
X156561137Y-107902039D01*
X156566033Y-107890725D01*
X156566033Y-107890724D01*
X156569181Y-107883450D01*
X156570420Y-107875627D01*
X156570423Y-107875617D01*
X156576099Y-107839781D01*
X156578505Y-107828161D01*
X156587528Y-107793016D01*
X156587528Y-107793015D01*
X156589500Y-107785335D01*
X156589500Y-107765081D01*
X156591051Y-107745370D01*
X156592980Y-107733191D01*
X156594220Y-107725362D01*
X156590059Y-107681343D01*
X156589500Y-107669486D01*
X156589500Y-105584609D01*
X178521721Y-105584609D01*
X178526630Y-105591167D01*
X178610150Y-105637844D01*
X178621390Y-105642755D01*
X178794877Y-105699124D01*
X178806851Y-105701757D01*
X178987992Y-105723357D01*
X179000241Y-105723614D01*
X179182125Y-105709619D01*
X179194195Y-105707490D01*
X179237117Y-105695506D01*
X179308108Y-105696453D01*
X179367317Y-105735629D01*
X179395946Y-105800597D01*
X179397001Y-105816865D01*
X179397001Y-106103669D01*
X179397371Y-106110490D01*
X179402895Y-106161352D01*
X179406521Y-106176604D01*
X179451676Y-106297054D01*
X179460214Y-106312649D01*
X179536715Y-106414724D01*
X179549276Y-106427285D01*
X179651351Y-106503786D01*
X179666946Y-106512324D01*
X179787394Y-106557478D01*
X179802649Y-106561105D01*
X179853514Y-106566631D01*
X179860328Y-106567000D01*
X181727885Y-106567000D01*
X181743124Y-106562525D01*
X181744329Y-106561135D01*
X181746000Y-106553452D01*
X181746000Y-104998615D01*
X181741525Y-104983376D01*
X181740135Y-104982171D01*
X181732452Y-104980500D01*
X179708115Y-104980500D01*
X179692876Y-104984975D01*
X179691671Y-104986365D01*
X179690000Y-104994048D01*
X179690000Y-105378500D01*
X179669998Y-105446621D01*
X179616342Y-105493114D01*
X179564000Y-105504500D01*
X179356000Y-105504500D01*
X179287879Y-105484498D01*
X179241386Y-105430842D01*
X179230000Y-105378500D01*
X179230000Y-104888825D01*
X179226763Y-104877800D01*
X179219672Y-104881038D01*
X178528481Y-105572229D01*
X178521721Y-105584609D01*
X156589500Y-105584609D01*
X156589500Y-104718712D01*
X178017808Y-104718712D01*
X178033071Y-104900482D01*
X178035286Y-104912547D01*
X178085565Y-105087891D01*
X178090083Y-105099303D01*
X178147286Y-105210607D01*
X178157007Y-105220828D01*
X178163806Y-105218484D01*
X178642978Y-104739312D01*
X178650592Y-104725368D01*
X178650461Y-104723535D01*
X178646210Y-104716920D01*
X178169166Y-104239876D01*
X178156786Y-104233116D01*
X178150398Y-104237898D01*
X178100854Y-104328016D01*
X178096017Y-104339301D01*
X178040861Y-104513175D01*
X178038313Y-104525164D01*
X178017979Y-104706443D01*
X178017808Y-104718712D01*
X156589500Y-104718712D01*
X156589500Y-103946594D01*
X156609502Y-103878473D01*
X156617365Y-103868716D01*
X178520934Y-103868716D01*
X178523389Y-103875679D01*
X179217188Y-104569478D01*
X179227277Y-104574987D01*
X179230000Y-104567686D01*
X179230000Y-104074500D01*
X179250002Y-104006379D01*
X179303658Y-103959886D01*
X179356000Y-103948500D01*
X179564000Y-103948500D01*
X179632121Y-103968502D01*
X179678614Y-104022158D01*
X179690000Y-104074500D01*
X179690000Y-104454385D01*
X179694475Y-104469624D01*
X179695865Y-104470829D01*
X179703548Y-104472500D01*
X181727885Y-104472500D01*
X181743124Y-104468025D01*
X181744329Y-104466635D01*
X181746000Y-104458952D01*
X181746000Y-102904116D01*
X181741525Y-102888877D01*
X181740135Y-102887672D01*
X181732452Y-102886001D01*
X179860331Y-102886001D01*
X179853510Y-102886371D01*
X179802648Y-102891895D01*
X179787396Y-102895521D01*
X179666946Y-102940676D01*
X179651351Y-102949214D01*
X179549276Y-103025715D01*
X179536715Y-103038276D01*
X179460214Y-103140351D01*
X179451676Y-103155946D01*
X179406522Y-103276394D01*
X179402895Y-103291649D01*
X179397369Y-103342514D01*
X179397000Y-103349328D01*
X179397000Y-103634314D01*
X179376998Y-103702435D01*
X179323342Y-103748928D01*
X179253068Y-103759032D01*
X179233742Y-103754679D01*
X179221527Y-103750898D01*
X179209511Y-103748431D01*
X179028094Y-103729363D01*
X179015826Y-103729278D01*
X178834169Y-103745810D01*
X178822120Y-103748108D01*
X178647128Y-103799611D01*
X178635751Y-103804208D01*
X178531083Y-103858927D01*
X178520934Y-103868716D01*
X156617365Y-103868716D01*
X156626405Y-103857499D01*
X157488567Y-102995338D01*
X158380253Y-102103652D01*
X158388539Y-102096112D01*
X158395018Y-102092000D01*
X158441644Y-102042348D01*
X158444398Y-102039507D01*
X158464135Y-102019770D01*
X158466615Y-102016573D01*
X158474320Y-102007551D01*
X158499159Y-101981100D01*
X158504586Y-101975321D01*
X158508405Y-101968375D01*
X158508407Y-101968372D01*
X158514348Y-101957566D01*
X158525199Y-101941047D01*
X158532758Y-101931301D01*
X158537614Y-101925041D01*
X158540759Y-101917772D01*
X158540762Y-101917768D01*
X158555174Y-101884463D01*
X158560391Y-101873813D01*
X158581695Y-101835060D01*
X158586733Y-101815437D01*
X158593137Y-101796734D01*
X158598033Y-101785420D01*
X158598033Y-101785419D01*
X158601181Y-101778145D01*
X158602420Y-101770322D01*
X158602423Y-101770312D01*
X158608099Y-101734476D01*
X158610505Y-101722856D01*
X158619528Y-101687711D01*
X158619528Y-101687710D01*
X158621500Y-101680030D01*
X158621500Y-101659776D01*
X158623051Y-101640065D01*
X158624980Y-101627886D01*
X158626220Y-101620057D01*
X158622059Y-101576038D01*
X158621500Y-101564181D01*
X158621500Y-98599609D01*
X178521721Y-98599609D01*
X178526630Y-98606167D01*
X178610150Y-98652844D01*
X178621390Y-98657755D01*
X178794877Y-98714124D01*
X178806851Y-98716757D01*
X178987992Y-98738357D01*
X179000241Y-98738614D01*
X179182125Y-98724619D01*
X179194195Y-98722490D01*
X179237117Y-98710506D01*
X179308108Y-98711453D01*
X179367317Y-98750629D01*
X179395946Y-98815597D01*
X179397001Y-98831865D01*
X179397001Y-99118669D01*
X179397371Y-99125490D01*
X179402895Y-99176352D01*
X179406521Y-99191604D01*
X179451676Y-99312054D01*
X179460214Y-99327649D01*
X179536715Y-99429724D01*
X179549276Y-99442285D01*
X179651351Y-99518786D01*
X179666946Y-99527324D01*
X179787394Y-99572478D01*
X179802649Y-99576105D01*
X179853514Y-99581631D01*
X179860328Y-99582000D01*
X181727885Y-99582000D01*
X181743124Y-99577525D01*
X181744329Y-99576135D01*
X181746000Y-99568452D01*
X181746000Y-98013615D01*
X181741525Y-97998376D01*
X181740135Y-97997171D01*
X181732452Y-97995500D01*
X179708115Y-97995500D01*
X179692876Y-97999975D01*
X179691671Y-98001365D01*
X179690000Y-98009048D01*
X179690000Y-98393500D01*
X179669998Y-98461621D01*
X179616342Y-98508114D01*
X179564000Y-98519500D01*
X179356000Y-98519500D01*
X179287879Y-98499498D01*
X179241386Y-98445842D01*
X179230000Y-98393500D01*
X179230000Y-97903825D01*
X179226763Y-97892800D01*
X179219672Y-97896038D01*
X178528481Y-98587229D01*
X178521721Y-98599609D01*
X158621500Y-98599609D01*
X158621500Y-98358594D01*
X158641502Y-98290473D01*
X158658405Y-98269499D01*
X158700499Y-98227405D01*
X158762811Y-98193379D01*
X158789594Y-98190500D01*
X158845487Y-98190500D01*
X158851939Y-98189128D01*
X158851944Y-98189128D01*
X158963944Y-98165321D01*
X159032288Y-98150794D01*
X159038319Y-98148109D01*
X159200722Y-98075803D01*
X159200724Y-98075802D01*
X159206752Y-98073118D01*
X159219575Y-98063802D01*
X159286907Y-98014882D01*
X159361253Y-97960866D01*
X159404481Y-97912856D01*
X159484621Y-97823852D01*
X159484622Y-97823851D01*
X159489040Y-97818944D01*
X159538249Y-97733712D01*
X178017808Y-97733712D01*
X178033071Y-97915482D01*
X178035286Y-97927547D01*
X178085565Y-98102891D01*
X178090083Y-98114303D01*
X178147286Y-98225607D01*
X178157007Y-98235828D01*
X178163806Y-98233484D01*
X178642978Y-97754312D01*
X178650592Y-97740368D01*
X178650461Y-97738535D01*
X178646210Y-97731920D01*
X178169166Y-97254876D01*
X178156786Y-97248116D01*
X178150398Y-97252898D01*
X178100854Y-97343016D01*
X178096017Y-97354301D01*
X178040861Y-97528175D01*
X178038313Y-97540164D01*
X178017979Y-97721443D01*
X178017808Y-97733712D01*
X159538249Y-97733712D01*
X159552071Y-97709772D01*
X159581223Y-97659279D01*
X159581224Y-97659278D01*
X159584527Y-97653556D01*
X159643542Y-97471928D01*
X159648177Y-97427834D01*
X159662814Y-97288565D01*
X159663504Y-97282000D01*
X159652280Y-97175206D01*
X159644232Y-97098635D01*
X159644232Y-97098633D01*
X159643542Y-97092072D01*
X159584527Y-96910444D01*
X159569096Y-96883716D01*
X178520934Y-96883716D01*
X178523389Y-96890679D01*
X179217188Y-97584478D01*
X179227277Y-97589987D01*
X179230000Y-97582686D01*
X179230000Y-97089500D01*
X179250002Y-97021379D01*
X179303658Y-96974886D01*
X179356000Y-96963500D01*
X179564000Y-96963500D01*
X179632121Y-96983502D01*
X179678614Y-97037158D01*
X179690000Y-97089500D01*
X179690000Y-97469385D01*
X179694475Y-97484624D01*
X179695865Y-97485829D01*
X179703548Y-97487500D01*
X181727885Y-97487500D01*
X181743124Y-97483025D01*
X181744329Y-97481635D01*
X181746000Y-97473952D01*
X181746000Y-95919116D01*
X181741525Y-95903877D01*
X181740135Y-95902672D01*
X181732452Y-95901001D01*
X179860331Y-95901001D01*
X179853510Y-95901371D01*
X179802648Y-95906895D01*
X179787396Y-95910521D01*
X179666946Y-95955676D01*
X179651351Y-95964214D01*
X179549276Y-96040715D01*
X179536715Y-96053276D01*
X179460214Y-96155351D01*
X179451676Y-96170946D01*
X179406522Y-96291394D01*
X179402895Y-96306649D01*
X179397369Y-96357514D01*
X179397000Y-96364328D01*
X179397000Y-96649314D01*
X179376998Y-96717435D01*
X179323342Y-96763928D01*
X179253068Y-96774032D01*
X179233742Y-96769679D01*
X179221527Y-96765898D01*
X179209511Y-96763431D01*
X179028094Y-96744363D01*
X179015826Y-96744278D01*
X178834169Y-96760810D01*
X178822120Y-96763108D01*
X178647128Y-96814611D01*
X178635751Y-96819208D01*
X178531083Y-96873927D01*
X178520934Y-96883716D01*
X159569096Y-96883716D01*
X159489040Y-96745056D01*
X159361253Y-96603134D01*
X159206752Y-96490882D01*
X159200724Y-96488198D01*
X159200722Y-96488197D01*
X159038319Y-96415891D01*
X159038318Y-96415891D01*
X159032288Y-96413206D01*
X158919570Y-96389247D01*
X158857097Y-96355518D01*
X158822775Y-96293369D01*
X158827503Y-96222530D01*
X158869779Y-96165492D01*
X158919570Y-96142753D01*
X159032288Y-96118794D01*
X159179445Y-96053276D01*
X159200722Y-96043803D01*
X159200724Y-96043802D01*
X159206752Y-96041118D01*
X159361253Y-95928866D01*
X159396596Y-95889614D01*
X159484621Y-95791852D01*
X159484622Y-95791851D01*
X159489040Y-95786944D01*
X159584527Y-95621556D01*
X159643542Y-95439928D01*
X159663504Y-95250000D01*
X159662814Y-95243435D01*
X159644232Y-95066635D01*
X159644232Y-95066633D01*
X159643542Y-95060072D01*
X159584527Y-94878444D01*
X159579175Y-94869173D01*
X159494683Y-94722830D01*
X159489040Y-94713056D01*
X159361253Y-94571134D01*
X159206752Y-94458882D01*
X159200724Y-94456198D01*
X159200722Y-94456197D01*
X159038319Y-94383891D01*
X159038318Y-94383891D01*
X159032288Y-94381206D01*
X158919570Y-94357247D01*
X158857097Y-94323518D01*
X158822775Y-94261369D01*
X158827503Y-94190530D01*
X158869779Y-94133492D01*
X158919570Y-94110753D01*
X159032288Y-94086794D01*
X159128244Y-94044072D01*
X159200722Y-94011803D01*
X159200724Y-94011802D01*
X159206752Y-94009118D01*
X159361253Y-93896866D01*
X159489040Y-93754944D01*
X159584527Y-93589556D01*
X159643542Y-93407928D01*
X159646930Y-93375699D01*
X159662814Y-93224565D01*
X159663504Y-93218000D01*
X159656456Y-93150946D01*
X159644232Y-93034635D01*
X159644232Y-93034633D01*
X159643542Y-93028072D01*
X159584527Y-92846444D01*
X159578209Y-92835500D01*
X159503754Y-92706542D01*
X159489040Y-92681056D01*
X159476724Y-92667377D01*
X159365675Y-92544045D01*
X159365674Y-92544044D01*
X159361253Y-92539134D01*
X159206752Y-92426882D01*
X159200724Y-92424198D01*
X159200722Y-92424197D01*
X159038319Y-92351891D01*
X159038318Y-92351891D01*
X159032288Y-92349206D01*
X158919570Y-92325247D01*
X158857097Y-92291518D01*
X158822775Y-92229369D01*
X158827503Y-92158530D01*
X158869779Y-92101492D01*
X158919570Y-92078753D01*
X159032288Y-92054794D01*
X159038319Y-92052109D01*
X159200722Y-91979803D01*
X159200724Y-91979802D01*
X159206752Y-91977118D01*
X159361253Y-91864866D01*
X159396698Y-91825500D01*
X159484621Y-91727852D01*
X159484622Y-91727851D01*
X159489040Y-91722944D01*
X159584527Y-91557556D01*
X159643542Y-91375928D01*
X159656330Y-91254262D01*
X159662814Y-91192565D01*
X159663504Y-91186000D01*
X159655509Y-91109931D01*
X159644232Y-91002635D01*
X159644232Y-91002633D01*
X159643542Y-90996072D01*
X159584527Y-90814444D01*
X159489040Y-90649056D01*
X159445018Y-90600164D01*
X159365675Y-90512045D01*
X159365674Y-90512044D01*
X159361253Y-90507134D01*
X159206752Y-90394882D01*
X159200724Y-90392198D01*
X159200722Y-90392197D01*
X159038319Y-90319891D01*
X159038318Y-90319891D01*
X159032288Y-90317206D01*
X158938887Y-90297353D01*
X158851944Y-90278872D01*
X158851939Y-90278872D01*
X158845487Y-90277500D01*
X158654513Y-90277500D01*
X158648061Y-90278872D01*
X158648056Y-90278872D01*
X158561112Y-90297353D01*
X158467712Y-90317206D01*
X158461685Y-90319889D01*
X158461677Y-90319892D01*
X158391280Y-90351235D01*
X158320913Y-90360669D01*
X158256616Y-90330562D01*
X158218803Y-90270473D01*
X158219479Y-90199480D01*
X158250937Y-90147033D01*
X159230528Y-89167443D01*
X159236793Y-89161589D01*
X159274664Y-89128552D01*
X159274665Y-89128551D01*
X159280385Y-89123561D01*
X159317136Y-89071271D01*
X159321028Y-89066029D01*
X159360476Y-89015718D01*
X159363600Y-89008799D01*
X159364988Y-89006507D01*
X159373357Y-88991835D01*
X159374622Y-88989475D01*
X159378990Y-88983261D01*
X159381781Y-88976104D01*
X159402202Y-88923725D01*
X159404759Y-88917642D01*
X159410525Y-88904874D01*
X159431045Y-88859427D01*
X159432430Y-88851954D01*
X159433234Y-88849388D01*
X159437855Y-88833165D01*
X159438520Y-88830573D01*
X159441282Y-88823491D01*
X159449622Y-88760139D01*
X159450654Y-88753623D01*
X159460911Y-88698281D01*
X159462295Y-88690814D01*
X159458709Y-88628620D01*
X159458500Y-88621367D01*
X159458500Y-86451661D01*
X159478502Y-86383540D01*
X159495407Y-86362563D01*
X159514569Y-86343402D01*
X159576882Y-86309379D01*
X159603662Y-86306500D01*
X177708339Y-86306500D01*
X177776460Y-86326502D01*
X177797437Y-86343407D01*
X177816598Y-86362569D01*
X177850621Y-86424882D01*
X177853500Y-86451662D01*
X177853500Y-86520951D01*
X177833498Y-86589072D01*
X177810329Y-86615900D01*
X177783341Y-86639443D01*
X177783337Y-86639447D01*
X177777615Y-86644439D01*
X177740872Y-86696719D01*
X177736939Y-86702014D01*
X177697524Y-86752282D01*
X177694401Y-86759198D01*
X177693017Y-86761484D01*
X177684643Y-86776165D01*
X177683378Y-86778525D01*
X177679010Y-86784739D01*
X177676250Y-86791818D01*
X177676249Y-86791820D01*
X177655798Y-86844275D01*
X177653247Y-86850344D01*
X177626955Y-86908573D01*
X177625571Y-86916040D01*
X177624770Y-86918595D01*
X177620141Y-86934848D01*
X177619478Y-86937428D01*
X177616718Y-86944509D01*
X177615727Y-86952040D01*
X177615726Y-86952042D01*
X177608379Y-87007852D01*
X177607348Y-87014359D01*
X177595704Y-87077186D01*
X177596141Y-87084766D01*
X177596141Y-87084767D01*
X177599291Y-87139392D01*
X177599500Y-87146646D01*
X177599500Y-92599256D01*
X177579498Y-92667377D01*
X177575436Y-92673317D01*
X177573379Y-92676148D01*
X177568960Y-92681056D01*
X177565659Y-92686774D01*
X177565658Y-92686775D01*
X177479792Y-92835500D01*
X177473473Y-92846444D01*
X177414458Y-93028072D01*
X177413768Y-93034633D01*
X177413768Y-93034635D01*
X177401544Y-93150946D01*
X177394496Y-93218000D01*
X177395186Y-93224565D01*
X177411071Y-93375699D01*
X177414458Y-93407928D01*
X177473473Y-93589556D01*
X177568960Y-93754944D01*
X177696747Y-93896866D01*
X177851248Y-94009118D01*
X177857276Y-94011802D01*
X177857278Y-94011803D01*
X177929756Y-94044072D01*
X178025712Y-94086794D01*
X178119113Y-94106647D01*
X178206056Y-94125128D01*
X178206061Y-94125128D01*
X178212513Y-94126500D01*
X178403487Y-94126500D01*
X178409939Y-94125128D01*
X178409944Y-94125128D01*
X178496887Y-94106647D01*
X178590288Y-94086794D01*
X178686244Y-94044072D01*
X178758722Y-94011803D01*
X178758724Y-94011802D01*
X178764752Y-94009118D01*
X178919253Y-93896866D01*
X179047040Y-93754944D01*
X179142527Y-93589556D01*
X179201542Y-93407928D01*
X179204930Y-93375699D01*
X179220814Y-93224565D01*
X179221504Y-93218000D01*
X179214456Y-93150946D01*
X179202232Y-93034635D01*
X179202232Y-93034633D01*
X179201542Y-93028072D01*
X179142527Y-92846444D01*
X179136209Y-92835500D01*
X179050342Y-92686775D01*
X179050341Y-92686774D01*
X179047040Y-92681056D01*
X179042621Y-92676148D01*
X179040564Y-92673317D01*
X179016705Y-92606449D01*
X179016500Y-92599256D01*
X179016500Y-90124381D01*
X179036502Y-90056260D01*
X179090158Y-90009767D01*
X179160432Y-89999663D01*
X179225012Y-90029157D01*
X179232754Y-90036460D01*
X179237443Y-90041273D01*
X179237448Y-90041277D01*
X179240102Y-90044002D01*
X179499132Y-90252640D01*
X179581035Y-90303719D01*
X179722905Y-90392197D01*
X179781352Y-90428648D01*
X180082672Y-90569476D01*
X180086281Y-90570659D01*
X180373694Y-90664878D01*
X180398729Y-90673085D01*
X180724944Y-90737973D01*
X180728716Y-90738260D01*
X180728724Y-90738261D01*
X181052815Y-90762914D01*
X181052820Y-90762914D01*
X181056592Y-90763201D01*
X181388869Y-90748403D01*
X181393401Y-90747649D01*
X181713220Y-90694417D01*
X181713225Y-90694416D01*
X181716961Y-90693794D01*
X182036116Y-90600164D01*
X182039583Y-90598674D01*
X182039587Y-90598673D01*
X182338228Y-90470366D01*
X182338230Y-90470365D01*
X182341712Y-90468869D01*
X182629321Y-90301813D01*
X182632343Y-90299532D01*
X182632347Y-90299529D01*
X182891753Y-90103697D01*
X182891754Y-90103696D01*
X182894777Y-90101414D01*
X183134235Y-89870575D01*
X183344227Y-89612641D01*
X183358938Y-89589326D01*
X183412204Y-89542387D01*
X183482391Y-89531697D01*
X183547215Y-89560651D01*
X183586096Y-89620055D01*
X183591500Y-89656560D01*
X183591500Y-95775000D01*
X183571498Y-95843121D01*
X183517842Y-95889614D01*
X183465500Y-95901000D01*
X182272115Y-95901000D01*
X182256876Y-95905475D01*
X182255671Y-95906865D01*
X182254000Y-95914548D01*
X182254000Y-99563884D01*
X182258475Y-99579123D01*
X182259865Y-99580328D01*
X182267548Y-99581999D01*
X183465500Y-99581999D01*
X183533621Y-99602001D01*
X183580114Y-99655657D01*
X183591500Y-99707999D01*
X183591500Y-102760000D01*
X183571498Y-102828121D01*
X183517842Y-102874614D01*
X183465500Y-102886000D01*
X182272115Y-102886000D01*
X182256876Y-102890475D01*
X182255671Y-102891865D01*
X182254000Y-102899548D01*
X182254000Y-106548884D01*
X182258475Y-106564123D01*
X182259865Y-106565328D01*
X182267548Y-106566999D01*
X183465500Y-106566999D01*
X183533621Y-106587001D01*
X183580114Y-106640657D01*
X183591500Y-106692999D01*
X183591500Y-117342655D01*
X183571498Y-117410776D01*
X183517842Y-117457269D01*
X183447568Y-117467373D01*
X183382988Y-117437879D01*
X183366143Y-117420142D01*
X183305713Y-117342655D01*
X183172963Y-117172437D01*
X182938392Y-116936634D01*
X182677191Y-116730720D01*
X182393144Y-116557677D01*
X182272046Y-116502617D01*
X182093817Y-116421580D01*
X182093809Y-116421577D01*
X182090365Y-116420011D01*
X181773240Y-116319718D01*
X181550896Y-116277906D01*
X181450087Y-116258949D01*
X181450085Y-116258949D01*
X181446364Y-116258249D01*
X181114470Y-116236496D01*
X181110690Y-116236704D01*
X181110689Y-116236704D01*
X181012918Y-116242085D01*
X180782366Y-116254773D01*
X180778639Y-116255434D01*
X180778635Y-116255434D01*
X180519510Y-116301358D01*
X180454864Y-116312815D01*
X180451239Y-116313920D01*
X180451234Y-116313921D01*
X180243683Y-116377178D01*
X180136707Y-116409782D01*
X180133243Y-116411313D01*
X180133236Y-116411316D01*
X179946051Y-116494070D01*
X179832503Y-116544269D01*
X179829249Y-116546205D01*
X179829243Y-116546208D01*
X179549918Y-116712389D01*
X179546659Y-116714328D01*
X179283316Y-116917496D01*
X179046288Y-117150829D01*
X178839009Y-117410949D01*
X178664481Y-117694086D01*
X178525232Y-117996140D01*
X178524073Y-117999740D01*
X178524070Y-117999747D01*
X178424442Y-118309126D01*
X178423280Y-118312735D01*
X178422561Y-118316451D01*
X178422559Y-118316459D01*
X178360819Y-118635567D01*
X178360100Y-118639285D01*
X178359833Y-118643061D01*
X178359832Y-118643066D01*
X178341837Y-118897237D01*
X178336610Y-118971061D01*
X178353147Y-119303255D01*
X178353788Y-119306986D01*
X178353789Y-119306994D01*
X178368586Y-119393103D01*
X178409474Y-119631057D01*
X178504774Y-119949718D01*
X178506287Y-119953189D01*
X178506289Y-119953195D01*
X178597458Y-120162370D01*
X178637666Y-120254622D01*
X178806226Y-120541352D01*
X178808527Y-120544367D01*
X179005712Y-120802742D01*
X179005717Y-120802748D01*
X179008012Y-120805755D01*
X179240102Y-121044002D01*
X179499132Y-121252640D01*
X179502357Y-121254651D01*
X179502358Y-121254652D01*
X179508671Y-121258589D01*
X179555887Y-121311609D01*
X179566942Y-121381740D01*
X179538327Y-121446714D01*
X179479126Y-121485904D01*
X179441993Y-121491500D01*
X110754084Y-121491500D01*
X110685963Y-121471498D01*
X110639470Y-121417842D01*
X110629366Y-121347568D01*
X110658860Y-121282988D01*
X110678167Y-121264938D01*
X110891753Y-121103697D01*
X110891754Y-121103696D01*
X110894777Y-121101414D01*
X111134235Y-120870575D01*
X111344227Y-120612641D01*
X111521710Y-120331347D01*
X111664114Y-120030767D01*
X111769377Y-119715257D01*
X111835972Y-119389386D01*
X111862936Y-119057875D01*
X111863542Y-119000000D01*
X111863409Y-118997789D01*
X111843755Y-118671772D01*
X111843754Y-118671765D01*
X111843527Y-118667997D01*
X111783770Y-118340803D01*
X111773028Y-118306206D01*
X111686261Y-118026771D01*
X111685139Y-118023157D01*
X111549061Y-117719662D01*
X111457845Y-117568153D01*
X111379466Y-117437966D01*
X111379462Y-117437960D01*
X111377507Y-117434713D01*
X111375180Y-117431729D01*
X111375175Y-117431722D01*
X111175294Y-117175425D01*
X111175288Y-117175418D01*
X111172963Y-117172437D01*
X110938392Y-116936634D01*
X110677191Y-116730720D01*
X110393144Y-116557677D01*
X110272046Y-116502617D01*
X110093817Y-116421580D01*
X110093809Y-116421577D01*
X110090365Y-116420011D01*
X109773240Y-116319718D01*
X109550896Y-116277906D01*
X109450087Y-116258949D01*
X109450085Y-116258949D01*
X109446364Y-116258249D01*
X109114470Y-116236496D01*
X109110690Y-116236704D01*
X109110689Y-116236704D01*
X109012918Y-116242085D01*
X108782366Y-116254773D01*
X108778639Y-116255434D01*
X108778635Y-116255434D01*
X108519510Y-116301358D01*
X108454864Y-116312815D01*
X108451239Y-116313920D01*
X108451234Y-116313921D01*
X108243683Y-116377178D01*
X108136707Y-116409782D01*
X108133243Y-116411313D01*
X108133236Y-116411316D01*
X107946051Y-116494070D01*
X107832503Y-116544269D01*
X107829249Y-116546205D01*
X107829243Y-116546208D01*
X107549918Y-116712389D01*
X107546659Y-116714328D01*
X107283316Y-116917496D01*
X107046288Y-117150829D01*
X106839009Y-117410949D01*
X106837449Y-117413480D01*
X106782052Y-117457601D01*
X106711420Y-117464787D01*
X106648116Y-117432646D01*
X106612238Y-117371382D01*
X106608500Y-117340919D01*
X106608500Y-113538000D01*
X109068496Y-113538000D01*
X109069186Y-113544565D01*
X109083894Y-113684500D01*
X109088458Y-113727928D01*
X109147473Y-113909556D01*
X109242960Y-114074944D01*
X109247378Y-114079851D01*
X109247379Y-114079852D01*
X109366325Y-114211955D01*
X109370747Y-114216866D01*
X109437179Y-114265132D01*
X109483397Y-114298711D01*
X109525248Y-114329118D01*
X109531276Y-114331802D01*
X109531278Y-114331803D01*
X109693681Y-114404109D01*
X109699712Y-114406794D01*
X109787025Y-114425353D01*
X109880056Y-114445128D01*
X109880061Y-114445128D01*
X109886513Y-114446500D01*
X110077487Y-114446500D01*
X110083939Y-114445128D01*
X110083944Y-114445128D01*
X110176975Y-114425353D01*
X110264288Y-114406794D01*
X110270319Y-114404109D01*
X110432722Y-114331803D01*
X110432724Y-114331802D01*
X110438752Y-114329118D01*
X110480604Y-114298711D01*
X110526821Y-114265132D01*
X110593253Y-114216866D01*
X110597675Y-114211955D01*
X110716621Y-114079852D01*
X110716622Y-114079851D01*
X110721040Y-114074944D01*
X110816527Y-113909556D01*
X110875542Y-113727928D01*
X110880107Y-113684500D01*
X110894814Y-113544565D01*
X110895504Y-113538000D01*
X110888080Y-113467365D01*
X110876232Y-113354635D01*
X110876232Y-113354633D01*
X110875542Y-113348072D01*
X110816527Y-113166444D01*
X110721040Y-113001056D01*
X110716621Y-112996148D01*
X110622864Y-112892020D01*
X110592146Y-112828013D01*
X110590500Y-112807710D01*
X110590500Y-111810239D01*
X110610502Y-111742118D01*
X110627405Y-111721144D01*
X112664234Y-109684315D01*
X112676625Y-109673448D01*
X112695437Y-109659013D01*
X112701987Y-109653987D01*
X112726474Y-109622075D01*
X112726480Y-109622069D01*
X112794496Y-109533429D01*
X112794497Y-109533427D01*
X112799524Y-109526876D01*
X112824921Y-109465562D01*
X112860838Y-109378850D01*
X112876500Y-109259885D01*
X112876500Y-109259878D01*
X112881750Y-109220000D01*
X112877578Y-109188307D01*
X112876500Y-109171864D01*
X112876500Y-107664290D01*
X112896502Y-107596169D01*
X112908859Y-107579985D01*
X112975866Y-107505566D01*
X113036309Y-107468328D01*
X113107293Y-107469679D01*
X113166278Y-107509193D01*
X113194536Y-107574323D01*
X113195500Y-107589878D01*
X113195500Y-111464233D01*
X113194973Y-111475416D01*
X113193298Y-111482909D01*
X113193547Y-111490835D01*
X113193547Y-111490836D01*
X113195438Y-111550986D01*
X113195500Y-111554945D01*
X113195500Y-111582856D01*
X113195997Y-111586790D01*
X113195997Y-111586791D01*
X113196005Y-111586856D01*
X113196938Y-111598693D01*
X113198327Y-111642889D01*
X113203978Y-111662339D01*
X113207987Y-111681700D01*
X113210526Y-111701797D01*
X113213445Y-111709168D01*
X113213445Y-111709170D01*
X113226804Y-111742912D01*
X113230649Y-111754142D01*
X113242982Y-111796593D01*
X113247015Y-111803412D01*
X113247017Y-111803417D01*
X113253293Y-111814028D01*
X113261988Y-111831776D01*
X113269448Y-111850617D01*
X113274110Y-111857033D01*
X113274110Y-111857034D01*
X113295436Y-111886387D01*
X113301952Y-111896307D01*
X113309986Y-111909891D01*
X113324458Y-111934362D01*
X113338779Y-111948683D01*
X113351619Y-111963716D01*
X113363528Y-111980107D01*
X113397605Y-112008298D01*
X113406384Y-112016288D01*
X114114878Y-112724782D01*
X114148904Y-112787094D01*
X114151092Y-112800703D01*
X114168458Y-112965928D01*
X114227473Y-113147556D01*
X114322960Y-113312944D01*
X114327378Y-113317851D01*
X114327379Y-113317852D01*
X114354589Y-113348072D01*
X114450747Y-113454866D01*
X114549843Y-113526864D01*
X114574207Y-113544565D01*
X114605248Y-113567118D01*
X114611276Y-113569802D01*
X114611278Y-113569803D01*
X114773681Y-113642109D01*
X114779712Y-113644794D01*
X114873112Y-113664647D01*
X114960056Y-113683128D01*
X114960061Y-113683128D01*
X114966513Y-113684500D01*
X115157487Y-113684500D01*
X115163939Y-113683128D01*
X115163944Y-113683128D01*
X115250887Y-113664647D01*
X115344288Y-113644794D01*
X115350319Y-113642109D01*
X115512722Y-113569803D01*
X115512724Y-113569802D01*
X115518752Y-113567118D01*
X115549794Y-113544565D01*
X115574157Y-113526864D01*
X115673253Y-113454866D01*
X115769411Y-113348072D01*
X115796621Y-113317852D01*
X115796622Y-113317851D01*
X115801040Y-113312944D01*
X115896527Y-113147556D01*
X115955542Y-112965928D01*
X115965012Y-112875831D01*
X115974814Y-112782565D01*
X115975504Y-112776000D01*
X115968897Y-112713138D01*
X115956232Y-112592635D01*
X115956232Y-112592633D01*
X115955542Y-112586072D01*
X115896527Y-112404444D01*
X115801040Y-112239056D01*
X115673253Y-112097134D01*
X115574157Y-112025136D01*
X115524094Y-111988763D01*
X115524093Y-111988762D01*
X115518752Y-111984882D01*
X115512724Y-111982198D01*
X115512722Y-111982197D01*
X115350319Y-111909891D01*
X115350318Y-111909891D01*
X115344288Y-111907206D01*
X115246343Y-111886387D01*
X115163944Y-111868872D01*
X115163939Y-111868872D01*
X115157487Y-111867500D01*
X115101595Y-111867500D01*
X115033474Y-111847498D01*
X115012500Y-111830595D01*
X114499405Y-111317500D01*
X114465379Y-111255188D01*
X114462500Y-111228405D01*
X114462500Y-106033768D01*
X114463027Y-106022585D01*
X114464702Y-106015092D01*
X114462562Y-105947001D01*
X114462500Y-105943044D01*
X114462500Y-105915144D01*
X114461996Y-105911153D01*
X114461063Y-105899311D01*
X114459923Y-105863036D01*
X114459674Y-105855111D01*
X114454021Y-105835652D01*
X114450012Y-105816293D01*
X114449846Y-105814983D01*
X114447474Y-105796203D01*
X114444558Y-105788837D01*
X114444556Y-105788831D01*
X114431200Y-105755098D01*
X114427355Y-105743868D01*
X114417230Y-105709017D01*
X114417230Y-105709016D01*
X114415019Y-105701407D01*
X114404705Y-105683966D01*
X114396008Y-105666213D01*
X114391472Y-105654758D01*
X114388552Y-105647383D01*
X114362563Y-105611612D01*
X114356047Y-105601692D01*
X114333542Y-105563638D01*
X114319221Y-105549317D01*
X114306380Y-105534283D01*
X114299131Y-105524306D01*
X114294472Y-105517893D01*
X114260395Y-105489702D01*
X114251616Y-105481712D01*
X113120122Y-104350217D01*
X113086096Y-104287905D01*
X113083907Y-104274292D01*
X113082706Y-104262860D01*
X113074003Y-104180058D01*
X113067232Y-104115635D01*
X113067232Y-104115633D01*
X113066542Y-104109072D01*
X113007527Y-103927444D01*
X113003616Y-103920669D01*
X112946420Y-103821604D01*
X112912040Y-103762056D01*
X112906865Y-103756308D01*
X112788675Y-103625045D01*
X112788671Y-103625041D01*
X112784253Y-103620134D01*
X112657292Y-103527891D01*
X112635094Y-103511763D01*
X112635093Y-103511762D01*
X112629752Y-103507882D01*
X112623724Y-103505198D01*
X112623722Y-103505197D01*
X112461319Y-103432891D01*
X112461318Y-103432891D01*
X112455288Y-103430206D01*
X112359300Y-103409803D01*
X112274944Y-103391872D01*
X112274939Y-103391872D01*
X112268487Y-103390500D01*
X112077513Y-103390500D01*
X112071061Y-103391872D01*
X112071056Y-103391872D01*
X111986700Y-103409803D01*
X111890712Y-103430206D01*
X111884682Y-103432891D01*
X111884681Y-103432891D01*
X111722278Y-103505197D01*
X111722276Y-103505198D01*
X111716248Y-103507882D01*
X111710907Y-103511762D01*
X111710906Y-103511763D01*
X111688708Y-103527891D01*
X111561747Y-103620134D01*
X111439611Y-103755780D01*
X111439136Y-103756308D01*
X111378690Y-103793547D01*
X111307706Y-103792195D01*
X111248722Y-103752681D01*
X111220464Y-103687551D01*
X111219500Y-103671997D01*
X111219500Y-103238066D01*
X111207727Y-103122161D01*
X111205026Y-103095566D01*
X111205025Y-103095562D01*
X111204381Y-103089220D01*
X111144631Y-102898560D01*
X111140150Y-102890475D01*
X111074520Y-102772077D01*
X111047765Y-102723809D01*
X110984372Y-102649847D01*
X110921891Y-102576948D01*
X110921890Y-102576947D01*
X110917739Y-102572104D01*
X110912700Y-102568195D01*
X110764907Y-102453555D01*
X110764904Y-102453553D01*
X110759863Y-102449643D01*
X110754137Y-102446825D01*
X110754133Y-102446823D01*
X110586318Y-102364248D01*
X110580589Y-102361429D01*
X110461797Y-102330486D01*
X110393420Y-102312675D01*
X110393417Y-102312675D01*
X110387238Y-102311065D01*
X110293744Y-102306165D01*
X110194089Y-102300942D01*
X110194085Y-102300942D01*
X110187708Y-102300608D01*
X109990152Y-102330486D01*
X109984165Y-102332689D01*
X109984164Y-102332689D01*
X109808629Y-102397273D01*
X109802639Y-102399477D01*
X109632828Y-102504765D01*
X109628195Y-102509146D01*
X109628194Y-102509147D01*
X109585756Y-102549279D01*
X109487656Y-102642047D01*
X109373054Y-102805716D01*
X109293702Y-102989086D01*
X109252844Y-103184666D01*
X109252500Y-103191229D01*
X109252500Y-103637934D01*
X109252823Y-103641113D01*
X109266311Y-103773901D01*
X109267619Y-103786780D01*
X109327369Y-103977440D01*
X109330463Y-103983022D01*
X109330464Y-103983024D01*
X109352315Y-104022444D01*
X109424235Y-104152191D01*
X109428391Y-104157040D01*
X109550065Y-104299000D01*
X109554261Y-104303896D01*
X109559298Y-104307803D01*
X109559300Y-104307805D01*
X109707093Y-104422445D01*
X109707096Y-104422447D01*
X109712137Y-104426357D01*
X109717863Y-104429175D01*
X109717867Y-104429177D01*
X109852056Y-104495206D01*
X109891411Y-104514571D01*
X109980539Y-104537787D01*
X110078580Y-104563325D01*
X110078583Y-104563325D01*
X110084762Y-104564935D01*
X110178256Y-104569835D01*
X110277911Y-104575058D01*
X110277915Y-104575058D01*
X110284292Y-104575392D01*
X110481848Y-104545514D01*
X110502850Y-104537787D01*
X110663371Y-104478727D01*
X110663372Y-104478727D01*
X110669361Y-104476523D01*
X110839172Y-104371235D01*
X110984344Y-104233953D01*
X111036687Y-104159200D01*
X111092142Y-104114872D01*
X111162762Y-104107563D01*
X111226122Y-104139593D01*
X111262108Y-104200794D01*
X111265209Y-104244641D01*
X111259496Y-104299000D01*
X111260186Y-104305565D01*
X111276183Y-104457765D01*
X111279458Y-104488928D01*
X111338473Y-104670556D01*
X111341776Y-104676278D01*
X111341777Y-104676279D01*
X111370119Y-104725368D01*
X111433960Y-104835944D01*
X111438378Y-104840851D01*
X111438379Y-104840852D01*
X111545283Y-104959581D01*
X111561747Y-104977866D01*
X111716248Y-105090118D01*
X111722276Y-105092802D01*
X111722278Y-105092803D01*
X111812055Y-105132774D01*
X111890712Y-105167794D01*
X111984112Y-105187647D01*
X112071056Y-105206128D01*
X112071061Y-105206128D01*
X112077513Y-105207500D01*
X112133406Y-105207500D01*
X112201527Y-105227502D01*
X112222501Y-105244405D01*
X113041641Y-106063545D01*
X113075667Y-106125857D01*
X113070602Y-106196672D01*
X113028055Y-106253508D01*
X112961535Y-106278319D01*
X112892161Y-106263228D01*
X112878485Y-106254576D01*
X112730094Y-106146763D01*
X112730093Y-106146762D01*
X112724752Y-106142882D01*
X112718724Y-106140198D01*
X112718722Y-106140197D01*
X112556319Y-106067891D01*
X112556318Y-106067891D01*
X112550288Y-106065206D01*
X112437721Y-106041279D01*
X112369944Y-106026872D01*
X112369939Y-106026872D01*
X112363487Y-106025500D01*
X112172513Y-106025500D01*
X112166061Y-106026872D01*
X112166056Y-106026872D01*
X112098279Y-106041279D01*
X111985712Y-106065206D01*
X111979682Y-106067891D01*
X111979681Y-106067891D01*
X111817278Y-106140197D01*
X111817276Y-106140198D01*
X111811248Y-106142882D01*
X111656747Y-106255134D01*
X111652326Y-106260044D01*
X111652325Y-106260045D01*
X111574257Y-106346749D01*
X111528960Y-106397056D01*
X111511507Y-106427285D01*
X111438665Y-106553452D01*
X111433473Y-106562444D01*
X111374458Y-106744072D01*
X111373768Y-106750633D01*
X111373768Y-106750635D01*
X111360963Y-106872467D01*
X111354496Y-106934000D01*
X111355186Y-106940565D01*
X111369824Y-107079834D01*
X111374458Y-107123928D01*
X111433473Y-107305556D01*
X111436776Y-107311278D01*
X111436777Y-107311279D01*
X111459864Y-107351267D01*
X111528960Y-107470944D01*
X111533378Y-107475851D01*
X111533379Y-107475852D01*
X111627136Y-107579980D01*
X111657854Y-107643987D01*
X111659500Y-107664290D01*
X111659500Y-108915761D01*
X111639498Y-108983882D01*
X111622595Y-109004856D01*
X109585766Y-111041685D01*
X109573375Y-111052552D01*
X109548013Y-111072013D01*
X109523526Y-111103925D01*
X109523523Y-111103928D01*
X109450476Y-111199124D01*
X109447316Y-111206754D01*
X109447314Y-111206757D01*
X109444046Y-111214648D01*
X109416599Y-111280912D01*
X109389162Y-111347150D01*
X109373500Y-111466115D01*
X109373500Y-111466120D01*
X109368250Y-111506000D01*
X109369328Y-111514188D01*
X109372422Y-111537690D01*
X109373500Y-111554136D01*
X109373500Y-112807710D01*
X109353498Y-112875831D01*
X109341136Y-112892020D01*
X109247379Y-112996148D01*
X109242960Y-113001056D01*
X109147473Y-113166444D01*
X109088458Y-113348072D01*
X109087768Y-113354633D01*
X109087768Y-113354635D01*
X109075920Y-113467365D01*
X109068496Y-113538000D01*
X106608500Y-113538000D01*
X106608500Y-110410215D01*
X106628502Y-110342094D01*
X106682158Y-110295601D01*
X106752432Y-110285497D01*
X106784539Y-110294577D01*
X106916204Y-110351554D01*
X106922452Y-110352859D01*
X106922451Y-110352859D01*
X107101073Y-110390176D01*
X107101077Y-110390176D01*
X107105818Y-110391167D01*
X107112172Y-110391500D01*
X107914408Y-110391500D01*
X107960161Y-110386853D01*
X108052368Y-110377487D01*
X108052370Y-110377487D01*
X108058716Y-110376842D01*
X108243561Y-110318915D01*
X108412982Y-110225003D01*
X108469281Y-110176749D01*
X108555207Y-110103102D01*
X108555209Y-110103100D01*
X108560059Y-110098943D01*
X108678784Y-109945884D01*
X108764307Y-109772077D01*
X108765914Y-109765907D01*
X108765916Y-109765902D01*
X108811525Y-109590806D01*
X108811525Y-109590803D01*
X108813135Y-109584624D01*
X108819375Y-109465562D01*
X108822939Y-109397563D01*
X108822939Y-109397559D01*
X108823273Y-109391182D01*
X108798082Y-109224613D01*
X108795262Y-109205965D01*
X108795262Y-109205964D01*
X108794307Y-109199651D01*
X108790135Y-109188310D01*
X108758314Y-109101827D01*
X108727419Y-109017858D01*
X108724061Y-109012442D01*
X108724059Y-109012438D01*
X108628707Y-108858650D01*
X108628704Y-108858646D01*
X108625344Y-108853227D01*
X108562508Y-108786780D01*
X108496638Y-108717124D01*
X108496637Y-108717123D01*
X108492249Y-108712483D01*
X108385782Y-108637934D01*
X109252500Y-108637934D01*
X109252823Y-108641113D01*
X109265894Y-108769794D01*
X109267619Y-108786780D01*
X109296363Y-108878502D01*
X109321727Y-108959435D01*
X109327369Y-108977440D01*
X109424235Y-109152191D01*
X109428391Y-109157040D01*
X109503379Y-109244530D01*
X109554261Y-109303896D01*
X109559298Y-109307803D01*
X109559300Y-109307805D01*
X109707093Y-109422445D01*
X109707096Y-109422447D01*
X109712137Y-109426357D01*
X109717863Y-109429175D01*
X109717867Y-109429177D01*
X109849605Y-109494000D01*
X109891411Y-109514571D01*
X109938651Y-109526876D01*
X110078580Y-109563325D01*
X110078583Y-109563325D01*
X110084762Y-109564935D01*
X110178256Y-109569835D01*
X110277911Y-109575058D01*
X110277915Y-109575058D01*
X110284292Y-109575392D01*
X110481848Y-109545514D01*
X110493582Y-109541197D01*
X110663371Y-109478727D01*
X110663372Y-109478727D01*
X110669361Y-109476523D01*
X110807001Y-109391182D01*
X110833750Y-109374597D01*
X110833751Y-109374596D01*
X110839172Y-109371235D01*
X110880819Y-109331852D01*
X110979710Y-109238335D01*
X110984344Y-109233953D01*
X111098946Y-109070284D01*
X111178298Y-108886914D01*
X111219156Y-108691334D01*
X111219500Y-108684771D01*
X111219500Y-108238066D01*
X111213082Y-108174882D01*
X111205026Y-108095566D01*
X111205025Y-108095562D01*
X111204381Y-108089220D01*
X111144631Y-107898560D01*
X111136256Y-107883450D01*
X111059716Y-107745370D01*
X111047765Y-107723809D01*
X111011368Y-107681344D01*
X110921891Y-107576948D01*
X110921890Y-107576947D01*
X110917739Y-107572104D01*
X110912700Y-107568195D01*
X110764907Y-107453555D01*
X110764904Y-107453553D01*
X110759863Y-107449643D01*
X110754137Y-107446825D01*
X110754133Y-107446823D01*
X110586318Y-107364248D01*
X110580589Y-107361429D01*
X110491094Y-107338117D01*
X110393420Y-107312675D01*
X110393417Y-107312675D01*
X110387238Y-107311065D01*
X110293744Y-107306165D01*
X110194089Y-107300942D01*
X110194085Y-107300942D01*
X110187708Y-107300608D01*
X109990152Y-107330486D01*
X109984165Y-107332689D01*
X109984164Y-107332689D01*
X109910424Y-107359820D01*
X109802639Y-107399477D01*
X109689416Y-107469679D01*
X109646389Y-107496357D01*
X109632828Y-107504765D01*
X109628195Y-107509146D01*
X109628194Y-107509147D01*
X109583405Y-107551502D01*
X109487656Y-107642047D01*
X109373054Y-107805716D01*
X109293702Y-107989086D01*
X109252844Y-108184666D01*
X109252500Y-108191229D01*
X109252500Y-108637934D01*
X108385782Y-108637934D01*
X108333573Y-108601377D01*
X108155796Y-108524446D01*
X108109700Y-108514816D01*
X107970927Y-108485824D01*
X107970923Y-108485824D01*
X107966182Y-108484833D01*
X107959828Y-108484500D01*
X107157592Y-108484500D01*
X107133531Y-108486944D01*
X107019632Y-108498513D01*
X107019630Y-108498513D01*
X107013284Y-108499158D01*
X106828439Y-108557085D01*
X106795585Y-108575297D01*
X106726310Y-108590828D01*
X106659633Y-108566440D01*
X106616726Y-108509876D01*
X106608500Y-108465094D01*
X106608500Y-103410215D01*
X106628502Y-103342094D01*
X106682158Y-103295601D01*
X106752432Y-103285497D01*
X106784539Y-103294577D01*
X106916204Y-103351554D01*
X106928726Y-103354170D01*
X107101073Y-103390176D01*
X107101077Y-103390176D01*
X107105818Y-103391167D01*
X107112172Y-103391500D01*
X107914408Y-103391500D01*
X107960161Y-103386853D01*
X108052368Y-103377487D01*
X108052370Y-103377487D01*
X108058716Y-103376842D01*
X108243561Y-103318915D01*
X108412982Y-103225003D01*
X108450444Y-103192894D01*
X108555207Y-103103102D01*
X108555209Y-103103100D01*
X108560059Y-103098943D01*
X108636248Y-103000721D01*
X108674868Y-102950933D01*
X108674870Y-102950930D01*
X108678784Y-102945884D01*
X108764307Y-102772077D01*
X108765914Y-102765907D01*
X108765916Y-102765902D01*
X108811525Y-102590806D01*
X108811525Y-102590803D01*
X108813135Y-102584624D01*
X108818342Y-102485279D01*
X108822939Y-102397563D01*
X108822939Y-102397559D01*
X108823273Y-102391182D01*
X108794307Y-102199651D01*
X108784133Y-102172000D01*
X113640496Y-102172000D01*
X113641186Y-102178565D01*
X113654114Y-102301564D01*
X113660458Y-102361928D01*
X113719473Y-102543556D01*
X113814960Y-102708944D01*
X113888137Y-102790215D01*
X113918853Y-102854221D01*
X113920500Y-102874524D01*
X113920500Y-103109233D01*
X113919973Y-103120416D01*
X113918298Y-103127909D01*
X113918547Y-103135835D01*
X113918547Y-103135836D01*
X113920438Y-103195986D01*
X113920500Y-103199945D01*
X113920500Y-103227856D01*
X113920997Y-103231790D01*
X113920997Y-103231791D01*
X113921005Y-103231856D01*
X113921938Y-103243693D01*
X113923327Y-103287889D01*
X113928978Y-103307339D01*
X113932987Y-103326700D01*
X113935526Y-103346797D01*
X113938445Y-103354168D01*
X113938445Y-103354170D01*
X113951804Y-103387912D01*
X113955649Y-103399142D01*
X113967982Y-103441593D01*
X113972015Y-103448412D01*
X113972017Y-103448417D01*
X113978293Y-103459028D01*
X113986988Y-103476776D01*
X113994448Y-103495617D01*
X113999110Y-103502033D01*
X113999110Y-103502034D01*
X114020436Y-103531387D01*
X114026952Y-103541307D01*
X114042696Y-103567928D01*
X114049458Y-103579362D01*
X114063779Y-103593683D01*
X114076619Y-103608716D01*
X114088528Y-103625107D01*
X114100170Y-103634738D01*
X114122605Y-103653298D01*
X114131384Y-103661288D01*
X115915595Y-105445500D01*
X115949621Y-105507812D01*
X115952500Y-105534595D01*
X115952500Y-108791476D01*
X115932498Y-108859597D01*
X115920142Y-108875779D01*
X115846960Y-108957056D01*
X115831472Y-108983882D01*
X115765805Y-109097621D01*
X115751473Y-109122444D01*
X115692458Y-109304072D01*
X115691768Y-109310633D01*
X115691768Y-109310635D01*
X115683302Y-109391182D01*
X115672496Y-109494000D01*
X115673186Y-109500565D01*
X115691357Y-109673448D01*
X115692458Y-109683928D01*
X115751473Y-109865556D01*
X115846960Y-110030944D01*
X115851378Y-110035851D01*
X115851379Y-110035852D01*
X115911931Y-110103102D01*
X115974747Y-110172866D01*
X116129248Y-110285118D01*
X116135276Y-110287802D01*
X116135278Y-110287803D01*
X116297681Y-110360109D01*
X116303712Y-110362794D01*
X116372837Y-110377487D01*
X116484056Y-110401128D01*
X116484061Y-110401128D01*
X116490513Y-110402500D01*
X116681487Y-110402500D01*
X116687939Y-110401128D01*
X116687944Y-110401128D01*
X116799163Y-110377487D01*
X116868288Y-110362794D01*
X116874319Y-110360109D01*
X117036722Y-110287803D01*
X117036724Y-110287802D01*
X117042752Y-110285118D01*
X117197253Y-110172866D01*
X117260069Y-110103102D01*
X117320621Y-110035852D01*
X117320622Y-110035851D01*
X117325040Y-110030944D01*
X117420527Y-109865556D01*
X117479542Y-109683928D01*
X117480644Y-109673448D01*
X117498814Y-109500565D01*
X117499504Y-109494000D01*
X117488698Y-109391182D01*
X117480232Y-109310635D01*
X117480232Y-109310633D01*
X117479542Y-109304072D01*
X117420527Y-109122444D01*
X117406196Y-109097621D01*
X117340528Y-108983882D01*
X117325040Y-108957056D01*
X117251863Y-108875785D01*
X117221147Y-108811779D01*
X117219500Y-108791476D01*
X117219500Y-107950000D01*
X137516496Y-107950000D01*
X137517186Y-107956565D01*
X137535192Y-108127879D01*
X137536458Y-108139928D01*
X137595473Y-108321556D01*
X137690960Y-108486944D01*
X137695378Y-108491851D01*
X137695379Y-108491852D01*
X137752394Y-108555174D01*
X137818747Y-108628866D01*
X137973248Y-108741118D01*
X137979276Y-108743802D01*
X137979278Y-108743803D01*
X138131956Y-108811779D01*
X138147712Y-108818794D01*
X138241113Y-108838647D01*
X138328056Y-108857128D01*
X138328061Y-108857128D01*
X138334513Y-108858500D01*
X138407746Y-108858500D01*
X138475867Y-108878502D01*
X138522360Y-108932158D01*
X138533056Y-108971329D01*
X138550834Y-109140472D01*
X138552458Y-109155928D01*
X138611473Y-109337556D01*
X138706960Y-109502944D01*
X138780137Y-109584215D01*
X138810853Y-109648221D01*
X138812500Y-109668524D01*
X138812500Y-117407476D01*
X138792498Y-117475597D01*
X138780142Y-117491779D01*
X138706960Y-117573056D01*
X138611473Y-117738444D01*
X138552458Y-117920072D01*
X138532496Y-118110000D01*
X138552458Y-118299928D01*
X138611473Y-118481556D01*
X138706960Y-118646944D01*
X138834747Y-118788866D01*
X138989248Y-118901118D01*
X138995276Y-118903802D01*
X138995278Y-118903803D01*
X139137833Y-118967272D01*
X139163712Y-118978794D01*
X139253076Y-118997789D01*
X139344056Y-119017128D01*
X139344061Y-119017128D01*
X139350513Y-119018500D01*
X139541487Y-119018500D01*
X139547939Y-119017128D01*
X139547944Y-119017128D01*
X139638924Y-118997789D01*
X139728288Y-118978794D01*
X139754167Y-118967272D01*
X139896722Y-118903803D01*
X139896724Y-118903802D01*
X139902752Y-118901118D01*
X140057253Y-118788866D01*
X140185040Y-118646944D01*
X140280527Y-118481556D01*
X140339542Y-118299928D01*
X140359504Y-118110000D01*
X140339542Y-117920072D01*
X140280527Y-117738444D01*
X140185040Y-117573056D01*
X140111863Y-117491785D01*
X140081147Y-117427779D01*
X140079500Y-117407476D01*
X140079500Y-109774290D01*
X140099502Y-109706169D01*
X140153158Y-109659676D01*
X140223432Y-109649572D01*
X140288012Y-109679066D01*
X140294595Y-109685195D01*
X145379595Y-114770195D01*
X145413621Y-114832507D01*
X145416500Y-114859290D01*
X145416500Y-117407476D01*
X145396498Y-117475597D01*
X145384142Y-117491779D01*
X145310960Y-117573056D01*
X145215473Y-117738444D01*
X145156458Y-117920072D01*
X145136496Y-118110000D01*
X145156458Y-118299928D01*
X145215473Y-118481556D01*
X145310960Y-118646944D01*
X145438747Y-118788866D01*
X145593248Y-118901118D01*
X145599276Y-118903802D01*
X145599278Y-118903803D01*
X145741833Y-118967272D01*
X145767712Y-118978794D01*
X145857076Y-118997789D01*
X145948056Y-119017128D01*
X145948061Y-119017128D01*
X145954513Y-119018500D01*
X146145487Y-119018500D01*
X146151939Y-119017128D01*
X146151944Y-119017128D01*
X146242924Y-118997789D01*
X146332288Y-118978794D01*
X146358167Y-118967272D01*
X146500722Y-118903803D01*
X146500724Y-118903802D01*
X146506752Y-118901118D01*
X146661253Y-118788866D01*
X146789040Y-118646944D01*
X146884527Y-118481556D01*
X146943542Y-118299928D01*
X146963504Y-118110000D01*
X146943542Y-117920072D01*
X146884527Y-117738444D01*
X146789040Y-117573056D01*
X146715863Y-117491785D01*
X146685147Y-117427779D01*
X146683500Y-117407476D01*
X146683500Y-114623462D01*
X146684027Y-114612279D01*
X146685702Y-114604786D01*
X146683562Y-114536709D01*
X146683500Y-114532750D01*
X146683500Y-114504839D01*
X146682995Y-114500839D01*
X146682062Y-114488996D01*
X146680922Y-114452724D01*
X146680673Y-114444805D01*
X146675022Y-114425353D01*
X146671014Y-114406001D01*
X146669467Y-114393758D01*
X146668474Y-114385898D01*
X146665556Y-114378527D01*
X146652200Y-114344792D01*
X146648355Y-114333565D01*
X146645935Y-114325237D01*
X146636018Y-114291102D01*
X146625707Y-114273667D01*
X146617012Y-114255919D01*
X146609552Y-114237078D01*
X146597689Y-114220749D01*
X146583564Y-114201308D01*
X146577048Y-114191388D01*
X146558580Y-114160160D01*
X146558578Y-114160157D01*
X146554542Y-114153333D01*
X146540221Y-114139012D01*
X146527380Y-114123978D01*
X146520131Y-114114001D01*
X146515472Y-114107588D01*
X146481395Y-114079397D01*
X146472616Y-114071407D01*
X139958957Y-107557747D01*
X139951417Y-107549461D01*
X139947305Y-107542982D01*
X139897653Y-107496356D01*
X139894812Y-107493602D01*
X139875075Y-107473865D01*
X139871878Y-107471385D01*
X139862856Y-107463680D01*
X139836405Y-107438841D01*
X139830626Y-107433414D01*
X139823680Y-107429595D01*
X139823677Y-107429593D01*
X139812871Y-107423652D01*
X139796352Y-107412801D01*
X139790353Y-107408148D01*
X139780346Y-107400386D01*
X139773077Y-107397241D01*
X139773073Y-107397238D01*
X139739768Y-107382826D01*
X139729118Y-107377609D01*
X139690365Y-107356305D01*
X139670742Y-107351267D01*
X139652039Y-107344863D01*
X139640725Y-107339967D01*
X139640724Y-107339967D01*
X139633450Y-107336819D01*
X139625627Y-107335580D01*
X139625617Y-107335577D01*
X139589781Y-107329901D01*
X139578161Y-107327495D01*
X139543016Y-107318472D01*
X139543015Y-107318472D01*
X139535335Y-107316500D01*
X139515081Y-107316500D01*
X139495370Y-107314949D01*
X139483191Y-107313020D01*
X139475362Y-107311780D01*
X139467470Y-107312526D01*
X139431344Y-107315941D01*
X139419486Y-107316500D01*
X139138200Y-107316500D01*
X139070079Y-107296498D01*
X139050853Y-107280157D01*
X139050580Y-107280460D01*
X139045668Y-107276037D01*
X139041253Y-107271134D01*
X138886752Y-107158882D01*
X138880724Y-107156198D01*
X138880722Y-107156197D01*
X138718319Y-107083891D01*
X138718318Y-107083891D01*
X138712288Y-107081206D01*
X138618887Y-107061353D01*
X138531944Y-107042872D01*
X138531939Y-107042872D01*
X138525487Y-107041500D01*
X138334513Y-107041500D01*
X138328061Y-107042872D01*
X138328056Y-107042872D01*
X138241113Y-107061353D01*
X138147712Y-107081206D01*
X138141682Y-107083891D01*
X138141681Y-107083891D01*
X137979278Y-107156197D01*
X137979276Y-107156198D01*
X137973248Y-107158882D01*
X137818747Y-107271134D01*
X137814326Y-107276044D01*
X137814325Y-107276045D01*
X137700159Y-107402840D01*
X137690960Y-107413056D01*
X137595473Y-107578444D01*
X137536458Y-107760072D01*
X137516496Y-107950000D01*
X117219500Y-107950000D01*
X117219500Y-105664000D01*
X117704496Y-105664000D01*
X117705186Y-105670565D01*
X117721537Y-105826133D01*
X117724458Y-105853928D01*
X117783473Y-106035556D01*
X117878960Y-106200944D01*
X117883378Y-106205851D01*
X117883379Y-106205852D01*
X117983909Y-106317502D01*
X118006747Y-106342866D01*
X118161248Y-106455118D01*
X118167276Y-106457802D01*
X118167278Y-106457803D01*
X118289735Y-106512324D01*
X118335712Y-106532794D01*
X118429113Y-106552647D01*
X118516056Y-106571128D01*
X118516061Y-106571128D01*
X118522513Y-106572500D01*
X118713487Y-106572500D01*
X118719939Y-106571128D01*
X118719944Y-106571128D01*
X118806888Y-106552647D01*
X118900288Y-106532794D01*
X118946265Y-106512324D01*
X119068722Y-106457803D01*
X119068724Y-106457802D01*
X119074752Y-106455118D01*
X119130350Y-106414724D01*
X119207671Y-106358546D01*
X119229253Y-106342866D01*
X119233668Y-106337963D01*
X119238580Y-106333540D01*
X119239705Y-106334789D01*
X119293014Y-106301949D01*
X119326200Y-106297500D01*
X131747233Y-106297500D01*
X131758416Y-106298027D01*
X131765909Y-106299702D01*
X131773835Y-106299453D01*
X131773836Y-106299453D01*
X131833986Y-106297562D01*
X131837945Y-106297500D01*
X131865856Y-106297500D01*
X131869791Y-106297003D01*
X131869856Y-106296995D01*
X131881693Y-106296062D01*
X131913951Y-106295048D01*
X131917970Y-106294922D01*
X131925889Y-106294673D01*
X131945343Y-106289021D01*
X131964700Y-106285013D01*
X131976930Y-106283468D01*
X131976931Y-106283468D01*
X131984797Y-106282474D01*
X131992168Y-106279555D01*
X131992170Y-106279555D01*
X132025912Y-106266196D01*
X132037142Y-106262351D01*
X132071983Y-106252229D01*
X132071984Y-106252229D01*
X132079593Y-106250018D01*
X132086412Y-106245985D01*
X132086417Y-106245983D01*
X132097028Y-106239707D01*
X132114776Y-106231012D01*
X132133617Y-106223552D01*
X132169387Y-106197564D01*
X132179307Y-106191048D01*
X132210535Y-106172580D01*
X132210538Y-106172578D01*
X132217362Y-106168542D01*
X132231683Y-106154221D01*
X132246717Y-106141380D01*
X132256694Y-106134131D01*
X132263107Y-106129472D01*
X132291298Y-106095395D01*
X132299288Y-106086616D01*
X133742247Y-104643657D01*
X133750537Y-104636113D01*
X133757018Y-104632000D01*
X133803659Y-104582332D01*
X133806413Y-104579491D01*
X133826134Y-104559770D01*
X133828612Y-104556575D01*
X133836318Y-104547553D01*
X133838775Y-104544937D01*
X133866586Y-104515321D01*
X133876346Y-104497568D01*
X133887199Y-104481045D01*
X133888997Y-104478727D01*
X133899613Y-104465041D01*
X133917176Y-104424457D01*
X133922383Y-104413827D01*
X133943695Y-104375060D01*
X133945666Y-104367383D01*
X133945668Y-104367378D01*
X133948732Y-104355442D01*
X133955138Y-104336730D01*
X133960034Y-104325417D01*
X133963181Y-104318145D01*
X133965174Y-104305565D01*
X133970097Y-104274481D01*
X133972504Y-104262860D01*
X133981528Y-104227711D01*
X133981528Y-104227710D01*
X133983500Y-104220030D01*
X133983500Y-104199769D01*
X133985051Y-104180058D01*
X133986979Y-104167885D01*
X133988219Y-104160057D01*
X133984059Y-104116046D01*
X133983500Y-104104189D01*
X133983500Y-102810524D01*
X134003502Y-102742403D01*
X134015858Y-102726221D01*
X134089040Y-102644944D01*
X134184527Y-102479556D01*
X134243542Y-102297928D01*
X134263504Y-102108000D01*
X134254659Y-102023844D01*
X134244232Y-101924635D01*
X134244232Y-101924633D01*
X134243542Y-101918072D01*
X134184527Y-101736444D01*
X134179075Y-101727000D01*
X134092341Y-101576774D01*
X134089040Y-101571056D01*
X134076461Y-101557085D01*
X133965675Y-101434045D01*
X133965674Y-101434044D01*
X133961253Y-101429134D01*
X133806752Y-101316882D01*
X133800724Y-101314198D01*
X133800722Y-101314197D01*
X133638319Y-101241891D01*
X133638318Y-101241891D01*
X133632288Y-101239206D01*
X133538888Y-101219353D01*
X133451944Y-101200872D01*
X133451939Y-101200872D01*
X133445487Y-101199500D01*
X133254513Y-101199500D01*
X133248061Y-101200872D01*
X133248056Y-101200872D01*
X133161113Y-101219353D01*
X133067712Y-101239206D01*
X133061682Y-101241891D01*
X133061681Y-101241891D01*
X132899278Y-101314197D01*
X132899276Y-101314198D01*
X132893248Y-101316882D01*
X132738747Y-101429134D01*
X132734326Y-101434044D01*
X132734325Y-101434045D01*
X132623540Y-101557085D01*
X132610960Y-101571056D01*
X132607659Y-101576774D01*
X132520926Y-101727000D01*
X132515473Y-101736444D01*
X132456458Y-101918072D01*
X132455768Y-101924633D01*
X132455768Y-101924635D01*
X132445341Y-102023844D01*
X132436496Y-102108000D01*
X132456458Y-102297928D01*
X132458498Y-102304205D01*
X132458498Y-102304207D01*
X132458615Y-102304567D01*
X132458621Y-102304787D01*
X132459871Y-102310666D01*
X132458796Y-102310895D01*
X132460641Y-102375534D01*
X132423977Y-102436331D01*
X132360264Y-102467655D01*
X132338781Y-102469500D01*
X132238513Y-102469500D01*
X132232061Y-102470872D01*
X132232056Y-102470872D01*
X132164279Y-102485279D01*
X132051712Y-102509206D01*
X132045682Y-102511891D01*
X132045681Y-102511891D01*
X131883278Y-102584197D01*
X131883276Y-102584198D01*
X131877248Y-102586882D01*
X131871907Y-102590762D01*
X131871906Y-102590763D01*
X131837171Y-102616000D01*
X131722747Y-102699134D01*
X131718326Y-102704044D01*
X131718325Y-102704045D01*
X131618957Y-102814405D01*
X131594960Y-102841056D01*
X131499473Y-103006444D01*
X131440458Y-103188072D01*
X131439768Y-103194633D01*
X131439768Y-103194635D01*
X131434611Y-103243699D01*
X131423139Y-103352859D01*
X131423093Y-103353292D01*
X131396080Y-103418949D01*
X131386878Y-103429218D01*
X131092499Y-103723596D01*
X131030187Y-103757621D01*
X131003404Y-103760500D01*
X119326200Y-103760500D01*
X119258079Y-103740498D01*
X119238853Y-103724157D01*
X119238580Y-103724460D01*
X119233668Y-103720037D01*
X119229253Y-103715134D01*
X119149345Y-103657077D01*
X119080094Y-103606763D01*
X119080093Y-103606762D01*
X119074752Y-103602882D01*
X119068724Y-103600198D01*
X119068722Y-103600197D01*
X118906319Y-103527891D01*
X118906318Y-103527891D01*
X118900288Y-103525206D01*
X118791273Y-103502034D01*
X118719944Y-103486872D01*
X118719939Y-103486872D01*
X118713487Y-103485500D01*
X118522513Y-103485500D01*
X118516061Y-103486872D01*
X118516056Y-103486872D01*
X118444727Y-103502034D01*
X118335712Y-103525206D01*
X118329682Y-103527891D01*
X118329681Y-103527891D01*
X118167278Y-103600197D01*
X118167276Y-103600198D01*
X118161248Y-103602882D01*
X118155907Y-103606762D01*
X118155906Y-103606763D01*
X118153217Y-103608717D01*
X118006747Y-103715134D01*
X118002326Y-103720044D01*
X118002325Y-103720045D01*
X117893203Y-103841238D01*
X117878960Y-103857056D01*
X117783473Y-104022444D01*
X117724458Y-104204072D01*
X117704496Y-104394000D01*
X117705186Y-104400565D01*
X117722293Y-104563325D01*
X117724458Y-104583928D01*
X117783473Y-104765556D01*
X117786776Y-104771278D01*
X117786777Y-104771279D01*
X117794378Y-104784444D01*
X117878960Y-104930944D01*
X117891338Y-104944691D01*
X117922054Y-105008697D01*
X117913290Y-105079150D01*
X117891339Y-105113307D01*
X117878960Y-105127056D01*
X117783473Y-105292444D01*
X117724458Y-105474072D01*
X117723768Y-105480633D01*
X117723768Y-105480635D01*
X117715634Y-105558029D01*
X117704496Y-105664000D01*
X117219500Y-105664000D01*
X117219500Y-105298767D01*
X117220027Y-105287584D01*
X117221702Y-105280091D01*
X117219562Y-105212000D01*
X117219500Y-105208043D01*
X117219500Y-105180144D01*
X117218996Y-105176153D01*
X117218063Y-105164311D01*
X117216923Y-105128036D01*
X117216674Y-105120111D01*
X117214462Y-105112497D01*
X117214461Y-105112492D01*
X117211023Y-105100659D01*
X117207012Y-105081295D01*
X117205467Y-105069064D01*
X117204474Y-105061203D01*
X117201557Y-105053836D01*
X117201556Y-105053831D01*
X117188198Y-105020092D01*
X117184354Y-105008865D01*
X117180038Y-104994010D01*
X117172018Y-104966407D01*
X117167697Y-104959100D01*
X117161707Y-104948972D01*
X117153012Y-104931224D01*
X117145552Y-104912383D01*
X117119564Y-104876613D01*
X117113048Y-104866693D01*
X117094580Y-104835465D01*
X117094578Y-104835462D01*
X117090542Y-104828638D01*
X117076221Y-104814317D01*
X117063380Y-104799283D01*
X117056131Y-104789306D01*
X117051472Y-104782893D01*
X117017395Y-104754702D01*
X117008616Y-104746712D01*
X115224935Y-102963030D01*
X115190909Y-102900718D01*
X115195974Y-102829902D01*
X115220391Y-102789629D01*
X115293040Y-102708944D01*
X115388527Y-102543556D01*
X115447542Y-102361928D01*
X115453887Y-102301564D01*
X115466814Y-102178565D01*
X115467504Y-102172000D01*
X115453579Y-102039507D01*
X115448232Y-101988635D01*
X115448232Y-101988633D01*
X115447542Y-101982072D01*
X115388527Y-101800444D01*
X115293040Y-101635056D01*
X115193447Y-101524446D01*
X115169675Y-101498045D01*
X115169674Y-101498044D01*
X115165253Y-101493134D01*
X115046143Y-101406595D01*
X115016094Y-101384763D01*
X115016093Y-101384762D01*
X115010752Y-101380882D01*
X115004724Y-101378198D01*
X115004722Y-101378197D01*
X114842319Y-101305891D01*
X114842318Y-101305891D01*
X114836288Y-101303206D01*
X114742888Y-101283353D01*
X114655944Y-101264872D01*
X114655939Y-101264872D01*
X114649487Y-101263500D01*
X114458513Y-101263500D01*
X114452061Y-101264872D01*
X114452056Y-101264872D01*
X114365112Y-101283353D01*
X114271712Y-101303206D01*
X114265682Y-101305891D01*
X114265681Y-101305891D01*
X114103278Y-101378197D01*
X114103276Y-101378198D01*
X114097248Y-101380882D01*
X114091907Y-101384762D01*
X114091906Y-101384763D01*
X114061857Y-101406595D01*
X113942747Y-101493134D01*
X113938326Y-101498044D01*
X113938325Y-101498045D01*
X113914554Y-101524446D01*
X113814960Y-101635056D01*
X113719473Y-101800444D01*
X113660458Y-101982072D01*
X113659768Y-101988633D01*
X113659768Y-101988635D01*
X113654421Y-102039507D01*
X113640496Y-102172000D01*
X108784133Y-102172000D01*
X108727419Y-102017858D01*
X108724061Y-102012442D01*
X108724059Y-102012438D01*
X108628707Y-101858650D01*
X108628704Y-101858646D01*
X108625344Y-101853227D01*
X108589609Y-101815438D01*
X108496638Y-101717124D01*
X108496637Y-101717123D01*
X108492249Y-101712483D01*
X108333573Y-101601377D01*
X108155796Y-101524446D01*
X108109700Y-101514816D01*
X107970927Y-101485824D01*
X107970923Y-101485824D01*
X107966182Y-101484833D01*
X107959828Y-101484500D01*
X107157592Y-101484500D01*
X107111839Y-101489147D01*
X107019632Y-101498513D01*
X107019630Y-101498513D01*
X107013284Y-101499158D01*
X106828439Y-101557085D01*
X106795585Y-101575297D01*
X106726310Y-101590828D01*
X106659633Y-101566440D01*
X106616726Y-101509876D01*
X106608500Y-101465094D01*
X106608500Y-98044000D01*
X111862496Y-98044000D01*
X111863186Y-98050565D01*
X111880214Y-98212574D01*
X111882458Y-98233928D01*
X111941473Y-98415556D01*
X112036960Y-98580944D01*
X112110137Y-98662215D01*
X112140853Y-98726221D01*
X112142500Y-98746524D01*
X112142500Y-99489233D01*
X112141973Y-99500416D01*
X112140298Y-99507909D01*
X112140547Y-99515835D01*
X112140547Y-99515836D01*
X112142438Y-99575986D01*
X112142500Y-99579945D01*
X112142500Y-99607856D01*
X112142997Y-99611790D01*
X112142997Y-99611791D01*
X112143005Y-99611856D01*
X112143938Y-99623693D01*
X112145327Y-99667889D01*
X112147732Y-99676166D01*
X112150978Y-99687339D01*
X112154987Y-99706700D01*
X112157526Y-99726797D01*
X112160445Y-99734168D01*
X112160445Y-99734170D01*
X112173804Y-99767912D01*
X112177649Y-99779142D01*
X112189982Y-99821593D01*
X112194015Y-99828412D01*
X112194017Y-99828417D01*
X112200293Y-99839028D01*
X112208988Y-99856776D01*
X112216448Y-99875617D01*
X112221110Y-99882033D01*
X112221110Y-99882034D01*
X112242436Y-99911387D01*
X112248952Y-99921307D01*
X112264443Y-99947500D01*
X112271458Y-99959362D01*
X112285779Y-99973683D01*
X112298619Y-99988716D01*
X112310528Y-100005107D01*
X112316632Y-100010156D01*
X112316636Y-100010161D01*
X112328425Y-100019913D01*
X112368164Y-100078747D01*
X112373421Y-100103829D01*
X112387202Y-100234945D01*
X112390458Y-100265928D01*
X112449473Y-100447556D01*
X112544960Y-100612944D01*
X112549378Y-100617851D01*
X112549379Y-100617852D01*
X112668325Y-100749955D01*
X112672747Y-100754866D01*
X112827248Y-100867118D01*
X112833276Y-100869802D01*
X112833278Y-100869803D01*
X112995681Y-100942109D01*
X113001712Y-100944794D01*
X113089194Y-100963389D01*
X113182056Y-100983128D01*
X113182061Y-100983128D01*
X113188513Y-100984500D01*
X113379487Y-100984500D01*
X113385939Y-100983128D01*
X113385944Y-100983128D01*
X113478806Y-100963389D01*
X113566288Y-100944794D01*
X113572319Y-100942109D01*
X113734722Y-100869803D01*
X113734724Y-100869802D01*
X113740752Y-100867118D01*
X113895253Y-100754866D01*
X113899675Y-100749955D01*
X114018621Y-100617852D01*
X114018622Y-100617851D01*
X114023040Y-100612944D01*
X114118527Y-100447556D01*
X114177542Y-100265928D01*
X114180799Y-100234945D01*
X114196814Y-100082565D01*
X114197504Y-100076000D01*
X114185245Y-99959362D01*
X114178232Y-99892635D01*
X114178232Y-99892633D01*
X114177542Y-99886072D01*
X114118527Y-99704444D01*
X114108652Y-99687339D01*
X114045250Y-99577525D01*
X114023040Y-99539056D01*
X114012477Y-99527324D01*
X113899675Y-99402045D01*
X113899674Y-99402044D01*
X113895253Y-99397134D01*
X113740752Y-99284882D01*
X113734724Y-99282198D01*
X113734722Y-99282197D01*
X113634122Y-99237407D01*
X113566288Y-99207206D01*
X113509302Y-99195093D01*
X113446829Y-99161365D01*
X113412508Y-99099215D01*
X113409500Y-99071847D01*
X113409500Y-98746524D01*
X113429502Y-98678403D01*
X113441858Y-98662221D01*
X113515040Y-98580944D01*
X113610527Y-98415556D01*
X113669542Y-98233928D01*
X113671787Y-98212574D01*
X113688814Y-98050565D01*
X113689504Y-98044000D01*
X113681531Y-97968145D01*
X113670232Y-97860635D01*
X113670232Y-97860633D01*
X113669542Y-97854072D01*
X113610527Y-97672444D01*
X113606228Y-97664997D01*
X113518341Y-97512774D01*
X113515040Y-97507056D01*
X113493403Y-97483025D01*
X113391675Y-97370045D01*
X113391674Y-97370044D01*
X113387253Y-97365134D01*
X113272829Y-97282000D01*
X113238094Y-97256763D01*
X113238093Y-97256762D01*
X113232752Y-97252882D01*
X113226724Y-97250198D01*
X113226722Y-97250197D01*
X113064319Y-97177891D01*
X113064318Y-97177891D01*
X113058288Y-97175206D01*
X112964888Y-97155353D01*
X112877944Y-97136872D01*
X112877939Y-97136872D01*
X112871487Y-97135500D01*
X112680513Y-97135500D01*
X112674061Y-97136872D01*
X112674056Y-97136872D01*
X112587113Y-97155353D01*
X112493712Y-97175206D01*
X112487682Y-97177891D01*
X112487681Y-97177891D01*
X112325278Y-97250197D01*
X112325276Y-97250198D01*
X112319248Y-97252882D01*
X112313907Y-97256762D01*
X112313906Y-97256763D01*
X112279171Y-97282000D01*
X112164747Y-97365134D01*
X112160326Y-97370044D01*
X112160325Y-97370045D01*
X112058598Y-97483025D01*
X112036960Y-97507056D01*
X112033659Y-97512774D01*
X111945773Y-97664997D01*
X111941473Y-97672444D01*
X111882458Y-97854072D01*
X111881768Y-97860633D01*
X111881768Y-97860635D01*
X111870469Y-97968145D01*
X111862496Y-98044000D01*
X106608500Y-98044000D01*
X106608500Y-92526832D01*
X113732000Y-92526832D01*
X113732285Y-92532808D01*
X113746471Y-92681494D01*
X113748730Y-92693228D01*
X113804872Y-92884599D01*
X113809302Y-92895675D01*
X113900619Y-93072978D01*
X113907069Y-93083024D01*
X114030262Y-93239857D01*
X114038499Y-93248506D01*
X114189123Y-93379212D01*
X114198847Y-93386147D01*
X114371467Y-93486010D01*
X114382331Y-93490984D01*
X114570727Y-93556407D01*
X114571716Y-93556648D01*
X114582008Y-93555180D01*
X114586000Y-93541615D01*
X114586000Y-93537402D01*
X115094000Y-93537402D01*
X115097973Y-93550933D01*
X115107399Y-93552288D01*
X115196537Y-93530806D01*
X115207832Y-93526917D01*
X115389382Y-93444371D01*
X115399724Y-93438424D01*
X115562397Y-93323032D01*
X115571425Y-93315239D01*
X115658535Y-93224243D01*
X115720090Y-93188867D01*
X115791000Y-93192386D01*
X115848750Y-93233683D01*
X115856685Y-93245053D01*
X115891522Y-93301348D01*
X116016697Y-93426305D01*
X116022927Y-93430145D01*
X116022928Y-93430146D01*
X116160090Y-93514694D01*
X116167262Y-93519115D01*
X116222396Y-93537402D01*
X116328611Y-93572632D01*
X116328613Y-93572632D01*
X116335139Y-93574797D01*
X116341975Y-93575497D01*
X116341978Y-93575498D01*
X116385031Y-93579909D01*
X116439600Y-93585500D01*
X117240400Y-93585500D01*
X117243646Y-93585163D01*
X117243650Y-93585163D01*
X117339308Y-93575238D01*
X117339312Y-93575237D01*
X117346166Y-93574526D01*
X117352702Y-93572345D01*
X117352704Y-93572345D01*
X117501744Y-93522621D01*
X117513946Y-93518550D01*
X117664348Y-93425478D01*
X117789305Y-93300303D01*
X117830221Y-93233925D01*
X117878275Y-93155968D01*
X117878276Y-93155966D01*
X117882115Y-93149738D01*
X117908564Y-93069995D01*
X117935632Y-92988389D01*
X117935632Y-92988387D01*
X117937797Y-92981861D01*
X117938716Y-92972897D01*
X117942909Y-92931969D01*
X117948500Y-92877400D01*
X117948500Y-91526600D01*
X117937526Y-91420834D01*
X117881550Y-91253054D01*
X117788478Y-91102652D01*
X117663303Y-90977695D01*
X117657072Y-90973854D01*
X117518968Y-90888725D01*
X117518966Y-90888724D01*
X117512738Y-90884885D01*
X117404005Y-90848820D01*
X117351389Y-90831368D01*
X117351387Y-90831368D01*
X117344861Y-90829203D01*
X117338025Y-90828503D01*
X117338022Y-90828502D01*
X117294969Y-90824091D01*
X117240400Y-90818500D01*
X116439600Y-90818500D01*
X116436354Y-90818837D01*
X116436350Y-90818837D01*
X116340692Y-90828762D01*
X116340688Y-90828763D01*
X116333834Y-90829474D01*
X116327298Y-90831655D01*
X116327296Y-90831655D01*
X116263117Y-90853067D01*
X116166054Y-90885450D01*
X116015652Y-90978522D01*
X115890695Y-91103697D01*
X115886853Y-91109929D01*
X115886852Y-91109931D01*
X115858645Y-91155690D01*
X115805873Y-91203183D01*
X115735801Y-91214605D01*
X115670677Y-91186331D01*
X115652298Y-91167403D01*
X115649738Y-91164144D01*
X115641501Y-91155494D01*
X115490877Y-91024788D01*
X115481153Y-91017853D01*
X115308533Y-90917990D01*
X115297669Y-90913016D01*
X115109273Y-90847593D01*
X115108284Y-90847352D01*
X115097992Y-90848820D01*
X115094000Y-90862385D01*
X115094000Y-93537402D01*
X114586000Y-93537402D01*
X114586000Y-92474115D01*
X114581525Y-92458876D01*
X114580135Y-92457671D01*
X114572452Y-92456000D01*
X113750115Y-92456000D01*
X113734876Y-92460475D01*
X113733671Y-92461865D01*
X113732000Y-92469548D01*
X113732000Y-92526832D01*
X106608500Y-92526832D01*
X106608500Y-91929885D01*
X113732000Y-91929885D01*
X113736475Y-91945124D01*
X113737865Y-91946329D01*
X113745548Y-91948000D01*
X114567885Y-91948000D01*
X114583124Y-91943525D01*
X114584329Y-91942135D01*
X114586000Y-91934452D01*
X114586000Y-90866598D01*
X114582027Y-90853067D01*
X114572601Y-90851712D01*
X114483463Y-90873194D01*
X114472168Y-90877083D01*
X114290618Y-90959629D01*
X114280276Y-90965576D01*
X114117603Y-91080968D01*
X114108575Y-91088761D01*
X113970658Y-91232831D01*
X113963262Y-91242196D01*
X113855079Y-91409741D01*
X113849583Y-91420345D01*
X113775039Y-91605312D01*
X113771645Y-91616770D01*
X113733143Y-91813928D01*
X113732066Y-91822791D01*
X113732000Y-91825500D01*
X113732000Y-91929885D01*
X106608500Y-91929885D01*
X106608500Y-89655055D01*
X106628502Y-89586934D01*
X106682158Y-89540441D01*
X106752432Y-89530337D01*
X106817012Y-89559831D01*
X106834663Y-89578613D01*
X107005712Y-89802742D01*
X107005717Y-89802748D01*
X107008012Y-89805755D01*
X107010656Y-89808469D01*
X107237444Y-90041273D01*
X107240102Y-90044002D01*
X107499132Y-90252640D01*
X107581035Y-90303719D01*
X107722905Y-90392197D01*
X107781352Y-90428648D01*
X108082672Y-90569476D01*
X108086281Y-90570659D01*
X108373694Y-90664878D01*
X108398729Y-90673085D01*
X108724944Y-90737973D01*
X108728716Y-90738260D01*
X108728724Y-90738261D01*
X109052815Y-90762914D01*
X109052820Y-90762914D01*
X109056592Y-90763201D01*
X109388869Y-90748403D01*
X109393401Y-90747649D01*
X109713220Y-90694417D01*
X109713225Y-90694416D01*
X109716961Y-90693794D01*
X110036116Y-90600164D01*
X110039583Y-90598674D01*
X110039587Y-90598673D01*
X110338228Y-90470366D01*
X110338230Y-90470365D01*
X110341712Y-90468869D01*
X110629321Y-90301813D01*
X110632343Y-90299532D01*
X110632347Y-90299529D01*
X110891753Y-90103697D01*
X110891754Y-90103696D01*
X110894777Y-90101414D01*
X111134235Y-89870575D01*
X111344227Y-89612641D01*
X111521710Y-89331347D01*
X111664114Y-89030767D01*
X111667143Y-89021690D01*
X111764014Y-88731331D01*
X111769377Y-88715257D01*
X111835972Y-88389386D01*
X111860751Y-88084735D01*
X121641500Y-88084735D01*
X121641749Y-88087522D01*
X121641749Y-88087528D01*
X121644339Y-88116548D01*
X121655792Y-88244872D01*
X121685244Y-88352530D01*
X121702854Y-88416901D01*
X121712716Y-88452952D01*
X121805589Y-88647663D01*
X121931474Y-88822851D01*
X122086392Y-88972977D01*
X122265447Y-89093297D01*
X122462980Y-89180008D01*
X122672745Y-89230368D01*
X122755788Y-89235156D01*
X122882506Y-89242463D01*
X122882509Y-89242463D01*
X122888113Y-89242786D01*
X122905467Y-89240686D01*
X123096708Y-89217544D01*
X123096709Y-89217544D01*
X123102277Y-89216870D01*
X123107631Y-89215223D01*
X123107635Y-89215222D01*
X123303109Y-89155085D01*
X123303108Y-89155085D01*
X123308466Y-89153437D01*
X123467605Y-89071300D01*
X123495183Y-89057066D01*
X123495184Y-89057065D01*
X123500164Y-89054495D01*
X123567003Y-89003208D01*
X123666860Y-88926585D01*
X123666864Y-88926581D01*
X123671311Y-88923169D01*
X123756642Y-88829391D01*
X123812724Y-88767758D01*
X123812726Y-88767755D01*
X123816497Y-88763611D01*
X123822763Y-88753623D01*
X123931134Y-88580865D01*
X123932543Y-88581749D01*
X123976026Y-88535698D01*
X124044938Y-88518622D01*
X124112143Y-88541514D01*
X124128654Y-88555412D01*
X124180219Y-88606977D01*
X124184727Y-88610134D01*
X124184730Y-88610136D01*
X124200770Y-88621367D01*
X124362323Y-88734488D01*
X124367305Y-88736811D01*
X124367310Y-88736814D01*
X124557810Y-88825645D01*
X124563804Y-88828440D01*
X124569112Y-88829862D01*
X124569114Y-88829863D01*
X124610592Y-88840977D01*
X124778537Y-88885978D01*
X125000000Y-88905353D01*
X125221463Y-88885978D01*
X125389408Y-88840977D01*
X125430886Y-88829863D01*
X125430888Y-88829862D01*
X125436196Y-88828440D01*
X125442190Y-88825645D01*
X125632690Y-88736814D01*
X125632695Y-88736811D01*
X125637677Y-88734488D01*
X125799230Y-88621367D01*
X125815270Y-88610136D01*
X125815273Y-88610134D01*
X125819781Y-88606977D01*
X125910905Y-88515853D01*
X125973217Y-88481827D01*
X126044032Y-88486892D01*
X126089095Y-88515853D01*
X126180219Y-88606977D01*
X126184727Y-88610134D01*
X126184730Y-88610136D01*
X126312771Y-88699791D01*
X126357099Y-88755248D01*
X126366500Y-88803004D01*
X126366500Y-97475405D01*
X126346498Y-97543526D01*
X126329595Y-97564501D01*
X126033499Y-97860596D01*
X125971187Y-97894621D01*
X125944404Y-97897500D01*
X125888513Y-97897500D01*
X125882061Y-97898872D01*
X125882056Y-97898872D01*
X125816269Y-97912856D01*
X125701712Y-97937206D01*
X125695682Y-97939891D01*
X125695681Y-97939891D01*
X125533278Y-98012197D01*
X125533276Y-98012198D01*
X125527248Y-98014882D01*
X125521907Y-98018762D01*
X125521906Y-98018763D01*
X125487171Y-98044000D01*
X125372747Y-98127134D01*
X125368326Y-98132044D01*
X125368325Y-98132045D01*
X125270937Y-98240206D01*
X125244960Y-98269056D01*
X125149473Y-98434444D01*
X125090458Y-98616072D01*
X125089768Y-98622633D01*
X125089768Y-98622635D01*
X125080533Y-98710506D01*
X125070496Y-98806000D01*
X125071186Y-98812565D01*
X125088455Y-98976866D01*
X125090458Y-98995928D01*
X125149473Y-99177556D01*
X125152776Y-99183278D01*
X125152777Y-99183279D01*
X125159598Y-99195093D01*
X125244960Y-99342944D01*
X125249378Y-99347851D01*
X125249379Y-99347852D01*
X125293753Y-99397134D01*
X125372747Y-99484866D01*
X125419434Y-99518786D01*
X125506439Y-99581999D01*
X125527248Y-99597118D01*
X125533276Y-99599802D01*
X125533278Y-99599803D01*
X125686203Y-99667889D01*
X125701712Y-99674794D01*
X125795113Y-99694647D01*
X125882056Y-99713128D01*
X125882061Y-99713128D01*
X125888513Y-99714500D01*
X126079487Y-99714500D01*
X126085939Y-99713128D01*
X126085944Y-99713128D01*
X126172887Y-99694647D01*
X126266288Y-99674794D01*
X126281797Y-99667889D01*
X126434722Y-99599803D01*
X126434724Y-99599802D01*
X126440752Y-99597118D01*
X126461562Y-99581999D01*
X126548566Y-99518786D01*
X126595253Y-99484866D01*
X126674247Y-99397134D01*
X126718621Y-99347852D01*
X126718622Y-99347851D01*
X126723040Y-99342944D01*
X126808402Y-99195093D01*
X126815223Y-99183279D01*
X126815224Y-99183278D01*
X126818527Y-99177556D01*
X126877542Y-98995928D01*
X126879546Y-98976866D01*
X126888977Y-98887134D01*
X126894907Y-98830708D01*
X126921920Y-98765051D01*
X126931122Y-98754782D01*
X127392258Y-98293647D01*
X127400537Y-98286113D01*
X127407018Y-98282000D01*
X127453644Y-98232348D01*
X127456398Y-98229507D01*
X127476135Y-98209770D01*
X127478615Y-98206573D01*
X127486320Y-98197551D01*
X127511159Y-98171100D01*
X127516586Y-98165321D01*
X127520405Y-98158375D01*
X127520407Y-98158372D01*
X127526348Y-98147566D01*
X127537199Y-98131047D01*
X127544758Y-98121301D01*
X127549614Y-98115041D01*
X127552759Y-98107772D01*
X127552762Y-98107768D01*
X127567174Y-98074463D01*
X127572391Y-98063813D01*
X127593695Y-98025060D01*
X127598733Y-98005437D01*
X127605137Y-97986734D01*
X127610033Y-97975420D01*
X127610033Y-97975419D01*
X127613181Y-97968145D01*
X127614420Y-97960322D01*
X127614423Y-97960312D01*
X127620099Y-97924476D01*
X127622505Y-97912856D01*
X127631528Y-97877711D01*
X127631528Y-97877710D01*
X127633500Y-97870030D01*
X127633500Y-97849776D01*
X127635051Y-97830065D01*
X127636980Y-97817886D01*
X127638220Y-97810057D01*
X127634059Y-97766038D01*
X127633500Y-97754181D01*
X127633500Y-88803004D01*
X127653502Y-88734883D01*
X127687229Y-88699791D01*
X127702959Y-88688777D01*
X128305777Y-88688777D01*
X128315074Y-88700793D01*
X128358069Y-88730898D01*
X128367555Y-88736376D01*
X128558993Y-88825645D01*
X128569285Y-88829391D01*
X128773309Y-88884059D01*
X128784104Y-88885962D01*
X128994525Y-88904372D01*
X129005475Y-88904372D01*
X129215896Y-88885962D01*
X129226691Y-88884059D01*
X129430715Y-88829391D01*
X129441007Y-88825645D01*
X129632445Y-88736376D01*
X129641931Y-88730898D01*
X129685764Y-88700207D01*
X129694139Y-88689729D01*
X129687071Y-88676281D01*
X129012812Y-88002022D01*
X128998868Y-87994408D01*
X128997035Y-87994539D01*
X128990420Y-87998790D01*
X128312207Y-88677003D01*
X128305777Y-88688777D01*
X127702959Y-88688777D01*
X127815270Y-88610136D01*
X127815273Y-88610134D01*
X127819781Y-88606977D01*
X127976977Y-88449781D01*
X128016664Y-88393103D01*
X128101331Y-88272185D01*
X128101332Y-88272183D01*
X128104488Y-88267676D01*
X128106811Y-88262694D01*
X128106814Y-88262689D01*
X128183675Y-88097860D01*
X128208775Y-88062015D01*
X128627978Y-87642812D01*
X128634356Y-87631132D01*
X129364408Y-87631132D01*
X129364539Y-87632965D01*
X129368790Y-87639580D01*
X129925280Y-88196070D01*
X129957719Y-88251917D01*
X130002854Y-88416901D01*
X130012716Y-88452952D01*
X130105589Y-88647663D01*
X130231474Y-88822851D01*
X130386392Y-88972977D01*
X130565447Y-89093297D01*
X130762980Y-89180008D01*
X130972745Y-89230368D01*
X131055788Y-89235156D01*
X131182506Y-89242463D01*
X131182509Y-89242463D01*
X131188113Y-89242786D01*
X131205467Y-89240686D01*
X131396708Y-89217544D01*
X131396709Y-89217544D01*
X131402277Y-89216870D01*
X131407631Y-89215223D01*
X131407635Y-89215222D01*
X131603109Y-89155085D01*
X131603108Y-89155085D01*
X131608466Y-89153437D01*
X131767605Y-89071300D01*
X131795183Y-89057066D01*
X131795184Y-89057065D01*
X131800164Y-89054495D01*
X131867003Y-89003208D01*
X131966860Y-88926585D01*
X131966864Y-88926581D01*
X131971311Y-88923169D01*
X132056642Y-88829391D01*
X132112724Y-88767758D01*
X132112726Y-88767755D01*
X132116497Y-88763611D01*
X132121743Y-88755248D01*
X132228151Y-88585621D01*
X132228153Y-88585617D01*
X132231134Y-88580865D01*
X132311597Y-88380707D01*
X132355344Y-88169463D01*
X132358500Y-88114725D01*
X132358500Y-87175265D01*
X132355824Y-87145275D01*
X132350423Y-87084767D01*
X132344208Y-87015128D01*
X132297468Y-86844275D01*
X132288766Y-86812464D01*
X132288765Y-86812460D01*
X132287284Y-86807048D01*
X132194411Y-86612337D01*
X132068526Y-86437149D01*
X131969287Y-86340980D01*
X131917636Y-86290926D01*
X131917633Y-86290924D01*
X131913608Y-86287023D01*
X131734553Y-86166703D01*
X131705162Y-86153801D01*
X131593796Y-86104915D01*
X131537020Y-86079992D01*
X131327255Y-86029632D01*
X131244212Y-86024844D01*
X131117494Y-86017537D01*
X131117491Y-86017537D01*
X131111887Y-86017214D01*
X131106309Y-86017889D01*
X130903292Y-86042456D01*
X130903291Y-86042456D01*
X130897723Y-86043130D01*
X130892369Y-86044777D01*
X130892365Y-86044778D01*
X130722244Y-86097115D01*
X130691534Y-86106563D01*
X130686553Y-86109134D01*
X130563905Y-86172437D01*
X130499836Y-86205505D01*
X130432997Y-86256792D01*
X130333140Y-86333415D01*
X130333136Y-86333419D01*
X130328689Y-86336831D01*
X130312478Y-86354647D01*
X130233259Y-86441708D01*
X130183503Y-86496389D01*
X130180522Y-86501141D01*
X130073044Y-86672475D01*
X130068866Y-86679135D01*
X129988403Y-86879293D01*
X129987265Y-86884790D01*
X129987264Y-86884792D01*
X129964307Y-86995647D01*
X129930020Y-87059190D01*
X129372022Y-87617188D01*
X129364408Y-87631132D01*
X128634356Y-87631132D01*
X128635592Y-87628868D01*
X128635461Y-87627035D01*
X128631210Y-87620420D01*
X128208775Y-87197985D01*
X128183675Y-87162140D01*
X128106814Y-86997311D01*
X128106811Y-86997306D01*
X128104488Y-86992324D01*
X128101331Y-86987815D01*
X127980136Y-86814730D01*
X127980134Y-86814727D01*
X127976977Y-86810219D01*
X127819781Y-86653023D01*
X127815273Y-86649866D01*
X127815270Y-86649864D01*
X127728450Y-86589072D01*
X127701599Y-86570271D01*
X128305860Y-86570271D01*
X128312928Y-86583718D01*
X128987188Y-87257978D01*
X129001132Y-87265592D01*
X129002965Y-87265461D01*
X129009580Y-87261210D01*
X129687793Y-86582997D01*
X129694223Y-86571223D01*
X129684926Y-86559207D01*
X129641931Y-86529102D01*
X129632445Y-86523624D01*
X129441007Y-86434355D01*
X129430715Y-86430609D01*
X129226691Y-86375941D01*
X129215896Y-86374038D01*
X129005475Y-86355628D01*
X128994525Y-86355628D01*
X128784104Y-86374038D01*
X128773309Y-86375941D01*
X128569285Y-86430609D01*
X128558993Y-86434355D01*
X128367559Y-86523623D01*
X128358068Y-86529103D01*
X128314235Y-86559794D01*
X128305860Y-86570271D01*
X127701599Y-86570271D01*
X127637677Y-86525512D01*
X127632695Y-86523189D01*
X127632690Y-86523186D01*
X127441178Y-86433883D01*
X127441177Y-86433882D01*
X127436196Y-86431560D01*
X127430888Y-86430138D01*
X127430886Y-86430137D01*
X127316435Y-86399470D01*
X127221463Y-86374022D01*
X127000000Y-86354647D01*
X126778537Y-86374022D01*
X126683565Y-86399470D01*
X126569114Y-86430137D01*
X126569112Y-86430138D01*
X126563804Y-86431560D01*
X126558823Y-86433882D01*
X126558822Y-86433883D01*
X126367311Y-86523186D01*
X126367306Y-86523189D01*
X126362324Y-86525512D01*
X126357817Y-86528668D01*
X126357815Y-86528669D01*
X126184730Y-86649864D01*
X126184727Y-86649866D01*
X126180219Y-86653023D01*
X126089095Y-86744147D01*
X126026783Y-86778173D01*
X125955968Y-86773108D01*
X125910905Y-86744147D01*
X125819781Y-86653023D01*
X125815273Y-86649866D01*
X125815270Y-86649864D01*
X125728450Y-86589072D01*
X125637677Y-86525512D01*
X125632695Y-86523189D01*
X125632690Y-86523186D01*
X125441178Y-86433883D01*
X125441177Y-86433882D01*
X125436196Y-86431560D01*
X125430888Y-86430138D01*
X125430886Y-86430137D01*
X125316435Y-86399470D01*
X125221463Y-86374022D01*
X125000000Y-86354647D01*
X124778537Y-86374022D01*
X124683565Y-86399470D01*
X124569114Y-86430137D01*
X124569112Y-86430138D01*
X124563804Y-86431560D01*
X124558823Y-86433882D01*
X124558822Y-86433883D01*
X124367311Y-86523186D01*
X124367306Y-86523189D01*
X124362324Y-86525512D01*
X124357817Y-86528668D01*
X124357815Y-86528669D01*
X124184730Y-86649864D01*
X124184727Y-86649866D01*
X124180219Y-86653023D01*
X124125917Y-86707325D01*
X124063605Y-86741351D01*
X123992790Y-86736286D01*
X123935954Y-86693739D01*
X123923097Y-86672475D01*
X123896830Y-86617406D01*
X123896824Y-86617396D01*
X123894411Y-86612337D01*
X123768526Y-86437149D01*
X123669287Y-86340980D01*
X123617636Y-86290926D01*
X123617633Y-86290924D01*
X123613608Y-86287023D01*
X123434553Y-86166703D01*
X123405162Y-86153801D01*
X123293796Y-86104915D01*
X123237020Y-86079992D01*
X123027255Y-86029632D01*
X122944212Y-86024844D01*
X122817494Y-86017537D01*
X122817491Y-86017537D01*
X122811887Y-86017214D01*
X122806309Y-86017889D01*
X122603292Y-86042456D01*
X122603291Y-86042456D01*
X122597723Y-86043130D01*
X122592369Y-86044777D01*
X122592365Y-86044778D01*
X122422244Y-86097115D01*
X122391534Y-86106563D01*
X122386553Y-86109134D01*
X122263905Y-86172437D01*
X122199836Y-86205505D01*
X122132997Y-86256792D01*
X122033140Y-86333415D01*
X122033136Y-86333419D01*
X122028689Y-86336831D01*
X122012478Y-86354647D01*
X121933259Y-86441708D01*
X121883503Y-86496389D01*
X121880522Y-86501141D01*
X121773044Y-86672475D01*
X121768866Y-86679135D01*
X121688403Y-86879293D01*
X121644656Y-87090537D01*
X121641500Y-87145275D01*
X121641500Y-88084735D01*
X111860751Y-88084735D01*
X111862936Y-88057875D01*
X111863542Y-88000000D01*
X111863205Y-87994408D01*
X111843755Y-87671772D01*
X111843754Y-87671765D01*
X111843527Y-87667997D01*
X111783770Y-87340803D01*
X111758053Y-87257978D01*
X111686261Y-87026771D01*
X111685139Y-87023157D01*
X111549061Y-86719662D01*
X111434334Y-86529102D01*
X111379466Y-86437966D01*
X111379462Y-86437960D01*
X111377507Y-86434713D01*
X111375180Y-86431729D01*
X111375175Y-86431722D01*
X111175294Y-86175425D01*
X111175288Y-86175418D01*
X111172963Y-86172437D01*
X110938392Y-85936634D01*
X110680654Y-85733450D01*
X110639541Y-85675569D01*
X110636247Y-85604649D01*
X110671819Y-85543206D01*
X110734962Y-85510749D01*
X110758660Y-85508500D01*
X134240000Y-85508500D01*
X134308121Y-85528502D01*
G37*
G04 #@! TD.AperFunction*
M02*
