G04 #@! TF.GenerationSoftware,KiCad,Pcbnew,(6.0.7)*
G04 #@! TF.CreationDate,2022-10-05T21:11:47-04:00*
G04 #@! TF.ProjectId,Dogometer_v1,446f676f-6d65-4746-9572-5f76312e6b69,rev?*
G04 #@! TF.SameCoordinates,Original*
G04 #@! TF.FileFunction,Legend,Top*
G04 #@! TF.FilePolarity,Positive*
%FSLAX46Y46*%
G04 Gerber Fmt 4.6, Leading zero omitted, Abs format (unit mm)*
G04 Created by KiCad (PCBNEW (6.0.7)) date 2022-10-05 21:11:47*
%MOMM*%
%LPD*%
G01*
G04 APERTURE LIST*
G04 Aperture macros list*
%AMRoundRect*
0 Rectangle with rounded corners*
0 $1 Rounding radius*
0 $2 $3 $4 $5 $6 $7 $8 $9 X,Y pos of 4 corners*
0 Add a 4 corners polygon primitive as box body*
4,1,4,$2,$3,$4,$5,$6,$7,$8,$9,$2,$3,0*
0 Add four circle primitives for the rounded corners*
1,1,$1+$1,$2,$3*
1,1,$1+$1,$4,$5*
1,1,$1+$1,$6,$7*
1,1,$1+$1,$8,$9*
0 Add four rect primitives between the rounded corners*
20,1,$1+$1,$2,$3,$4,$5,0*
20,1,$1+$1,$4,$5,$6,$7,0*
20,1,$1+$1,$6,$7,$8,$9,0*
20,1,$1+$1,$8,$9,$2,$3,0*%
G04 Aperture macros list end*
%ADD10C,0.150000*%
%ADD11C,0.120000*%
%ADD12C,0.254000*%
%ADD13C,0.560000*%
%ADD14R,0.600000X0.450000*%
%ADD15RoundRect,0.150000X0.512500X0.150000X-0.512500X0.150000X-0.512500X-0.150000X0.512500X-0.150000X0*%
%ADD16RoundRect,0.135000X0.135000X0.185000X-0.135000X0.185000X-0.135000X-0.185000X0.135000X-0.185000X0*%
%ADD17RoundRect,0.140000X-0.170000X0.140000X-0.170000X-0.140000X0.170000X-0.140000X0.170000X0.140000X0*%
%ADD18RoundRect,0.225000X-0.250000X0.225000X-0.250000X-0.225000X0.250000X-0.225000X0.250000X0.225000X0*%
%ADD19R,1.350000X0.400000*%
%ADD20O,1.550000X0.890000*%
%ADD21R,1.550000X1.500000*%
%ADD22R,1.550000X1.200000*%
%ADD23O,0.950000X1.250000*%
%ADD24RoundRect,0.200000X0.200000X0.275000X-0.200000X0.275000X-0.200000X-0.275000X0.200000X-0.275000X0*%
%ADD25RoundRect,0.218750X0.218750X0.256250X-0.218750X0.256250X-0.218750X-0.256250X0.218750X-0.256250X0*%
%ADD26RoundRect,0.135000X-0.135000X-0.185000X0.135000X-0.185000X0.135000X0.185000X-0.135000X0.185000X0*%
%ADD27RoundRect,0.150000X-0.512500X-0.150000X0.512500X-0.150000X0.512500X0.150000X-0.512500X0.150000X0*%
%ADD28R,0.300000X0.300000*%
%ADD29R,0.900000X0.300000*%
%ADD30R,0.300000X0.900000*%
%ADD31R,1.800000X1.800000*%
%ADD32R,4.190000X1.780000*%
%ADD33R,4.190000X2.665000*%
%ADD34RoundRect,0.200000X0.275000X-0.200000X0.275000X0.200000X-0.275000X0.200000X-0.275000X-0.200000X0*%
%ADD35C,1.524000*%
%ADD36O,1.400000X2.200000*%
%ADD37O,2.500000X1.000000*%
%ADD38R,1.500000X0.900000*%
%ADD39R,0.900000X1.500000*%
%ADD40R,0.900000X0.900000*%
%ADD41R,0.700000X1.000000*%
%ADD42R,0.700000X0.600000*%
%ADD43RoundRect,0.200000X-0.275000X0.200000X-0.275000X-0.200000X0.275000X-0.200000X0.275000X0.200000X0*%
%ADD44R,2.000000X1.350000*%
%ADD45R,3.500000X3.300000*%
%ADD46C,10.200000*%
%ADD47R,2.000000X1.000000*%
%ADD48RoundRect,0.218750X0.256250X-0.218750X0.256250X0.218750X-0.256250X0.218750X-0.256250X-0.218750X0*%
%ADD49RoundRect,0.250000X0.350000X0.625000X-0.350000X0.625000X-0.350000X-0.625000X0.350000X-0.625000X0*%
%ADD50O,1.200000X1.750000*%
%ADD51RoundRect,0.150000X0.150000X-0.587500X0.150000X0.587500X-0.150000X0.587500X-0.150000X-0.587500X0*%
G04 APERTURE END LIST*
D10*
X122959904Y-101997380D02*
X122959904Y-100997380D01*
X123198000Y-100997380D01*
X123340857Y-101045000D01*
X123436095Y-101140238D01*
X123483714Y-101235476D01*
X123531333Y-101425952D01*
X123531333Y-101568809D01*
X123483714Y-101759285D01*
X123436095Y-101854523D01*
X123340857Y-101949761D01*
X123198000Y-101997380D01*
X122959904Y-101997380D01*
X123864666Y-100997380D02*
X124483714Y-100997380D01*
X124150380Y-101378333D01*
X124293238Y-101378333D01*
X124388476Y-101425952D01*
X124436095Y-101473571D01*
X124483714Y-101568809D01*
X124483714Y-101806904D01*
X124436095Y-101902142D01*
X124388476Y-101949761D01*
X124293238Y-101997380D01*
X124007523Y-101997380D01*
X123912285Y-101949761D01*
X123864666Y-101902142D01*
X114808095Y-93178380D02*
X114808095Y-93987904D01*
X114855714Y-94083142D01*
X114903333Y-94130761D01*
X114998571Y-94178380D01*
X115189047Y-94178380D01*
X115284285Y-94130761D01*
X115331904Y-94083142D01*
X115379523Y-93987904D01*
X115379523Y-93178380D01*
X115808095Y-93273619D02*
X115855714Y-93226000D01*
X115950952Y-93178380D01*
X116189047Y-93178380D01*
X116284285Y-93226000D01*
X116331904Y-93273619D01*
X116379523Y-93368857D01*
X116379523Y-93464095D01*
X116331904Y-93606952D01*
X115760476Y-94178380D01*
X116379523Y-94178380D01*
X117945333Y-110354380D02*
X117612000Y-109878190D01*
X117373904Y-110354380D02*
X117373904Y-109354380D01*
X117754857Y-109354380D01*
X117850095Y-109402000D01*
X117897714Y-109449619D01*
X117945333Y-109544857D01*
X117945333Y-109687714D01*
X117897714Y-109782952D01*
X117850095Y-109830571D01*
X117754857Y-109878190D01*
X117373904Y-109878190D01*
X118278666Y-109354380D02*
X118897714Y-109354380D01*
X118564380Y-109735333D01*
X118707238Y-109735333D01*
X118802476Y-109782952D01*
X118850095Y-109830571D01*
X118897714Y-109925809D01*
X118897714Y-110163904D01*
X118850095Y-110259142D01*
X118802476Y-110306761D01*
X118707238Y-110354380D01*
X118421523Y-110354380D01*
X118326285Y-110306761D01*
X118278666Y-110259142D01*
X114657142Y-111164666D02*
X114704761Y-111212285D01*
X114752380Y-111355142D01*
X114752380Y-111450380D01*
X114704761Y-111593238D01*
X114609523Y-111688476D01*
X114514285Y-111736095D01*
X114323809Y-111783714D01*
X114180952Y-111783714D01*
X113990476Y-111736095D01*
X113895238Y-111688476D01*
X113800000Y-111593238D01*
X113752380Y-111450380D01*
X113752380Y-111355142D01*
X113800000Y-111212285D01*
X113847619Y-111164666D01*
X114752380Y-110212285D02*
X114752380Y-110783714D01*
X114752380Y-110498000D02*
X113752380Y-110498000D01*
X113895238Y-110593238D01*
X113990476Y-110688476D01*
X114038095Y-110783714D01*
X109958142Y-96432666D02*
X110005761Y-96480285D01*
X110053380Y-96623142D01*
X110053380Y-96718380D01*
X110005761Y-96861238D01*
X109910523Y-96956476D01*
X109815285Y-97004095D01*
X109624809Y-97051714D01*
X109481952Y-97051714D01*
X109291476Y-97004095D01*
X109196238Y-96956476D01*
X109101000Y-96861238D01*
X109053380Y-96718380D01*
X109053380Y-96623142D01*
X109101000Y-96480285D01*
X109148619Y-96432666D01*
X109053380Y-95575523D02*
X109053380Y-95766000D01*
X109101000Y-95861238D01*
X109148619Y-95908857D01*
X109291476Y-96004095D01*
X109481952Y-96051714D01*
X109862904Y-96051714D01*
X109958142Y-96004095D01*
X110005761Y-95956476D01*
X110053380Y-95861238D01*
X110053380Y-95670761D01*
X110005761Y-95575523D01*
X109958142Y-95527904D01*
X109862904Y-95480285D01*
X109624809Y-95480285D01*
X109529571Y-95527904D01*
X109481952Y-95575523D01*
X109434333Y-95670761D01*
X109434333Y-95861238D01*
X109481952Y-95956476D01*
X109529571Y-96004095D01*
X109624809Y-96051714D01*
X155027333Y-113768142D02*
X154979714Y-113815761D01*
X154836857Y-113863380D01*
X154741619Y-113863380D01*
X154598761Y-113815761D01*
X154503523Y-113720523D01*
X154455904Y-113625285D01*
X154408285Y-113434809D01*
X154408285Y-113291952D01*
X154455904Y-113101476D01*
X154503523Y-113006238D01*
X154598761Y-112911000D01*
X154741619Y-112863380D01*
X154836857Y-112863380D01*
X154979714Y-112911000D01*
X155027333Y-112958619D01*
X155932095Y-112863380D02*
X155455904Y-112863380D01*
X155408285Y-113339571D01*
X155455904Y-113291952D01*
X155551142Y-113244333D01*
X155789238Y-113244333D01*
X155884476Y-113291952D01*
X155932095Y-113339571D01*
X155979714Y-113434809D01*
X155979714Y-113672904D01*
X155932095Y-113768142D01*
X155884476Y-113815761D01*
X155789238Y-113863380D01*
X155551142Y-113863380D01*
X155455904Y-113815761D01*
X155408285Y-113768142D01*
X111788380Y-106271333D02*
X112502666Y-106271333D01*
X112645523Y-106318952D01*
X112740761Y-106414190D01*
X112788380Y-106557047D01*
X112788380Y-106652285D01*
X112788380Y-105271333D02*
X112788380Y-105842761D01*
X112788380Y-105557047D02*
X111788380Y-105557047D01*
X111931238Y-105652285D01*
X112026476Y-105747523D01*
X112074095Y-105842761D01*
X138580333Y-114658380D02*
X138247000Y-114182190D01*
X138008904Y-114658380D02*
X138008904Y-113658380D01*
X138389857Y-113658380D01*
X138485095Y-113706000D01*
X138532714Y-113753619D01*
X138580333Y-113848857D01*
X138580333Y-113991714D01*
X138532714Y-114086952D01*
X138485095Y-114134571D01*
X138389857Y-114182190D01*
X138008904Y-114182190D01*
X139056523Y-114658380D02*
X139247000Y-114658380D01*
X139342238Y-114610761D01*
X139389857Y-114563142D01*
X139485095Y-114420285D01*
X139532714Y-114229809D01*
X139532714Y-113848857D01*
X139485095Y-113753619D01*
X139437476Y-113706000D01*
X139342238Y-113658380D01*
X139151761Y-113658380D01*
X139056523Y-113706000D01*
X139008904Y-113753619D01*
X138961285Y-113848857D01*
X138961285Y-114086952D01*
X139008904Y-114182190D01*
X139056523Y-114229809D01*
X139151761Y-114277428D01*
X139342238Y-114277428D01*
X139437476Y-114229809D01*
X139485095Y-114182190D01*
X139532714Y-114086952D01*
X147597904Y-121356380D02*
X147597904Y-120356380D01*
X147836000Y-120356380D01*
X147978857Y-120404000D01*
X148074095Y-120499238D01*
X148121714Y-120594476D01*
X148169333Y-120784952D01*
X148169333Y-120927809D01*
X148121714Y-121118285D01*
X148074095Y-121213523D01*
X147978857Y-121308761D01*
X147836000Y-121356380D01*
X147597904Y-121356380D01*
X149074095Y-120356380D02*
X148597904Y-120356380D01*
X148550285Y-120832571D01*
X148597904Y-120784952D01*
X148693142Y-120737333D01*
X148931238Y-120737333D01*
X149026476Y-120784952D01*
X149074095Y-120832571D01*
X149121714Y-120927809D01*
X149121714Y-121165904D01*
X149074095Y-121261142D01*
X149026476Y-121308761D01*
X148931238Y-121356380D01*
X148693142Y-121356380D01*
X148597904Y-121308761D01*
X148550285Y-121261142D01*
X154297142Y-121515142D02*
X154249523Y-121562761D01*
X154106666Y-121610380D01*
X154011428Y-121610380D01*
X153868571Y-121562761D01*
X153773333Y-121467523D01*
X153725714Y-121372285D01*
X153678095Y-121181809D01*
X153678095Y-121038952D01*
X153725714Y-120848476D01*
X153773333Y-120753238D01*
X153868571Y-120658000D01*
X154011428Y-120610380D01*
X154106666Y-120610380D01*
X154249523Y-120658000D01*
X154297142Y-120705619D01*
X155249523Y-121610380D02*
X154678095Y-121610380D01*
X154963809Y-121610380D02*
X154963809Y-120610380D01*
X154868571Y-120753238D01*
X154773333Y-120848476D01*
X154678095Y-120896095D01*
X155630476Y-120705619D02*
X155678095Y-120658000D01*
X155773333Y-120610380D01*
X156011428Y-120610380D01*
X156106666Y-120658000D01*
X156154285Y-120705619D01*
X156201904Y-120800857D01*
X156201904Y-120896095D01*
X156154285Y-121038952D01*
X155582857Y-121610380D01*
X156201904Y-121610380D01*
X116165333Y-101544380D02*
X115832000Y-101068190D01*
X115593904Y-101544380D02*
X115593904Y-100544380D01*
X115974857Y-100544380D01*
X116070095Y-100592000D01*
X116117714Y-100639619D01*
X116165333Y-100734857D01*
X116165333Y-100877714D01*
X116117714Y-100972952D01*
X116070095Y-101020571D01*
X115974857Y-101068190D01*
X115593904Y-101068190D01*
X116546285Y-100639619D02*
X116593904Y-100592000D01*
X116689142Y-100544380D01*
X116927238Y-100544380D01*
X117022476Y-100592000D01*
X117070095Y-100639619D01*
X117117714Y-100734857D01*
X117117714Y-100830095D01*
X117070095Y-100972952D01*
X116498666Y-101544380D01*
X117117714Y-101544380D01*
X125984095Y-93362380D02*
X125984095Y-94171904D01*
X126031714Y-94267142D01*
X126079333Y-94314761D01*
X126174571Y-94362380D01*
X126365047Y-94362380D01*
X126460285Y-94314761D01*
X126507904Y-94267142D01*
X126555523Y-94171904D01*
X126555523Y-93362380D01*
X126936476Y-93362380D02*
X127603142Y-93362380D01*
X127174571Y-94362380D01*
X112272095Y-104164380D02*
X112272095Y-104973904D01*
X112319714Y-105069142D01*
X112367333Y-105116761D01*
X112462571Y-105164380D01*
X112653047Y-105164380D01*
X112748285Y-105116761D01*
X112795904Y-105069142D01*
X112843523Y-104973904D01*
X112843523Y-104164380D01*
X113843523Y-105164380D02*
X113272095Y-105164380D01*
X113557809Y-105164380D02*
X113557809Y-104164380D01*
X113462571Y-104307238D01*
X113367333Y-104402476D01*
X113272095Y-104450095D01*
X119721333Y-94337142D02*
X119673714Y-94384761D01*
X119530857Y-94432380D01*
X119435619Y-94432380D01*
X119292761Y-94384761D01*
X119197523Y-94289523D01*
X119149904Y-94194285D01*
X119102285Y-94003809D01*
X119102285Y-93860952D01*
X119149904Y-93670476D01*
X119197523Y-93575238D01*
X119292761Y-93480000D01*
X119435619Y-93432380D01*
X119530857Y-93432380D01*
X119673714Y-93480000D01*
X119721333Y-93527619D01*
X120292761Y-93860952D02*
X120197523Y-93813333D01*
X120149904Y-93765714D01*
X120102285Y-93670476D01*
X120102285Y-93622857D01*
X120149904Y-93527619D01*
X120197523Y-93480000D01*
X120292761Y-93432380D01*
X120483238Y-93432380D01*
X120578476Y-93480000D01*
X120626095Y-93527619D01*
X120673714Y-93622857D01*
X120673714Y-93670476D01*
X120626095Y-93765714D01*
X120578476Y-93813333D01*
X120483238Y-93860952D01*
X120292761Y-93860952D01*
X120197523Y-93908571D01*
X120149904Y-93956190D01*
X120102285Y-94051428D01*
X120102285Y-94241904D01*
X120149904Y-94337142D01*
X120197523Y-94384761D01*
X120292761Y-94432380D01*
X120483238Y-94432380D01*
X120578476Y-94384761D01*
X120626095Y-94337142D01*
X120673714Y-94241904D01*
X120673714Y-94051428D01*
X120626095Y-93956190D01*
X120578476Y-93908571D01*
X120483238Y-93860952D01*
X129024142Y-94210142D02*
X128976523Y-94257761D01*
X128833666Y-94305380D01*
X128738428Y-94305380D01*
X128595571Y-94257761D01*
X128500333Y-94162523D01*
X128452714Y-94067285D01*
X128405095Y-93876809D01*
X128405095Y-93733952D01*
X128452714Y-93543476D01*
X128500333Y-93448238D01*
X128595571Y-93353000D01*
X128738428Y-93305380D01*
X128833666Y-93305380D01*
X128976523Y-93353000D01*
X129024142Y-93400619D01*
X129976523Y-94305380D02*
X129405095Y-94305380D01*
X129690809Y-94305380D02*
X129690809Y-93305380D01*
X129595571Y-93448238D01*
X129500333Y-93543476D01*
X129405095Y-93591095D01*
X130928904Y-94305380D02*
X130357476Y-94305380D01*
X130643190Y-94305380D02*
X130643190Y-93305380D01*
X130547952Y-93448238D01*
X130452714Y-93543476D01*
X130357476Y-93591095D01*
X115546142Y-109259666D02*
X115593761Y-109307285D01*
X115641380Y-109450142D01*
X115641380Y-109545380D01*
X115593761Y-109688238D01*
X115498523Y-109783476D01*
X115403285Y-109831095D01*
X115212809Y-109878714D01*
X115069952Y-109878714D01*
X114879476Y-109831095D01*
X114784238Y-109783476D01*
X114689000Y-109688238D01*
X114641380Y-109545380D01*
X114641380Y-109450142D01*
X114689000Y-109307285D01*
X114736619Y-109259666D01*
X114641380Y-108926333D02*
X114641380Y-108307285D01*
X115022333Y-108640619D01*
X115022333Y-108497761D01*
X115069952Y-108402523D01*
X115117571Y-108354904D01*
X115212809Y-108307285D01*
X115450904Y-108307285D01*
X115546142Y-108354904D01*
X115593761Y-108402523D01*
X115641380Y-108497761D01*
X115641380Y-108783476D01*
X115593761Y-108878714D01*
X115546142Y-108926333D01*
X180961666Y-106786380D02*
X180961666Y-107500666D01*
X180914047Y-107643523D01*
X180818809Y-107738761D01*
X180675952Y-107786380D01*
X180580714Y-107786380D01*
X181342619Y-106786380D02*
X181961666Y-106786380D01*
X181628333Y-107167333D01*
X181771190Y-107167333D01*
X181866428Y-107214952D01*
X181914047Y-107262571D01*
X181961666Y-107357809D01*
X181961666Y-107595904D01*
X181914047Y-107691142D01*
X181866428Y-107738761D01*
X181771190Y-107786380D01*
X181485476Y-107786380D01*
X181390238Y-107738761D01*
X181342619Y-107691142D01*
X152487333Y-112593380D02*
X152154000Y-112117190D01*
X151915904Y-112593380D02*
X151915904Y-111593380D01*
X152296857Y-111593380D01*
X152392095Y-111641000D01*
X152439714Y-111688619D01*
X152487333Y-111783857D01*
X152487333Y-111926714D01*
X152439714Y-112021952D01*
X152392095Y-112069571D01*
X152296857Y-112117190D01*
X151915904Y-112117190D01*
X153344476Y-111593380D02*
X153154000Y-111593380D01*
X153058761Y-111641000D01*
X153011142Y-111688619D01*
X152915904Y-111831476D01*
X152868285Y-112021952D01*
X152868285Y-112402904D01*
X152915904Y-112498142D01*
X152963523Y-112545761D01*
X153058761Y-112593380D01*
X153249238Y-112593380D01*
X153344476Y-112545761D01*
X153392095Y-112498142D01*
X153439714Y-112402904D01*
X153439714Y-112164809D01*
X153392095Y-112069571D01*
X153344476Y-112021952D01*
X153249238Y-111974333D01*
X153058761Y-111974333D01*
X152963523Y-112021952D01*
X152915904Y-112069571D01*
X152868285Y-112164809D01*
X148120380Y-117482857D02*
X147644190Y-117816190D01*
X148120380Y-118054285D02*
X147120380Y-118054285D01*
X147120380Y-117673333D01*
X147168000Y-117578095D01*
X147215619Y-117530476D01*
X147310857Y-117482857D01*
X147453714Y-117482857D01*
X147548952Y-117530476D01*
X147596571Y-117578095D01*
X147644190Y-117673333D01*
X147644190Y-118054285D01*
X148120380Y-116530476D02*
X148120380Y-117101904D01*
X148120380Y-116816190D02*
X147120380Y-116816190D01*
X147263238Y-116911428D01*
X147358476Y-117006666D01*
X147406095Y-117101904D01*
X148120380Y-115578095D02*
X148120380Y-116149523D01*
X148120380Y-115863809D02*
X147120380Y-115863809D01*
X147263238Y-115959047D01*
X147358476Y-116054285D01*
X147406095Y-116149523D01*
X121348666Y-91511380D02*
X121348666Y-90511380D01*
X121729619Y-90511380D01*
X121824857Y-90559000D01*
X121872476Y-90606619D01*
X121920095Y-90701857D01*
X121920095Y-90844714D01*
X121872476Y-90939952D01*
X121824857Y-90987571D01*
X121729619Y-91035190D01*
X121348666Y-91035190D01*
X122253428Y-90511380D02*
X122491523Y-91511380D01*
X122682000Y-90797095D01*
X122872476Y-91511380D01*
X123110571Y-90511380D01*
X124062952Y-91511380D02*
X123729619Y-91035190D01*
X123491523Y-91511380D02*
X123491523Y-90511380D01*
X123872476Y-90511380D01*
X123967714Y-90559000D01*
X124015333Y-90606619D01*
X124062952Y-90701857D01*
X124062952Y-90844714D01*
X124015333Y-90939952D01*
X123967714Y-90987571D01*
X123872476Y-91035190D01*
X123491523Y-91035190D01*
X112865333Y-102216380D02*
X112532000Y-101740190D01*
X112293904Y-102216380D02*
X112293904Y-101216380D01*
X112674857Y-101216380D01*
X112770095Y-101264000D01*
X112817714Y-101311619D01*
X112865333Y-101406857D01*
X112865333Y-101549714D01*
X112817714Y-101644952D01*
X112770095Y-101692571D01*
X112674857Y-101740190D01*
X112293904Y-101740190D01*
X113817714Y-102216380D02*
X113246285Y-102216380D01*
X113532000Y-102216380D02*
X113532000Y-101216380D01*
X113436761Y-101359238D01*
X113341523Y-101454476D01*
X113246285Y-101502095D01*
X125617642Y-96777857D02*
X125665261Y-96825476D01*
X125712880Y-96968333D01*
X125712880Y-97063571D01*
X125665261Y-97206428D01*
X125570023Y-97301666D01*
X125474785Y-97349285D01*
X125284309Y-97396904D01*
X125141452Y-97396904D01*
X124950976Y-97349285D01*
X124855738Y-97301666D01*
X124760500Y-97206428D01*
X124712880Y-97063571D01*
X124712880Y-96968333D01*
X124760500Y-96825476D01*
X124808119Y-96777857D01*
X125712880Y-95825476D02*
X125712880Y-96396904D01*
X125712880Y-96111190D02*
X124712880Y-96111190D01*
X124855738Y-96206428D01*
X124950976Y-96301666D01*
X124998595Y-96396904D01*
X124712880Y-95206428D02*
X124712880Y-95111190D01*
X124760500Y-95015952D01*
X124808119Y-94968333D01*
X124903357Y-94920714D01*
X125093833Y-94873095D01*
X125331928Y-94873095D01*
X125522404Y-94920714D01*
X125617642Y-94968333D01*
X125665261Y-95015952D01*
X125712880Y-95111190D01*
X125712880Y-95206428D01*
X125665261Y-95301666D01*
X125617642Y-95349285D01*
X125522404Y-95396904D01*
X125331928Y-95444523D01*
X125093833Y-95444523D01*
X124903357Y-95396904D01*
X124808119Y-95349285D01*
X124760500Y-95301666D01*
X124712880Y-95206428D01*
X115086333Y-100434380D02*
X114753000Y-99958190D01*
X114514904Y-100434380D02*
X114514904Y-99434380D01*
X114895857Y-99434380D01*
X114991095Y-99482000D01*
X115038714Y-99529619D01*
X115086333Y-99624857D01*
X115086333Y-99767714D01*
X115038714Y-99862952D01*
X114991095Y-99910571D01*
X114895857Y-99958190D01*
X114514904Y-99958190D01*
X115943476Y-99767714D02*
X115943476Y-100434380D01*
X115705380Y-99386761D02*
X115467285Y-100101047D01*
X116086333Y-100101047D01*
X167386095Y-112609380D02*
X167386095Y-113418904D01*
X167433714Y-113514142D01*
X167481333Y-113561761D01*
X167576571Y-113609380D01*
X167767047Y-113609380D01*
X167862285Y-113561761D01*
X167909904Y-113514142D01*
X167957523Y-113418904D01*
X167957523Y-112609380D01*
X168576571Y-113037952D02*
X168481333Y-112990333D01*
X168433714Y-112942714D01*
X168386095Y-112847476D01*
X168386095Y-112799857D01*
X168433714Y-112704619D01*
X168481333Y-112657000D01*
X168576571Y-112609380D01*
X168767047Y-112609380D01*
X168862285Y-112657000D01*
X168909904Y-112704619D01*
X168957523Y-112799857D01*
X168957523Y-112847476D01*
X168909904Y-112942714D01*
X168862285Y-112990333D01*
X168767047Y-113037952D01*
X168576571Y-113037952D01*
X168481333Y-113085571D01*
X168433714Y-113133190D01*
X168386095Y-113228428D01*
X168386095Y-113418904D01*
X168433714Y-113514142D01*
X168481333Y-113561761D01*
X168576571Y-113609380D01*
X168767047Y-113609380D01*
X168862285Y-113561761D01*
X168909904Y-113514142D01*
X168957523Y-113418904D01*
X168957523Y-113228428D01*
X168909904Y-113133190D01*
X168862285Y-113085571D01*
X168767047Y-113037952D01*
X152376142Y-115736666D02*
X152423761Y-115784285D01*
X152471380Y-115927142D01*
X152471380Y-116022380D01*
X152423761Y-116165238D01*
X152328523Y-116260476D01*
X152233285Y-116308095D01*
X152042809Y-116355714D01*
X151899952Y-116355714D01*
X151709476Y-116308095D01*
X151614238Y-116260476D01*
X151519000Y-116165238D01*
X151471380Y-116022380D01*
X151471380Y-115927142D01*
X151519000Y-115784285D01*
X151566619Y-115736666D01*
X151471380Y-115403333D02*
X151471380Y-114736666D01*
X152471380Y-115165238D01*
X145415095Y-102576380D02*
X145415095Y-103385904D01*
X145462714Y-103481142D01*
X145510333Y-103528761D01*
X145605571Y-103576380D01*
X145796047Y-103576380D01*
X145891285Y-103528761D01*
X145938904Y-103481142D01*
X145986523Y-103385904D01*
X145986523Y-102576380D01*
X146891285Y-102909714D02*
X146891285Y-103576380D01*
X146653190Y-102528761D02*
X146415095Y-103243047D01*
X147034142Y-103243047D01*
X139002095Y-88762666D02*
X139478285Y-88762666D01*
X138906857Y-89048380D02*
X139240190Y-88048380D01*
X139573523Y-89048380D01*
X139906857Y-88381714D02*
X139906857Y-89048380D01*
X139906857Y-88476952D02*
X139954476Y-88429333D01*
X140049714Y-88381714D01*
X140192571Y-88381714D01*
X140287809Y-88429333D01*
X140335428Y-88524571D01*
X140335428Y-89048380D01*
X140668761Y-88381714D02*
X141049714Y-88381714D01*
X140811619Y-88048380D02*
X140811619Y-88905523D01*
X140859238Y-89000761D01*
X140954476Y-89048380D01*
X141049714Y-89048380D01*
X141764000Y-89000761D02*
X141668761Y-89048380D01*
X141478285Y-89048380D01*
X141383047Y-89000761D01*
X141335428Y-88905523D01*
X141335428Y-88524571D01*
X141383047Y-88429333D01*
X141478285Y-88381714D01*
X141668761Y-88381714D01*
X141764000Y-88429333D01*
X141811619Y-88524571D01*
X141811619Y-88619809D01*
X141335428Y-88715047D01*
X142240190Y-88381714D02*
X142240190Y-89048380D01*
X142240190Y-88476952D02*
X142287809Y-88429333D01*
X142383047Y-88381714D01*
X142525904Y-88381714D01*
X142621142Y-88429333D01*
X142668761Y-88524571D01*
X142668761Y-89048380D01*
X143144952Y-88381714D02*
X143144952Y-89048380D01*
X143144952Y-88476952D02*
X143192571Y-88429333D01*
X143287809Y-88381714D01*
X143430666Y-88381714D01*
X143525904Y-88429333D01*
X143573523Y-88524571D01*
X143573523Y-89048380D01*
X144478285Y-89048380D02*
X144478285Y-88524571D01*
X144430666Y-88429333D01*
X144335428Y-88381714D01*
X144144952Y-88381714D01*
X144049714Y-88429333D01*
X144478285Y-89000761D02*
X144383047Y-89048380D01*
X144144952Y-89048380D01*
X144049714Y-89000761D01*
X144002095Y-88905523D01*
X144002095Y-88810285D01*
X144049714Y-88715047D01*
X144144952Y-88667428D01*
X144383047Y-88667428D01*
X144478285Y-88619809D01*
X145668761Y-88762666D02*
X146144952Y-88762666D01*
X145573523Y-89048380D02*
X145906857Y-88048380D01*
X146240190Y-89048380D01*
X146573523Y-89048380D02*
X146573523Y-88381714D01*
X146573523Y-88572190D02*
X146621142Y-88476952D01*
X146668761Y-88429333D01*
X146764000Y-88381714D01*
X146859238Y-88381714D01*
X147573523Y-89000761D02*
X147478285Y-89048380D01*
X147287809Y-89048380D01*
X147192571Y-89000761D01*
X147144952Y-88905523D01*
X147144952Y-88524571D01*
X147192571Y-88429333D01*
X147287809Y-88381714D01*
X147478285Y-88381714D01*
X147573523Y-88429333D01*
X147621142Y-88524571D01*
X147621142Y-88619809D01*
X147144952Y-88715047D01*
X148478285Y-89048380D02*
X148478285Y-88524571D01*
X148430666Y-88429333D01*
X148335428Y-88381714D01*
X148144952Y-88381714D01*
X148049714Y-88429333D01*
X148478285Y-89000761D02*
X148383047Y-89048380D01*
X148144952Y-89048380D01*
X148049714Y-89000761D01*
X148002095Y-88905523D01*
X148002095Y-88810285D01*
X148049714Y-88715047D01*
X148144952Y-88667428D01*
X148383047Y-88667428D01*
X148478285Y-88619809D01*
X120038333Y-101494380D02*
X119705000Y-101018190D01*
X119466904Y-101494380D02*
X119466904Y-100494380D01*
X119847857Y-100494380D01*
X119943095Y-100542000D01*
X119990714Y-100589619D01*
X120038333Y-100684857D01*
X120038333Y-100827714D01*
X119990714Y-100922952D01*
X119943095Y-100970571D01*
X119847857Y-101018190D01*
X119466904Y-101018190D01*
X120609761Y-100922952D02*
X120514523Y-100875333D01*
X120466904Y-100827714D01*
X120419285Y-100732476D01*
X120419285Y-100684857D01*
X120466904Y-100589619D01*
X120514523Y-100542000D01*
X120609761Y-100494380D01*
X120800238Y-100494380D01*
X120895476Y-100542000D01*
X120943095Y-100589619D01*
X120990714Y-100684857D01*
X120990714Y-100732476D01*
X120943095Y-100827714D01*
X120895476Y-100875333D01*
X120800238Y-100922952D01*
X120609761Y-100922952D01*
X120514523Y-100970571D01*
X120466904Y-101018190D01*
X120419285Y-101113428D01*
X120419285Y-101303904D01*
X120466904Y-101399142D01*
X120514523Y-101446761D01*
X120609761Y-101494380D01*
X120800238Y-101494380D01*
X120895476Y-101446761D01*
X120943095Y-101399142D01*
X120990714Y-101303904D01*
X120990714Y-101113428D01*
X120943095Y-101018190D01*
X120895476Y-100970571D01*
X120800238Y-100922952D01*
X141422380Y-117482857D02*
X140946190Y-117816190D01*
X141422380Y-118054285D02*
X140422380Y-118054285D01*
X140422380Y-117673333D01*
X140470000Y-117578095D01*
X140517619Y-117530476D01*
X140612857Y-117482857D01*
X140755714Y-117482857D01*
X140850952Y-117530476D01*
X140898571Y-117578095D01*
X140946190Y-117673333D01*
X140946190Y-118054285D01*
X141422380Y-116530476D02*
X141422380Y-117101904D01*
X141422380Y-116816190D02*
X140422380Y-116816190D01*
X140565238Y-116911428D01*
X140660476Y-117006666D01*
X140708095Y-117101904D01*
X140422380Y-115911428D02*
X140422380Y-115816190D01*
X140470000Y-115720952D01*
X140517619Y-115673333D01*
X140612857Y-115625714D01*
X140803333Y-115578095D01*
X141041428Y-115578095D01*
X141231904Y-115625714D01*
X141327142Y-115673333D01*
X141374761Y-115720952D01*
X141422380Y-115816190D01*
X141422380Y-115911428D01*
X141374761Y-116006666D01*
X141327142Y-116054285D01*
X141231904Y-116101904D01*
X141041428Y-116149523D01*
X140803333Y-116149523D01*
X140612857Y-116101904D01*
X140517619Y-116054285D01*
X140470000Y-116006666D01*
X140422380Y-115911428D01*
X111509904Y-115418380D02*
X111509904Y-114418380D01*
X111748000Y-114418380D01*
X111890857Y-114466000D01*
X111986095Y-114561238D01*
X112033714Y-114656476D01*
X112081333Y-114846952D01*
X112081333Y-114989809D01*
X112033714Y-115180285D01*
X111986095Y-115275523D01*
X111890857Y-115370761D01*
X111748000Y-115418380D01*
X111509904Y-115418380D01*
X113033714Y-115418380D02*
X112462285Y-115418380D01*
X112748000Y-115418380D02*
X112748000Y-114418380D01*
X112652761Y-114561238D01*
X112557523Y-114656476D01*
X112462285Y-114704095D01*
X132167333Y-99893380D02*
X131834000Y-99417190D01*
X131595904Y-99893380D02*
X131595904Y-98893380D01*
X131976857Y-98893380D01*
X132072095Y-98941000D01*
X132119714Y-98988619D01*
X132167333Y-99083857D01*
X132167333Y-99226714D01*
X132119714Y-99321952D01*
X132072095Y-99369571D01*
X131976857Y-99417190D01*
X131595904Y-99417190D01*
X132500666Y-98893380D02*
X133167333Y-98893380D01*
X132738761Y-99893380D01*
X154598857Y-101147571D02*
X154741714Y-101195190D01*
X154789333Y-101242809D01*
X154836952Y-101338047D01*
X154836952Y-101480904D01*
X154789333Y-101576142D01*
X154741714Y-101623761D01*
X154646476Y-101671380D01*
X154265523Y-101671380D01*
X154265523Y-100671380D01*
X154598857Y-100671380D01*
X154694095Y-100719000D01*
X154741714Y-100766619D01*
X154789333Y-100861857D01*
X154789333Y-100957095D01*
X154741714Y-101052333D01*
X154694095Y-101099952D01*
X154598857Y-101147571D01*
X154265523Y-101147571D01*
X155456000Y-100671380D02*
X155646476Y-100671380D01*
X155741714Y-100719000D01*
X155836952Y-100814238D01*
X155884571Y-101004714D01*
X155884571Y-101338047D01*
X155836952Y-101528523D01*
X155741714Y-101623761D01*
X155646476Y-101671380D01*
X155456000Y-101671380D01*
X155360761Y-101623761D01*
X155265523Y-101528523D01*
X155217904Y-101338047D01*
X155217904Y-101004714D01*
X155265523Y-100814238D01*
X155360761Y-100719000D01*
X155456000Y-100671380D01*
X156503619Y-100671380D02*
X156694095Y-100671380D01*
X156789333Y-100719000D01*
X156884571Y-100814238D01*
X156932190Y-101004714D01*
X156932190Y-101338047D01*
X156884571Y-101528523D01*
X156789333Y-101623761D01*
X156694095Y-101671380D01*
X156503619Y-101671380D01*
X156408380Y-101623761D01*
X156313142Y-101528523D01*
X156265523Y-101338047D01*
X156265523Y-101004714D01*
X156313142Y-100814238D01*
X156408380Y-100719000D01*
X156503619Y-100671380D01*
X157217904Y-100671380D02*
X157789333Y-100671380D01*
X157503619Y-101671380D02*
X157503619Y-100671380D01*
X125452285Y-107244571D02*
X125595142Y-107292190D01*
X125642761Y-107339809D01*
X125690380Y-107435047D01*
X125690380Y-107577904D01*
X125642761Y-107673142D01*
X125595142Y-107720761D01*
X125499904Y-107768380D01*
X125118952Y-107768380D01*
X125118952Y-106768380D01*
X125452285Y-106768380D01*
X125547523Y-106816000D01*
X125595142Y-106863619D01*
X125642761Y-106958857D01*
X125642761Y-107054095D01*
X125595142Y-107149333D01*
X125547523Y-107196952D01*
X125452285Y-107244571D01*
X125118952Y-107244571D01*
X125976095Y-106768380D02*
X126547523Y-106768380D01*
X126261809Y-107768380D02*
X126261809Y-106768380D01*
X127404666Y-107768380D02*
X126833238Y-107768380D01*
X127118952Y-107768380D02*
X127118952Y-106768380D01*
X127023714Y-106911238D01*
X126928476Y-107006476D01*
X126833238Y-107054095D01*
X112117142Y-109513666D02*
X112164761Y-109561285D01*
X112212380Y-109704142D01*
X112212380Y-109799380D01*
X112164761Y-109942238D01*
X112069523Y-110037476D01*
X111974285Y-110085095D01*
X111783809Y-110132714D01*
X111640952Y-110132714D01*
X111450476Y-110085095D01*
X111355238Y-110037476D01*
X111260000Y-109942238D01*
X111212380Y-109799380D01*
X111212380Y-109704142D01*
X111260000Y-109561285D01*
X111307619Y-109513666D01*
X111545714Y-108656523D02*
X112212380Y-108656523D01*
X111164761Y-108894619D02*
X111879047Y-109132714D01*
X111879047Y-108513666D01*
X152503142Y-119051666D02*
X152550761Y-119099285D01*
X152598380Y-119242142D01*
X152598380Y-119337380D01*
X152550761Y-119480238D01*
X152455523Y-119575476D01*
X152360285Y-119623095D01*
X152169809Y-119670714D01*
X152026952Y-119670714D01*
X151836476Y-119623095D01*
X151741238Y-119575476D01*
X151646000Y-119480238D01*
X151598380Y-119337380D01*
X151598380Y-119242142D01*
X151646000Y-119099285D01*
X151693619Y-119051666D01*
X152598380Y-118575476D02*
X152598380Y-118385000D01*
X152550761Y-118289761D01*
X152503142Y-118242142D01*
X152360285Y-118146904D01*
X152169809Y-118099285D01*
X151788857Y-118099285D01*
X151693619Y-118146904D01*
X151646000Y-118194523D01*
X151598380Y-118289761D01*
X151598380Y-118480238D01*
X151646000Y-118575476D01*
X151693619Y-118623095D01*
X151788857Y-118670714D01*
X152026952Y-118670714D01*
X152122190Y-118623095D01*
X152169809Y-118575476D01*
X152217428Y-118480238D01*
X152217428Y-118289761D01*
X152169809Y-118194523D01*
X152122190Y-118146904D01*
X152026952Y-118099285D01*
X169418095Y-95718380D02*
X169418095Y-96527904D01*
X169465714Y-96623142D01*
X169513333Y-96670761D01*
X169608571Y-96718380D01*
X169799047Y-96718380D01*
X169894285Y-96670761D01*
X169941904Y-96623142D01*
X169989523Y-96527904D01*
X169989523Y-95718380D01*
X170370476Y-95718380D02*
X170989523Y-95718380D01*
X170656190Y-96099333D01*
X170799047Y-96099333D01*
X170894285Y-96146952D01*
X170941904Y-96194571D01*
X170989523Y-96289809D01*
X170989523Y-96527904D01*
X170941904Y-96623142D01*
X170894285Y-96670761D01*
X170799047Y-96718380D01*
X170513333Y-96718380D01*
X170418095Y-96670761D01*
X170370476Y-96623142D01*
X111275904Y-94432380D02*
X111275904Y-93432380D01*
X111514000Y-93432380D01*
X111656857Y-93480000D01*
X111752095Y-93575238D01*
X111799714Y-93670476D01*
X111847333Y-93860952D01*
X111847333Y-94003809D01*
X111799714Y-94194285D01*
X111752095Y-94289523D01*
X111656857Y-94384761D01*
X111514000Y-94432380D01*
X111275904Y-94432380D01*
X112228285Y-93527619D02*
X112275904Y-93480000D01*
X112371142Y-93432380D01*
X112609238Y-93432380D01*
X112704476Y-93480000D01*
X112752095Y-93527619D01*
X112799714Y-93622857D01*
X112799714Y-93718095D01*
X112752095Y-93860952D01*
X112180666Y-94432380D01*
X112799714Y-94432380D01*
X116419333Y-112879142D02*
X116371714Y-112926761D01*
X116228857Y-112974380D01*
X116133619Y-112974380D01*
X115990761Y-112926761D01*
X115895523Y-112831523D01*
X115847904Y-112736285D01*
X115800285Y-112545809D01*
X115800285Y-112402952D01*
X115847904Y-112212476D01*
X115895523Y-112117238D01*
X115990761Y-112022000D01*
X116133619Y-111974380D01*
X116228857Y-111974380D01*
X116371714Y-112022000D01*
X116419333Y-112069619D01*
X116800285Y-112069619D02*
X116847904Y-112022000D01*
X116943142Y-111974380D01*
X117181238Y-111974380D01*
X117276476Y-112022000D01*
X117324095Y-112069619D01*
X117371714Y-112164857D01*
X117371714Y-112260095D01*
X117324095Y-112402952D01*
X116752666Y-112974380D01*
X117371714Y-112974380D01*
X111212380Y-90535333D02*
X111926666Y-90535333D01*
X112069523Y-90582952D01*
X112164761Y-90678190D01*
X112212380Y-90821047D01*
X112212380Y-90916285D01*
X111307619Y-90106761D02*
X111260000Y-90059142D01*
X111212380Y-89963904D01*
X111212380Y-89725809D01*
X111260000Y-89630571D01*
X111307619Y-89582952D01*
X111402857Y-89535333D01*
X111498095Y-89535333D01*
X111640952Y-89582952D01*
X112212380Y-90154380D01*
X112212380Y-89535333D01*
X158297571Y-89638095D02*
X158297571Y-89304761D01*
X158821380Y-89161904D02*
X158821380Y-89638095D01*
X157821380Y-89638095D01*
X157821380Y-89161904D01*
X158821380Y-88733333D02*
X157821380Y-88733333D01*
X158821380Y-88161904D01*
X157821380Y-88161904D01*
X140968404Y-121356380D02*
X140968404Y-120356380D01*
X141206500Y-120356380D01*
X141349357Y-120404000D01*
X141444595Y-120499238D01*
X141492214Y-120594476D01*
X141539833Y-120784952D01*
X141539833Y-120927809D01*
X141492214Y-121118285D01*
X141444595Y-121213523D01*
X141349357Y-121308761D01*
X141206500Y-121356380D01*
X140968404Y-121356380D01*
X142396976Y-120689714D02*
X142396976Y-121356380D01*
X142158880Y-120308761D02*
X141920785Y-121023047D01*
X142539833Y-121023047D01*
X118070333Y-102052380D02*
X117737000Y-101576190D01*
X117498904Y-102052380D02*
X117498904Y-101052380D01*
X117879857Y-101052380D01*
X117975095Y-101100000D01*
X118022714Y-101147619D01*
X118070333Y-101242857D01*
X118070333Y-101385714D01*
X118022714Y-101480952D01*
X117975095Y-101528571D01*
X117879857Y-101576190D01*
X117498904Y-101576190D01*
X118975095Y-101052380D02*
X118498904Y-101052380D01*
X118451285Y-101528571D01*
X118498904Y-101480952D01*
X118594142Y-101433333D01*
X118832238Y-101433333D01*
X118927476Y-101480952D01*
X118975095Y-101528571D01*
X119022714Y-101623809D01*
X119022714Y-101861904D01*
X118975095Y-101957142D01*
X118927476Y-102004761D01*
X118832238Y-102052380D01*
X118594142Y-102052380D01*
X118498904Y-102004761D01*
X118451285Y-101957142D01*
X122078761Y-94527619D02*
X121983523Y-94480000D01*
X121888285Y-94384761D01*
X121745428Y-94241904D01*
X121650190Y-94194285D01*
X121554952Y-94194285D01*
X121602571Y-94432380D02*
X121507333Y-94384761D01*
X121412095Y-94289523D01*
X121364476Y-94099047D01*
X121364476Y-93765714D01*
X121412095Y-93575238D01*
X121507333Y-93480000D01*
X121602571Y-93432380D01*
X121793047Y-93432380D01*
X121888285Y-93480000D01*
X121983523Y-93575238D01*
X122031142Y-93765714D01*
X122031142Y-94099047D01*
X121983523Y-94289523D01*
X121888285Y-94384761D01*
X121793047Y-94432380D01*
X121602571Y-94432380D01*
X122983523Y-94432380D02*
X122412095Y-94432380D01*
X122697809Y-94432380D02*
X122697809Y-93432380D01*
X122602571Y-93575238D01*
X122507333Y-93670476D01*
X122412095Y-93718095D01*
D11*
X125198000Y-100545000D02*
X125198000Y-98845000D01*
X125198000Y-98845000D02*
X122648000Y-98845000D01*
X125198000Y-100545000D02*
X122648000Y-100545000D01*
X115702500Y-94562000D02*
X114902500Y-94562000D01*
X115702500Y-97682000D02*
X114902500Y-97682000D01*
X115702500Y-94562000D02*
X116502500Y-94562000D01*
X115702500Y-97682000D02*
X117502500Y-97682000D01*
X118265641Y-109112000D02*
X117958359Y-109112000D01*
X118265641Y-108352000D02*
X117958359Y-108352000D01*
X115676000Y-110882164D02*
X115676000Y-111097836D01*
X114956000Y-110882164D02*
X114956000Y-111097836D01*
X111508000Y-95928420D02*
X111508000Y-96209580D01*
X110488000Y-95928420D02*
X110488000Y-96209580D01*
X155704000Y-115442420D02*
X155704000Y-115723580D01*
X154684000Y-115442420D02*
X154684000Y-115723580D01*
X110496000Y-109698000D02*
X110496000Y-109278000D01*
X111176000Y-104628000D02*
X111176000Y-104178000D01*
X110496000Y-102178000D02*
X110496000Y-102598000D01*
X108516000Y-102178000D02*
X110496000Y-102178000D01*
X106146000Y-102178000D02*
X106546000Y-102178000D01*
X106546000Y-109698000D02*
X106146000Y-109698000D01*
X108516000Y-109698000D02*
X110496000Y-109698000D01*
X110726000Y-104178000D02*
X111176000Y-104178000D01*
X138984258Y-113298500D02*
X138509742Y-113298500D01*
X138984258Y-112253500D02*
X138509742Y-112253500D01*
X147536000Y-120115000D02*
X149821000Y-120115000D01*
X149821000Y-120115000D02*
X149821000Y-118645000D01*
X149821000Y-118645000D02*
X147536000Y-118645000D01*
X154684000Y-118744420D02*
X154684000Y-119025580D01*
X155704000Y-118744420D02*
X155704000Y-119025580D01*
X116176359Y-101792000D02*
X116483641Y-101792000D01*
X116176359Y-102552000D02*
X116483641Y-102552000D01*
X126746000Y-97870000D02*
X127546000Y-97870000D01*
X126746000Y-97870000D02*
X125946000Y-97870000D01*
X126746000Y-94750000D02*
X127546000Y-94750000D01*
X126746000Y-94750000D02*
X124946000Y-94750000D01*
X113656000Y-104278000D02*
X114156000Y-104278000D01*
X116976000Y-107598000D02*
X116976000Y-107098000D01*
X113656000Y-107598000D02*
X113656000Y-107098000D01*
X116976000Y-104278000D02*
X116976000Y-104778000D01*
X114156000Y-107598000D02*
X113656000Y-107598000D01*
X116476000Y-107598000D02*
X116976000Y-107598000D01*
X116476000Y-104278000D02*
X116976000Y-104278000D01*
X118108000Y-95915420D02*
X118108000Y-96196580D01*
X119128000Y-95915420D02*
X119128000Y-96196580D01*
X130182500Y-95994420D02*
X130182500Y-96275580D01*
X129162500Y-95994420D02*
X129162500Y-96275580D01*
X114406000Y-109104164D02*
X114406000Y-109319836D01*
X113686000Y-109104164D02*
X113686000Y-109319836D01*
X179600000Y-101234000D02*
X179100000Y-100984000D01*
X179100000Y-100984000D02*
X179100000Y-101484000D01*
X179100000Y-101484000D02*
X179600000Y-101234000D01*
X153909500Y-110727258D02*
X153909500Y-110252742D01*
X154954500Y-110727258D02*
X154954500Y-110252742D01*
X149620500Y-117268258D02*
X149620500Y-116793742D01*
X148575500Y-117268258D02*
X148575500Y-116793742D01*
D12*
X125000000Y-81430000D02*
X125000000Y-85430000D01*
X127000000Y-81430000D02*
X125000000Y-81430000D01*
X131350000Y-85430000D02*
X131350000Y-86330000D01*
X122650000Y-85430000D02*
X122650000Y-86330000D01*
X127000000Y-81430000D02*
X127000000Y-85430000D01*
X131350000Y-89830000D02*
X131350000Y-88930000D01*
X131350000Y-85430000D02*
X122650000Y-85430000D01*
X122650000Y-89830000D02*
X122650000Y-88930000D01*
X122650000Y-89830000D02*
X131350000Y-89830000D01*
D11*
X112878359Y-102554000D02*
X113185641Y-102554000D01*
X112878359Y-103314000D02*
X113185641Y-103314000D01*
X123320500Y-95994420D02*
X123320500Y-96275580D01*
X124340500Y-95994420D02*
X124340500Y-96275580D01*
X115490258Y-99074500D02*
X115015742Y-99074500D01*
X115490258Y-98029500D02*
X115015742Y-98029500D01*
X156206000Y-107188000D02*
X156206000Y-121158000D01*
X156206000Y-121158000D02*
X176526000Y-121158000D01*
X176526000Y-104648000D02*
X156206000Y-104648000D01*
X176526000Y-121158000D02*
X176526000Y-104648000D01*
D13*
X156486000Y-105918000D02*
G75*
G03*
X156486000Y-105918000I-280000J0D01*
G01*
D11*
X153926000Y-115429420D02*
X153926000Y-115710580D01*
X152906000Y-115429420D02*
X152906000Y-115710580D01*
X134764000Y-85596000D02*
X134764000Y-92346000D01*
X152764000Y-85596000D02*
X152764000Y-92346000D01*
X134764000Y-85596000D02*
X152764000Y-85596000D01*
X134764000Y-111096000D02*
X135764000Y-111096000D01*
X134764000Y-110346000D02*
X134764000Y-111096000D01*
X152764000Y-110346000D02*
X152764000Y-111096000D01*
X152764000Y-91536000D02*
X134764000Y-91536000D01*
X152764000Y-111096000D02*
X151764000Y-111096000D01*
X120442258Y-99089500D02*
X119967742Y-99089500D01*
X120442258Y-100134500D02*
X119967742Y-100134500D01*
X143016500Y-117268258D02*
X143016500Y-116793742D01*
X141971500Y-117268258D02*
X141971500Y-116793742D01*
X111618000Y-114146000D02*
X113618000Y-114146000D01*
X112918000Y-111026000D02*
X111618000Y-111026000D01*
X132856500Y-96981742D02*
X132856500Y-97456258D01*
X131811500Y-96981742D02*
X131811500Y-97456258D01*
D12*
X157406000Y-94012000D02*
X157406000Y-98012000D01*
X154506000Y-94012000D02*
X154506000Y-98012000D01*
D11*
X156806000Y-96012000D02*
G75*
G03*
X156806000Y-96012000I-850000J0D01*
G01*
X130388000Y-108466000D02*
X130388000Y-109266000D01*
X132988000Y-111866000D02*
X132988000Y-113316000D01*
X122088000Y-109266000D02*
X122088000Y-108466000D01*
X132988000Y-117316000D02*
X132988000Y-119416000D01*
X122088000Y-108466000D02*
X130388000Y-108466000D01*
X119488000Y-113316000D02*
X119488000Y-111866000D01*
X119488000Y-111866000D02*
X122088000Y-109266000D01*
X130388000Y-109266000D02*
X132988000Y-111866000D01*
X119488000Y-117316000D02*
X119488000Y-119416000D01*
X131538000Y-120916000D02*
G75*
G03*
X132988000Y-119366000I-50000J1500000D01*
G01*
X119488000Y-119366000D02*
G75*
G03*
X120938000Y-120916000I1499999J-50001D01*
G01*
X120823385Y-120900160D02*
G75*
G03*
X121738000Y-120516000I124615J984161D01*
G01*
X130738000Y-120516000D02*
G75*
G03*
X131652615Y-120900160I790000J600000D01*
G01*
X112416000Y-109104164D02*
X112416000Y-109319836D01*
X113136000Y-109104164D02*
X113136000Y-109319836D01*
X152906000Y-118744420D02*
X152906000Y-119025580D01*
X153926000Y-118744420D02*
X153926000Y-119025580D01*
X160503000Y-102334000D02*
X176703000Y-102334000D01*
X176703000Y-86134000D02*
X176703000Y-86534000D01*
X160503000Y-86134000D02*
X160503000Y-86484000D01*
X160503000Y-86134000D02*
X176703000Y-86134000D01*
X176703000Y-102334000D02*
X176703000Y-101934000D01*
X160503000Y-101934000D02*
X160503000Y-102334000D01*
X160503000Y-86484000D02*
X159603000Y-86484000D01*
X112041000Y-95281500D02*
X112041000Y-97566500D01*
X112041000Y-97566500D02*
X113511000Y-97566500D01*
X113511000Y-97566500D02*
X113511000Y-95281500D01*
X116946000Y-110882164D02*
X116946000Y-111097836D01*
X116226000Y-110882164D02*
X116226000Y-111097836D01*
X117980000Y-92062000D02*
X117980000Y-93662000D01*
X113540000Y-88102000D02*
X114540000Y-88102000D01*
X117140000Y-88102000D02*
X117140000Y-89702000D01*
X112780000Y-93662000D02*
X113700000Y-93662000D01*
X117700000Y-92062000D02*
X117980000Y-92062000D01*
X113540000Y-89702000D02*
X113540000Y-88102000D01*
X118900000Y-85842000D02*
X112780000Y-85842000D01*
X117980000Y-93662000D02*
X118900000Y-93662000D01*
X115340000Y-90202000D02*
X115340000Y-85842000D01*
X112780000Y-92062000D02*
X113700000Y-92062000D01*
X112780000Y-85842000D02*
X112780000Y-93662000D01*
X113700000Y-92062000D02*
X113980000Y-92062000D01*
X118140000Y-88102000D02*
X117140000Y-88102000D01*
X116340000Y-85842000D02*
X116340000Y-90202000D01*
X113700000Y-93662000D02*
X113700000Y-92062000D01*
X117640000Y-88102000D02*
X117640000Y-85842000D01*
X117140000Y-88102000D02*
X117140000Y-85842000D01*
X114540000Y-89702000D02*
X113540000Y-89702000D01*
X114540000Y-88102000D02*
X114540000Y-89702000D01*
X117700000Y-92062000D02*
X117700000Y-93277000D01*
X116340000Y-90202000D02*
X115340000Y-90202000D01*
X118900000Y-93662000D02*
X118900000Y-85842000D01*
X118900000Y-92062000D02*
X117980000Y-92062000D01*
X118140000Y-89702000D02*
X118140000Y-88102000D01*
X117140000Y-89702000D02*
X118140000Y-89702000D01*
D12*
X154506000Y-90900000D02*
X154506000Y-86900000D01*
X157406000Y-90900000D02*
X157406000Y-86900000D01*
D11*
X156806000Y-88900000D02*
G75*
G03*
X156806000Y-88900000I-850000J0D01*
G01*
X140906500Y-120115000D02*
X143191500Y-120115000D01*
X143191500Y-118645000D02*
X140906500Y-118645000D01*
X143191500Y-120115000D02*
X143191500Y-118645000D01*
X118378500Y-99658258D02*
X118378500Y-99183742D01*
X117333500Y-99658258D02*
X117333500Y-99183742D01*
X119664000Y-96642500D02*
X119664000Y-95992500D01*
X122784000Y-96642500D02*
X122784000Y-97292500D01*
X122784000Y-96642500D02*
X122784000Y-95992500D01*
X119664000Y-96642500D02*
X119664000Y-98317500D01*
%LPC*%
D14*
X124748000Y-99695000D03*
X122648000Y-99695000D03*
D15*
X116840000Y-97072000D03*
X116840000Y-96122000D03*
X116840000Y-95172000D03*
X114565000Y-95172000D03*
X114565000Y-97072000D03*
D16*
X118622000Y-108732000D03*
X117602000Y-108732000D03*
D17*
X115316000Y-110510000D03*
X115316000Y-111470000D03*
D18*
X110998000Y-95294000D03*
X110998000Y-96844000D03*
X155194000Y-114808000D03*
X155194000Y-116358000D03*
D19*
X110236000Y-104638000D03*
X110236000Y-105288000D03*
X110236000Y-105938000D03*
X110236000Y-106588000D03*
X110236000Y-107238000D03*
D20*
X107536000Y-102438000D03*
D21*
X107536000Y-104938000D03*
D22*
X107536000Y-108838000D03*
D23*
X110236000Y-108438000D03*
D21*
X107536000Y-106938000D03*
D23*
X110236000Y-103438000D03*
D22*
X107536000Y-103038000D03*
D20*
X107536000Y-109438000D03*
D24*
X139572000Y-112776000D03*
X137922000Y-112776000D03*
D25*
X149123500Y-119380000D03*
X147548500Y-119380000D03*
D18*
X155194000Y-118110000D03*
X155194000Y-119660000D03*
D26*
X115820000Y-102172000D03*
X116840000Y-102172000D03*
D27*
X125608500Y-95360000D03*
X125608500Y-96310000D03*
X125608500Y-97260000D03*
X127883500Y-97260000D03*
X127883500Y-95360000D03*
D28*
X114066000Y-104688000D03*
D29*
X113766000Y-105188000D03*
X113766000Y-105688000D03*
X113766000Y-106188000D03*
X113766000Y-106688000D03*
D28*
X114066000Y-107188000D03*
D30*
X114566000Y-107488000D03*
X115066000Y-107488000D03*
X115566000Y-107488000D03*
X116066000Y-107488000D03*
D28*
X116566000Y-107188000D03*
D29*
X116866000Y-106688000D03*
X116866000Y-106188000D03*
X116866000Y-105688000D03*
X116866000Y-105188000D03*
D28*
X116566000Y-104688000D03*
D30*
X116066000Y-104388000D03*
X115566000Y-104388000D03*
X115066000Y-104388000D03*
X114566000Y-104388000D03*
D31*
X115316000Y-105938000D03*
D18*
X118618000Y-95281000D03*
X118618000Y-96831000D03*
X129672500Y-95360000D03*
X129672500Y-96910000D03*
D17*
X114046000Y-108732000D03*
X114046000Y-109692000D03*
D32*
X182000000Y-101234000D03*
D33*
X182000000Y-97741500D03*
X182000000Y-104726500D03*
D34*
X154432000Y-111315000D03*
X154432000Y-109665000D03*
X149098000Y-117856000D03*
X149098000Y-116206000D03*
D35*
X125000000Y-87630000D03*
X127000000Y-87630000D03*
X129000000Y-87630000D03*
D36*
X131150000Y-87630000D03*
X122850000Y-87630000D03*
D26*
X112522000Y-102934000D03*
X113542000Y-102934000D03*
D18*
X123830500Y-95360000D03*
X123830500Y-96910000D03*
D24*
X116078000Y-98552000D03*
X114428000Y-98552000D03*
D37*
X158616000Y-107158000D03*
X158616000Y-109698000D03*
X158616000Y-112238000D03*
X158616000Y-114778000D03*
X158616000Y-117318000D03*
X158616000Y-119858000D03*
X174116000Y-119888000D03*
X174116000Y-117348000D03*
X174116000Y-114808000D03*
X174116000Y-112268000D03*
X174116000Y-109728000D03*
X174116000Y-107188000D03*
D18*
X153416000Y-114795000D03*
X153416000Y-116345000D03*
D38*
X135014000Y-93086000D03*
X135014000Y-94356000D03*
X135014000Y-95626000D03*
X135014000Y-96896000D03*
X135014000Y-98166000D03*
X135014000Y-99436000D03*
X135014000Y-100706000D03*
X135014000Y-101976000D03*
X135014000Y-103246000D03*
X135014000Y-104516000D03*
X135014000Y-105786000D03*
X135014000Y-107056000D03*
X135014000Y-108326000D03*
X135014000Y-109596000D03*
D39*
X136779000Y-110846000D03*
X138049000Y-110846000D03*
X139319000Y-110846000D03*
X140589000Y-110846000D03*
X141859000Y-110846000D03*
X143129000Y-110846000D03*
X144399000Y-110846000D03*
X145669000Y-110846000D03*
X146939000Y-110846000D03*
X148209000Y-110846000D03*
X149479000Y-110846000D03*
X150749000Y-110846000D03*
D38*
X152514000Y-109596000D03*
X152514000Y-108326000D03*
X152514000Y-107056000D03*
X152514000Y-105786000D03*
X152514000Y-104516000D03*
X152514000Y-103246000D03*
X152514000Y-101976000D03*
X152514000Y-100706000D03*
X152514000Y-99436000D03*
X152514000Y-98166000D03*
X152514000Y-96896000D03*
X152514000Y-95626000D03*
X152514000Y-94356000D03*
X152514000Y-93086000D03*
D40*
X143664000Y-102206000D03*
X142264000Y-99406000D03*
X140864000Y-102206000D03*
X142264000Y-102206000D03*
X142264000Y-100806000D03*
X140864000Y-99406000D03*
X143664000Y-100806000D03*
X143664000Y-99406000D03*
X140864000Y-100806000D03*
D24*
X121030000Y-99612000D03*
X119380000Y-99612000D03*
D34*
X142494000Y-117856000D03*
X142494000Y-116206000D03*
D41*
X113268000Y-113336000D03*
D42*
X113268000Y-111636000D03*
X111268000Y-111636000D03*
X111268000Y-113536000D03*
D43*
X132334000Y-96394000D03*
X132334000Y-98044000D03*
D44*
X155956000Y-93762000D03*
X155956000Y-98262000D03*
D45*
X118338000Y-115316000D03*
X134138000Y-115316000D03*
D46*
X126238000Y-115316000D03*
D17*
X112776000Y-108732000D03*
X112776000Y-109692000D03*
D18*
X153416000Y-118110000D03*
X153416000Y-119660000D03*
D47*
X160603000Y-87234000D03*
X160603000Y-89234000D03*
X160603000Y-91234000D03*
X160603000Y-93234000D03*
X160603000Y-95234000D03*
X160603000Y-97234000D03*
X160603000Y-99234000D03*
X160603000Y-101234000D03*
X176603000Y-101234000D03*
X176603000Y-99234000D03*
X176603000Y-97234000D03*
X176603000Y-95234000D03*
X176603000Y-93234000D03*
X176603000Y-91234000D03*
X176603000Y-89234000D03*
X176603000Y-87234000D03*
D48*
X112776000Y-96869000D03*
X112776000Y-95294000D03*
D17*
X116586000Y-110510000D03*
X116586000Y-111470000D03*
D49*
X116840000Y-92202000D03*
D50*
X114840000Y-92202000D03*
D44*
X155956000Y-91150000D03*
X155956000Y-86650000D03*
D25*
X142494000Y-119380000D03*
X140919000Y-119380000D03*
D34*
X117856000Y-100246000D03*
X117856000Y-98596000D03*
D51*
X120274000Y-97580000D03*
X122174000Y-97580000D03*
X121224000Y-95705000D03*
M02*
