%TF.GenerationSoftware,KiCad,Pcbnew,(6.0.7)*%
%TF.CreationDate,2022-10-05T21:11:50-04:00*%
%TF.ProjectId,Dogometer_v1,446f676f-6d65-4746-9572-5f76312e6b69,rev?*%
%TF.SameCoordinates,Original*%
%TF.FileFunction,Drillmap*%
%TF.FilePolarity,Positive*%
%FSLAX45Y45*%
G04 Gerber Fmt 4.5, Leading zero omitted, Abs format (unit mm)*
G04 Created by KiCad (PCBNEW (6.0.7)) date 2022-10-05 21:11:50*
%MOMM*%
%LPD*%
G01*
G04 APERTURE LIST*
%ADD10C,0.100000*%
%ADD11C,0.200000*%
%ADD12C,0.040000*%
%ADD13C,0.046000*%
%ADD14C,0.050000*%
%ADD15C,0.055000*%
%ADD16C,0.075000*%
%ADD17C,0.080000*%
%ADD18C,0.090000*%
%ADD19C,0.300000*%
G04 APERTURE END LIST*
D10*
X10610000Y-8500000D02*
X18410000Y-8500000D01*
X18410000Y-8500000D02*
X18410000Y-12200000D01*
X18410000Y-12200000D02*
X10610000Y-12200000D01*
X10610000Y-12200000D02*
X10610000Y-8500000D01*
D11*
D12*
X10775000Y-9251000D02*
X10815000Y-9291000D01*
X10815000Y-9251000D02*
X10775000Y-9291000D01*
X10978200Y-11333800D02*
X11018200Y-11373800D01*
X11018200Y-11333800D02*
X10978200Y-11373800D01*
X11121868Y-9813308D02*
X11161868Y-9853308D01*
X11161868Y-9813308D02*
X11121868Y-9853308D01*
X11197300Y-10409900D02*
X11237300Y-10449900D01*
X11237300Y-10409900D02*
X11197300Y-10449900D01*
X11206800Y-10673400D02*
X11246800Y-10713400D01*
X11246800Y-10673400D02*
X11206800Y-10713400D01*
X11257600Y-9784400D02*
X11297600Y-9824400D01*
X11297600Y-9784400D02*
X11257600Y-9824400D01*
X11308400Y-9987600D02*
X11348400Y-10027600D01*
X11348400Y-9987600D02*
X11308400Y-10027600D01*
X11435400Y-10197200D02*
X11475400Y-10237200D01*
X11475400Y-10197200D02*
X11435400Y-10237200D01*
X11486200Y-11257600D02*
X11526200Y-11297600D01*
X11526200Y-11257600D02*
X11486200Y-11297600D01*
X11520634Y-9593376D02*
X11560634Y-9633376D01*
X11560634Y-9593376D02*
X11520634Y-9633376D01*
X11537000Y-11918000D02*
X11577000Y-11958000D01*
X11577000Y-11918000D02*
X11537000Y-11958000D01*
X11638600Y-10929400D02*
X11678600Y-10969400D01*
X11678600Y-10929400D02*
X11638600Y-10969400D01*
X11791000Y-10698800D02*
X11831000Y-10738800D01*
X11831000Y-10698800D02*
X11791000Y-10738800D01*
X11841800Y-10419400D02*
X11881800Y-10459400D01*
X11881800Y-10419400D02*
X11841800Y-10459400D01*
X11841800Y-10546400D02*
X11881800Y-10586400D01*
X11881800Y-10546400D02*
X11841800Y-10586400D01*
X11892600Y-9784400D02*
X11932600Y-9824400D01*
X11932600Y-9784400D02*
X11892600Y-9824400D01*
X12527600Y-10089200D02*
X12567600Y-10129200D01*
X12567600Y-10089200D02*
X12527600Y-10129200D01*
X12578400Y-9860600D02*
X12618400Y-9900600D01*
X12618400Y-9860600D02*
X12578400Y-9900600D01*
X12959400Y-10038400D02*
X12999400Y-10078400D01*
X12999400Y-10038400D02*
X12959400Y-10078400D01*
X12984800Y-10165400D02*
X13024800Y-10205400D01*
X13024800Y-10165400D02*
X12984800Y-10205400D01*
X13061000Y-9124000D02*
X13101000Y-9164000D01*
X13101000Y-9124000D02*
X13061000Y-9164000D01*
X13213400Y-10317800D02*
X13253400Y-10357800D01*
X13253400Y-10317800D02*
X13213400Y-10357800D01*
X13315000Y-10190800D02*
X13355000Y-10230800D01*
X13355000Y-10190800D02*
X13315000Y-10230800D01*
X13569000Y-11918000D02*
X13609000Y-11958000D01*
X13609000Y-11918000D02*
X13569000Y-11958000D01*
X13696000Y-10419400D02*
X13736000Y-10459400D01*
X13736000Y-10419400D02*
X13696000Y-10459400D01*
X13696000Y-10546400D02*
X13736000Y-10586400D01*
X13736000Y-10546400D02*
X13696000Y-10586400D01*
X13823000Y-10775000D02*
X13863000Y-10815000D01*
X13863000Y-10775000D02*
X13823000Y-10815000D01*
X13924600Y-10876600D02*
X13964600Y-10916600D01*
X13964600Y-10876600D02*
X13924600Y-10916600D01*
X13924600Y-11791000D02*
X13964600Y-11831000D01*
X13964600Y-11791000D02*
X13924600Y-11831000D01*
X14204000Y-10775000D02*
X14244000Y-10815000D01*
X14244000Y-10775000D02*
X14204000Y-10815000D01*
X14483400Y-9530400D02*
X14523400Y-9570400D01*
X14523400Y-9530400D02*
X14483400Y-9570400D01*
X14585000Y-10140000D02*
X14625000Y-10180000D01*
X14625000Y-10140000D02*
X14585000Y-10180000D01*
X14585000Y-10775000D02*
X14625000Y-10815000D01*
X14625000Y-10775000D02*
X14585000Y-10815000D01*
X14585000Y-11791000D02*
X14625000Y-11831000D01*
X14625000Y-11791000D02*
X14585000Y-11831000D01*
X14610400Y-9657400D02*
X14650400Y-9697400D01*
X14650400Y-9657400D02*
X14610400Y-9697400D01*
X14813600Y-10876600D02*
X14853600Y-10916600D01*
X14853600Y-10876600D02*
X14813600Y-10916600D01*
X14864400Y-9403400D02*
X14904400Y-9443400D01*
X14904400Y-9403400D02*
X14864400Y-9443400D01*
X14889800Y-9911400D02*
X14929800Y-9951400D01*
X14929800Y-9911400D02*
X14889800Y-9951400D01*
X14889800Y-10241600D02*
X14929800Y-10281600D01*
X14929800Y-10241600D02*
X14889800Y-10281600D01*
X14966000Y-9555800D02*
X15006000Y-9595800D01*
X15006000Y-9555800D02*
X14966000Y-9595800D01*
X15004100Y-10152700D02*
X15044100Y-10192700D01*
X15044100Y-10152700D02*
X15004100Y-10192700D01*
X15016800Y-10876600D02*
X15056800Y-10916600D01*
X15056800Y-10876600D02*
X15016800Y-10916600D01*
X15042200Y-9809800D02*
X15082200Y-9849800D01*
X15082200Y-9809800D02*
X15042200Y-9849800D01*
X15067600Y-10317800D02*
X15107600Y-10357800D01*
X15107600Y-10317800D02*
X15067600Y-10357800D01*
X15093000Y-11918000D02*
X15133000Y-11958000D01*
X15133000Y-11918000D02*
X15093000Y-11958000D01*
X15245400Y-11308400D02*
X15285400Y-11348400D01*
X15285400Y-11308400D02*
X15245400Y-11348400D01*
X15397800Y-9098600D02*
X15437800Y-9138600D01*
X15437800Y-9098600D02*
X15397800Y-9138600D01*
X15448600Y-10775000D02*
X15488600Y-10815000D01*
X15488600Y-10775000D02*
X15448600Y-10815000D01*
X15474000Y-10495600D02*
X15514000Y-10535600D01*
X15514000Y-10495600D02*
X15474000Y-10535600D01*
X15499400Y-10673400D02*
X15539400Y-10713400D01*
X15539400Y-10673400D02*
X15499400Y-10713400D01*
X15575600Y-9987600D02*
X15615600Y-10027600D01*
X15615600Y-9987600D02*
X15575600Y-10027600D01*
X15728000Y-10394000D02*
X15768000Y-10434000D01*
X15768000Y-10394000D02*
X15728000Y-10434000D01*
X15855000Y-9098600D02*
X15895000Y-9138600D01*
X15895000Y-9098600D02*
X15855000Y-9138600D01*
X15855000Y-9301800D02*
X15895000Y-9341800D01*
X15895000Y-9301800D02*
X15855000Y-9341800D01*
X15855000Y-9505000D02*
X15895000Y-9545000D01*
X15895000Y-9505000D02*
X15855000Y-9545000D01*
X15855000Y-9708200D02*
X15895000Y-9748200D01*
X15895000Y-9708200D02*
X15855000Y-9748200D01*
X16236000Y-8870000D02*
X16276000Y-8910000D01*
X16276000Y-8870000D02*
X16236000Y-8910000D01*
X16236000Y-9378000D02*
X16276000Y-9418000D01*
X16276000Y-9378000D02*
X16236000Y-9418000D01*
X16236000Y-9886000D02*
X16276000Y-9926000D01*
X16276000Y-9886000D02*
X16236000Y-9926000D01*
X16236000Y-10394000D02*
X16276000Y-10434000D01*
X16276000Y-10394000D02*
X16236000Y-10434000D01*
X16236000Y-10648000D02*
X16276000Y-10688000D01*
X16276000Y-10648000D02*
X16236000Y-10688000D01*
X16236000Y-10902000D02*
X16276000Y-10942000D01*
X16276000Y-10902000D02*
X16236000Y-10942000D01*
X16236000Y-11156000D02*
X16276000Y-11196000D01*
X16276000Y-11156000D02*
X16236000Y-11196000D01*
X16236000Y-11410000D02*
X16276000Y-11450000D01*
X16276000Y-11410000D02*
X16236000Y-11450000D01*
X16236000Y-11664000D02*
X16276000Y-11704000D01*
X16276000Y-11664000D02*
X16236000Y-11704000D01*
X16236000Y-11918000D02*
X16276000Y-11958000D01*
X16276000Y-11918000D02*
X16236000Y-11958000D01*
X16616600Y-11156000D02*
X16656600Y-11196000D01*
X16656600Y-11156000D02*
X16616600Y-11196000D01*
X16616600Y-11410000D02*
X16656600Y-11450000D01*
X16656600Y-11410000D02*
X16616600Y-11450000D01*
X16617000Y-10394000D02*
X16657000Y-10434000D01*
X16657000Y-10394000D02*
X16617000Y-10434000D01*
X16617000Y-10648000D02*
X16657000Y-10688000D01*
X16657000Y-10648000D02*
X16617000Y-10688000D01*
X16617000Y-10902000D02*
X16657000Y-10942000D01*
X16657000Y-10902000D02*
X16617000Y-10942000D01*
X16617000Y-11664000D02*
X16657000Y-11704000D01*
X16657000Y-11664000D02*
X16617000Y-11704000D01*
X16617000Y-11918000D02*
X16657000Y-11958000D01*
X16657000Y-11918000D02*
X16617000Y-11958000D01*
X16744000Y-8870000D02*
X16784000Y-8910000D01*
X16784000Y-8870000D02*
X16744000Y-8910000D01*
X16744000Y-9378000D02*
X16784000Y-9418000D01*
X16784000Y-9378000D02*
X16744000Y-9418000D01*
X16744000Y-9886000D02*
X16784000Y-9926000D01*
X16784000Y-9886000D02*
X16744000Y-9926000D01*
X16998000Y-10394000D02*
X17038000Y-10434000D01*
X17038000Y-10394000D02*
X16998000Y-10434000D01*
X16998000Y-10648000D02*
X17038000Y-10688000D01*
X17038000Y-10648000D02*
X16998000Y-10688000D01*
X16998000Y-10902000D02*
X17038000Y-10942000D01*
X17038000Y-10902000D02*
X16998000Y-10942000D01*
X16998000Y-11156000D02*
X17038000Y-11196000D01*
X17038000Y-11156000D02*
X16998000Y-11196000D01*
X16998000Y-11410000D02*
X17038000Y-11450000D01*
X17038000Y-11410000D02*
X16998000Y-11450000D01*
X16998000Y-11664000D02*
X17038000Y-11704000D01*
X17038000Y-11664000D02*
X16998000Y-11704000D01*
X16998000Y-11918000D02*
X17038000Y-11958000D01*
X17038000Y-11918000D02*
X16998000Y-11958000D01*
X17252000Y-8870000D02*
X17292000Y-8910000D01*
X17292000Y-8870000D02*
X17252000Y-8910000D01*
X17252000Y-9378000D02*
X17292000Y-9418000D01*
X17292000Y-9378000D02*
X17252000Y-9418000D01*
X17252000Y-9886000D02*
X17292000Y-9926000D01*
X17292000Y-9886000D02*
X17252000Y-9926000D01*
X17506000Y-10394000D02*
X17546000Y-10434000D01*
X17546000Y-10394000D02*
X17506000Y-10434000D01*
X17760000Y-10648000D02*
X17800000Y-10688000D01*
X17800000Y-10648000D02*
X17760000Y-10688000D01*
X17760000Y-10902000D02*
X17800000Y-10942000D01*
X17800000Y-10902000D02*
X17760000Y-10942000D01*
X17760000Y-11156000D02*
X17800000Y-11196000D01*
X17800000Y-11156000D02*
X17760000Y-11196000D01*
X17760000Y-11410000D02*
X17800000Y-11450000D01*
X17800000Y-11410000D02*
X17760000Y-11450000D01*
X17760000Y-11664000D02*
X17800000Y-11704000D01*
X17800000Y-11664000D02*
X17760000Y-11704000D01*
X17810800Y-9301800D02*
X17850800Y-9341800D01*
X17850800Y-9301800D02*
X17810800Y-9341800D01*
X18141000Y-9251000D02*
X18181000Y-9291000D01*
X18181000Y-9251000D02*
X18141000Y-9291000D01*
X18141000Y-11156000D02*
X18181000Y-11196000D01*
X18181000Y-11156000D02*
X18141000Y-11196000D01*
D13*
X17924500Y-9774150D02*
G75*
G03*
X17924500Y-9774150I-23000J0D01*
G01*
X17924500Y-10472650D02*
G75*
G03*
X17924500Y-10472650I-23000J0D01*
G01*
D14*
X10753600Y-10218800D02*
X10753600Y-10268800D01*
X10728600Y-10243800D02*
X10778600Y-10243800D01*
D11*
X10786100Y-10218800D02*
X10721100Y-10218800D01*
X10786100Y-10268800D02*
X10721100Y-10268800D01*
X10721100Y-10218800D02*
G75*
G03*
X10721100Y-10268800I0J-25000D01*
G01*
X10786100Y-10268800D02*
G75*
G03*
X10786100Y-10218800I0J25000D01*
G01*
D14*
X10753600Y-10918800D02*
X10753600Y-10968800D01*
X10728600Y-10943800D02*
X10778600Y-10943800D01*
D11*
X10786100Y-10918800D02*
X10721100Y-10918800D01*
X10786100Y-10968800D02*
X10721100Y-10968800D01*
X10721100Y-10918800D02*
G75*
G03*
X10721100Y-10968800I0J-25000D01*
G01*
X10786100Y-10968800D02*
G75*
G03*
X10786100Y-10918800I0J25000D01*
G01*
D15*
X11043046Y-10363246D02*
X11043046Y-10324354D01*
X11004154Y-10324354D01*
X11004154Y-10363246D01*
X11043046Y-10363246D01*
D11*
X10996100Y-10328800D02*
X10996100Y-10358800D01*
X11051100Y-10328800D02*
X11051100Y-10358800D01*
X10996100Y-10358800D02*
G75*
G03*
X11051100Y-10358800I27500J0D01*
G01*
X11051100Y-10328800D02*
G75*
G03*
X10996100Y-10328800I-27500J0D01*
G01*
D15*
X11043046Y-10863246D02*
X11043046Y-10824354D01*
X11004154Y-10824354D01*
X11004154Y-10863246D01*
X11043046Y-10863246D01*
D11*
X10996100Y-10828800D02*
X10996100Y-10858800D01*
X11051100Y-10828800D02*
X11051100Y-10858800D01*
X10996100Y-10858800D02*
G75*
G03*
X11051100Y-10858800I27500J0D01*
G01*
X11051100Y-10828800D02*
G75*
G03*
X10996100Y-10828800I-27500J0D01*
G01*
D16*
X11484000Y-9257700D02*
X11521500Y-9220200D01*
X11484000Y-9182700D01*
X11446500Y-9220200D01*
X11484000Y-9257700D01*
X11684000Y-9257700D02*
X11721500Y-9220200D01*
X11684000Y-9182700D01*
X11646500Y-9220200D01*
X11684000Y-9257700D01*
D17*
X12245000Y-8723000D02*
X12325000Y-8803000D01*
X12325000Y-8723000D02*
X12245000Y-8803000D01*
X12325000Y-8763000D02*
G75*
G03*
X12325000Y-8763000I-40000J0D01*
G01*
D11*
X12245000Y-8723000D02*
X12245000Y-8803000D01*
X12325000Y-8723000D02*
X12325000Y-8803000D01*
X12245000Y-8803000D02*
G75*
G03*
X12325000Y-8803000I40000J0D01*
G01*
X12325000Y-8723000D02*
G75*
G03*
X12245000Y-8723000I-40000J0D01*
G01*
D17*
X13075000Y-8723000D02*
X13155000Y-8803000D01*
X13155000Y-8723000D02*
X13075000Y-8803000D01*
X13155000Y-8763000D02*
G75*
G03*
X13155000Y-8763000I-40000J0D01*
G01*
D11*
X13075000Y-8723000D02*
X13075000Y-8803000D01*
X13155000Y-8723000D02*
X13155000Y-8803000D01*
X13075000Y-8803000D02*
G75*
G03*
X13155000Y-8803000I40000J0D01*
G01*
X13155000Y-8723000D02*
G75*
G03*
X13075000Y-8723000I-40000J0D01*
G01*
D18*
X12455000Y-8718000D02*
X12545000Y-8808000D01*
X12545000Y-8718000D02*
X12455000Y-8808000D01*
X12500000Y-8718000D02*
X12500000Y-8808000D01*
X12455000Y-8763000D02*
X12545000Y-8763000D01*
X12655000Y-8718000D02*
X12745000Y-8808000D01*
X12745000Y-8718000D02*
X12655000Y-8808000D01*
X12700000Y-8718000D02*
X12700000Y-8808000D01*
X12655000Y-8763000D02*
X12745000Y-8763000D01*
X12855000Y-8718000D02*
X12945000Y-8808000D01*
X12945000Y-8718000D02*
X12855000Y-8808000D01*
X12900000Y-8718000D02*
X12900000Y-8808000D01*
X12855000Y-8763000D02*
X12945000Y-8763000D01*
D19*
X10760000Y-8650000D02*
X11060000Y-8950000D01*
X11060000Y-8650000D02*
X10760000Y-8950000D01*
X11016067Y-8906067D02*
X11016067Y-8693933D01*
X10803933Y-8693933D01*
X10803933Y-8906067D01*
X11016067Y-8906067D01*
X10760000Y-11750000D02*
X11060000Y-12050000D01*
X11060000Y-11750000D02*
X10760000Y-12050000D01*
X11016067Y-12006067D02*
X11016067Y-11793933D01*
X10803933Y-11793933D01*
X10803933Y-12006067D01*
X11016067Y-12006067D01*
X17960000Y-8650000D02*
X18260000Y-8950000D01*
X18260000Y-8650000D02*
X17960000Y-8950000D01*
X18216067Y-8906067D02*
X18216067Y-8693933D01*
X18003933Y-8693933D01*
X18003933Y-8906067D01*
X18216067Y-8906067D01*
X17960000Y-11750000D02*
X18260000Y-12050000D01*
X18260000Y-11750000D02*
X17960000Y-12050000D01*
X18216067Y-12006067D02*
X18216067Y-11793933D01*
X18003933Y-11793933D01*
X18003933Y-12006067D01*
X18216067Y-12006067D01*
D11*
X10862619Y-12515476D02*
X10862619Y-12315476D01*
X10910238Y-12315476D01*
X10938810Y-12325000D01*
X10957857Y-12344048D01*
X10967381Y-12363095D01*
X10976905Y-12401190D01*
X10976905Y-12429762D01*
X10967381Y-12467857D01*
X10957857Y-12486905D01*
X10938810Y-12505952D01*
X10910238Y-12515476D01*
X10862619Y-12515476D01*
X11062619Y-12515476D02*
X11062619Y-12382143D01*
X11062619Y-12420238D02*
X11072143Y-12401190D01*
X11081667Y-12391667D01*
X11100714Y-12382143D01*
X11119762Y-12382143D01*
X11186428Y-12515476D02*
X11186428Y-12382143D01*
X11186428Y-12315476D02*
X11176905Y-12325000D01*
X11186428Y-12334524D01*
X11195952Y-12325000D01*
X11186428Y-12315476D01*
X11186428Y-12334524D01*
X11310238Y-12515476D02*
X11291190Y-12505952D01*
X11281667Y-12486905D01*
X11281667Y-12315476D01*
X11415000Y-12515476D02*
X11395952Y-12505952D01*
X11386428Y-12486905D01*
X11386428Y-12315476D01*
X11643571Y-12515476D02*
X11643571Y-12315476D01*
X11710238Y-12458333D01*
X11776905Y-12315476D01*
X11776905Y-12515476D01*
X11957857Y-12515476D02*
X11957857Y-12410714D01*
X11948333Y-12391667D01*
X11929286Y-12382143D01*
X11891190Y-12382143D01*
X11872143Y-12391667D01*
X11957857Y-12505952D02*
X11938809Y-12515476D01*
X11891190Y-12515476D01*
X11872143Y-12505952D01*
X11862619Y-12486905D01*
X11862619Y-12467857D01*
X11872143Y-12448809D01*
X11891190Y-12439286D01*
X11938809Y-12439286D01*
X11957857Y-12429762D01*
X12053095Y-12382143D02*
X12053095Y-12582143D01*
X12053095Y-12391667D02*
X12072143Y-12382143D01*
X12110238Y-12382143D01*
X12129286Y-12391667D01*
X12138809Y-12401190D01*
X12148333Y-12420238D01*
X12148333Y-12477381D01*
X12138809Y-12496428D01*
X12129286Y-12505952D01*
X12110238Y-12515476D01*
X12072143Y-12515476D01*
X12053095Y-12505952D01*
X12234048Y-12496428D02*
X12243571Y-12505952D01*
X12234048Y-12515476D01*
X12224524Y-12505952D01*
X12234048Y-12496428D01*
X12234048Y-12515476D01*
X12234048Y-12391667D02*
X12243571Y-12401190D01*
X12234048Y-12410714D01*
X12224524Y-12401190D01*
X12234048Y-12391667D01*
X12234048Y-12410714D01*
D12*
X10565000Y-12825000D02*
X10605000Y-12865000D01*
X10605000Y-12825000D02*
X10565000Y-12865000D01*
D11*
X10900714Y-12735476D02*
X10919762Y-12735476D01*
X10938810Y-12745000D01*
X10948333Y-12754524D01*
X10957857Y-12773571D01*
X10967381Y-12811667D01*
X10967381Y-12859286D01*
X10957857Y-12897381D01*
X10948333Y-12916428D01*
X10938810Y-12925952D01*
X10919762Y-12935476D01*
X10900714Y-12935476D01*
X10881667Y-12925952D01*
X10872143Y-12916428D01*
X10862619Y-12897381D01*
X10853095Y-12859286D01*
X10853095Y-12811667D01*
X10862619Y-12773571D01*
X10872143Y-12754524D01*
X10881667Y-12745000D01*
X10900714Y-12735476D01*
X11053095Y-12916428D02*
X11062619Y-12925952D01*
X11053095Y-12935476D01*
X11043571Y-12925952D01*
X11053095Y-12916428D01*
X11053095Y-12935476D01*
X11234048Y-12802143D02*
X11234048Y-12935476D01*
X11186428Y-12725952D02*
X11138810Y-12868809D01*
X11262619Y-12868809D01*
X11376905Y-12735476D02*
X11395952Y-12735476D01*
X11415000Y-12745000D01*
X11424524Y-12754524D01*
X11434048Y-12773571D01*
X11443571Y-12811667D01*
X11443571Y-12859286D01*
X11434048Y-12897381D01*
X11424524Y-12916428D01*
X11415000Y-12925952D01*
X11395952Y-12935476D01*
X11376905Y-12935476D01*
X11357857Y-12925952D01*
X11348333Y-12916428D01*
X11338809Y-12897381D01*
X11329286Y-12859286D01*
X11329286Y-12811667D01*
X11338809Y-12773571D01*
X11348333Y-12754524D01*
X11357857Y-12745000D01*
X11376905Y-12735476D01*
X11567381Y-12735476D02*
X11586428Y-12735476D01*
X11605476Y-12745000D01*
X11615000Y-12754524D01*
X11624524Y-12773571D01*
X11634048Y-12811667D01*
X11634048Y-12859286D01*
X11624524Y-12897381D01*
X11615000Y-12916428D01*
X11605476Y-12925952D01*
X11586428Y-12935476D01*
X11567381Y-12935476D01*
X11548333Y-12925952D01*
X11538809Y-12916428D01*
X11529286Y-12897381D01*
X11519762Y-12859286D01*
X11519762Y-12811667D01*
X11529286Y-12773571D01*
X11538809Y-12754524D01*
X11548333Y-12745000D01*
X11567381Y-12735476D01*
X11719762Y-12935476D02*
X11719762Y-12802143D01*
X11719762Y-12821190D02*
X11729286Y-12811667D01*
X11748333Y-12802143D01*
X11776905Y-12802143D01*
X11795952Y-12811667D01*
X11805476Y-12830714D01*
X11805476Y-12935476D01*
X11805476Y-12830714D02*
X11815000Y-12811667D01*
X11834048Y-12802143D01*
X11862619Y-12802143D01*
X11881667Y-12811667D01*
X11891190Y-12830714D01*
X11891190Y-12935476D01*
X11986428Y-12935476D02*
X11986428Y-12802143D01*
X11986428Y-12821190D02*
X11995952Y-12811667D01*
X12015000Y-12802143D01*
X12043571Y-12802143D01*
X12062619Y-12811667D01*
X12072143Y-12830714D01*
X12072143Y-12935476D01*
X12072143Y-12830714D02*
X12081667Y-12811667D01*
X12100714Y-12802143D01*
X12129286Y-12802143D01*
X12148333Y-12811667D01*
X12157857Y-12830714D01*
X12157857Y-12935476D01*
X12548333Y-12725952D02*
X12376905Y-12983095D01*
X12805476Y-12735476D02*
X12824524Y-12735476D01*
X12843571Y-12745000D01*
X12853095Y-12754524D01*
X12862619Y-12773571D01*
X12872143Y-12811667D01*
X12872143Y-12859286D01*
X12862619Y-12897381D01*
X12853095Y-12916428D01*
X12843571Y-12925952D01*
X12824524Y-12935476D01*
X12805476Y-12935476D01*
X12786428Y-12925952D01*
X12776905Y-12916428D01*
X12767381Y-12897381D01*
X12757857Y-12859286D01*
X12757857Y-12811667D01*
X12767381Y-12773571D01*
X12776905Y-12754524D01*
X12786428Y-12745000D01*
X12805476Y-12735476D01*
X12957857Y-12916428D02*
X12967381Y-12925952D01*
X12957857Y-12935476D01*
X12948333Y-12925952D01*
X12957857Y-12916428D01*
X12957857Y-12935476D01*
X13091190Y-12735476D02*
X13110238Y-12735476D01*
X13129286Y-12745000D01*
X13138809Y-12754524D01*
X13148333Y-12773571D01*
X13157857Y-12811667D01*
X13157857Y-12859286D01*
X13148333Y-12897381D01*
X13138809Y-12916428D01*
X13129286Y-12925952D01*
X13110238Y-12935476D01*
X13091190Y-12935476D01*
X13072143Y-12925952D01*
X13062619Y-12916428D01*
X13053095Y-12897381D01*
X13043571Y-12859286D01*
X13043571Y-12811667D01*
X13053095Y-12773571D01*
X13062619Y-12754524D01*
X13072143Y-12745000D01*
X13091190Y-12735476D01*
X13348333Y-12935476D02*
X13234048Y-12935476D01*
X13291190Y-12935476D02*
X13291190Y-12735476D01*
X13272143Y-12764048D01*
X13253095Y-12783095D01*
X13234048Y-12792619D01*
X13529286Y-12735476D02*
X13434048Y-12735476D01*
X13424524Y-12830714D01*
X13434048Y-12821190D01*
X13453095Y-12811667D01*
X13500714Y-12811667D01*
X13519762Y-12821190D01*
X13529286Y-12830714D01*
X13538809Y-12849762D01*
X13538809Y-12897381D01*
X13529286Y-12916428D01*
X13519762Y-12925952D01*
X13500714Y-12935476D01*
X13453095Y-12935476D01*
X13434048Y-12925952D01*
X13424524Y-12916428D01*
X13605476Y-12735476D02*
X13738809Y-12735476D01*
X13653095Y-12935476D01*
X13805476Y-12735476D02*
X13805476Y-12773571D01*
X13881667Y-12735476D02*
X13881667Y-12773571D01*
X14176905Y-13011667D02*
X14167381Y-13002143D01*
X14148333Y-12973571D01*
X14138809Y-12954524D01*
X14129286Y-12925952D01*
X14119762Y-12878333D01*
X14119762Y-12840238D01*
X14129286Y-12792619D01*
X14138809Y-12764048D01*
X14148333Y-12745000D01*
X14167381Y-12716428D01*
X14176905Y-12706905D01*
X14262619Y-12935476D02*
X14300714Y-12935476D01*
X14319762Y-12925952D01*
X14329286Y-12916428D01*
X14348333Y-12887857D01*
X14357857Y-12849762D01*
X14357857Y-12773571D01*
X14348333Y-12754524D01*
X14338809Y-12745000D01*
X14319762Y-12735476D01*
X14281667Y-12735476D01*
X14262619Y-12745000D01*
X14253095Y-12754524D01*
X14243571Y-12773571D01*
X14243571Y-12821190D01*
X14253095Y-12840238D01*
X14262619Y-12849762D01*
X14281667Y-12859286D01*
X14319762Y-12859286D01*
X14338809Y-12849762D01*
X14348333Y-12840238D01*
X14357857Y-12821190D01*
X14538809Y-12735476D02*
X14443571Y-12735476D01*
X14434048Y-12830714D01*
X14443571Y-12821190D01*
X14462619Y-12811667D01*
X14510238Y-12811667D01*
X14529286Y-12821190D01*
X14538809Y-12830714D01*
X14548333Y-12849762D01*
X14548333Y-12897381D01*
X14538809Y-12916428D01*
X14529286Y-12925952D01*
X14510238Y-12935476D01*
X14462619Y-12935476D01*
X14443571Y-12925952D01*
X14434048Y-12916428D01*
X14786428Y-12935476D02*
X14786428Y-12735476D01*
X14872143Y-12935476D02*
X14872143Y-12830714D01*
X14862619Y-12811667D01*
X14843571Y-12802143D01*
X14815000Y-12802143D01*
X14795952Y-12811667D01*
X14786428Y-12821190D01*
X14995952Y-12935476D02*
X14976905Y-12925952D01*
X14967381Y-12916428D01*
X14957857Y-12897381D01*
X14957857Y-12840238D01*
X14967381Y-12821190D01*
X14976905Y-12811667D01*
X14995952Y-12802143D01*
X15024524Y-12802143D01*
X15043571Y-12811667D01*
X15053095Y-12821190D01*
X15062619Y-12840238D01*
X15062619Y-12897381D01*
X15053095Y-12916428D01*
X15043571Y-12925952D01*
X15024524Y-12935476D01*
X14995952Y-12935476D01*
X15176905Y-12935476D02*
X15157857Y-12925952D01*
X15148333Y-12906905D01*
X15148333Y-12735476D01*
X15329286Y-12925952D02*
X15310238Y-12935476D01*
X15272143Y-12935476D01*
X15253095Y-12925952D01*
X15243571Y-12906905D01*
X15243571Y-12830714D01*
X15253095Y-12811667D01*
X15272143Y-12802143D01*
X15310238Y-12802143D01*
X15329286Y-12811667D01*
X15338809Y-12830714D01*
X15338809Y-12849762D01*
X15243571Y-12868809D01*
X15415000Y-12925952D02*
X15434048Y-12935476D01*
X15472143Y-12935476D01*
X15491190Y-12925952D01*
X15500714Y-12906905D01*
X15500714Y-12897381D01*
X15491190Y-12878333D01*
X15472143Y-12868809D01*
X15443571Y-12868809D01*
X15424524Y-12859286D01*
X15415000Y-12840238D01*
X15415000Y-12830714D01*
X15424524Y-12811667D01*
X15443571Y-12802143D01*
X15472143Y-12802143D01*
X15491190Y-12811667D01*
X15567381Y-13011667D02*
X15576905Y-13002143D01*
X15595952Y-12973571D01*
X15605476Y-12954524D01*
X15615000Y-12925952D01*
X15624524Y-12878333D01*
X15624524Y-12840238D01*
X15615000Y-12792619D01*
X15605476Y-12764048D01*
X15595952Y-12745000D01*
X15576905Y-12716428D01*
X15567381Y-12706905D01*
D13*
X10605000Y-13109000D02*
G75*
G03*
X10605000Y-13109000I-23000J0D01*
G01*
D11*
X10900714Y-12999476D02*
X10919762Y-12999476D01*
X10938810Y-13009000D01*
X10948333Y-13018524D01*
X10957857Y-13037571D01*
X10967381Y-13075667D01*
X10967381Y-13123286D01*
X10957857Y-13161381D01*
X10948333Y-13180428D01*
X10938810Y-13189952D01*
X10919762Y-13199476D01*
X10900714Y-13199476D01*
X10881667Y-13189952D01*
X10872143Y-13180428D01*
X10862619Y-13161381D01*
X10853095Y-13123286D01*
X10853095Y-13075667D01*
X10862619Y-13037571D01*
X10872143Y-13018524D01*
X10881667Y-13009000D01*
X10900714Y-12999476D01*
X11053095Y-13180428D02*
X11062619Y-13189952D01*
X11053095Y-13199476D01*
X11043571Y-13189952D01*
X11053095Y-13180428D01*
X11053095Y-13199476D01*
X11234048Y-13066143D02*
X11234048Y-13199476D01*
X11186428Y-12989952D02*
X11138810Y-13132809D01*
X11262619Y-13132809D01*
X11424524Y-12999476D02*
X11386428Y-12999476D01*
X11367381Y-13009000D01*
X11357857Y-13018524D01*
X11338809Y-13047095D01*
X11329286Y-13085190D01*
X11329286Y-13161381D01*
X11338809Y-13180428D01*
X11348333Y-13189952D01*
X11367381Y-13199476D01*
X11405476Y-13199476D01*
X11424524Y-13189952D01*
X11434048Y-13180428D01*
X11443571Y-13161381D01*
X11443571Y-13113762D01*
X11434048Y-13094714D01*
X11424524Y-13085190D01*
X11405476Y-13075667D01*
X11367381Y-13075667D01*
X11348333Y-13085190D01*
X11338809Y-13094714D01*
X11329286Y-13113762D01*
X11567381Y-12999476D02*
X11586428Y-12999476D01*
X11605476Y-13009000D01*
X11615000Y-13018524D01*
X11624524Y-13037571D01*
X11634048Y-13075667D01*
X11634048Y-13123286D01*
X11624524Y-13161381D01*
X11615000Y-13180428D01*
X11605476Y-13189952D01*
X11586428Y-13199476D01*
X11567381Y-13199476D01*
X11548333Y-13189952D01*
X11538809Y-13180428D01*
X11529286Y-13161381D01*
X11519762Y-13123286D01*
X11519762Y-13075667D01*
X11529286Y-13037571D01*
X11538809Y-13018524D01*
X11548333Y-13009000D01*
X11567381Y-12999476D01*
X11719762Y-13199476D02*
X11719762Y-13066143D01*
X11719762Y-13085190D02*
X11729286Y-13075667D01*
X11748333Y-13066143D01*
X11776905Y-13066143D01*
X11795952Y-13075667D01*
X11805476Y-13094714D01*
X11805476Y-13199476D01*
X11805476Y-13094714D02*
X11815000Y-13075667D01*
X11834048Y-13066143D01*
X11862619Y-13066143D01*
X11881667Y-13075667D01*
X11891190Y-13094714D01*
X11891190Y-13199476D01*
X11986428Y-13199476D02*
X11986428Y-13066143D01*
X11986428Y-13085190D02*
X11995952Y-13075667D01*
X12015000Y-13066143D01*
X12043571Y-13066143D01*
X12062619Y-13075667D01*
X12072143Y-13094714D01*
X12072143Y-13199476D01*
X12072143Y-13094714D02*
X12081667Y-13075667D01*
X12100714Y-13066143D01*
X12129286Y-13066143D01*
X12148333Y-13075667D01*
X12157857Y-13094714D01*
X12157857Y-13199476D01*
X12548333Y-12989952D02*
X12376905Y-13247095D01*
X12805476Y-12999476D02*
X12824524Y-12999476D01*
X12843571Y-13009000D01*
X12853095Y-13018524D01*
X12862619Y-13037571D01*
X12872143Y-13075667D01*
X12872143Y-13123286D01*
X12862619Y-13161381D01*
X12853095Y-13180428D01*
X12843571Y-13189952D01*
X12824524Y-13199476D01*
X12805476Y-13199476D01*
X12786428Y-13189952D01*
X12776905Y-13180428D01*
X12767381Y-13161381D01*
X12757857Y-13123286D01*
X12757857Y-13075667D01*
X12767381Y-13037571D01*
X12776905Y-13018524D01*
X12786428Y-13009000D01*
X12805476Y-12999476D01*
X12957857Y-13180428D02*
X12967381Y-13189952D01*
X12957857Y-13199476D01*
X12948333Y-13189952D01*
X12957857Y-13180428D01*
X12957857Y-13199476D01*
X13091190Y-12999476D02*
X13110238Y-12999476D01*
X13129286Y-13009000D01*
X13138809Y-13018524D01*
X13148333Y-13037571D01*
X13157857Y-13075667D01*
X13157857Y-13123286D01*
X13148333Y-13161381D01*
X13138809Y-13180428D01*
X13129286Y-13189952D01*
X13110238Y-13199476D01*
X13091190Y-13199476D01*
X13072143Y-13189952D01*
X13062619Y-13180428D01*
X13053095Y-13161381D01*
X13043571Y-13123286D01*
X13043571Y-13075667D01*
X13053095Y-13037571D01*
X13062619Y-13018524D01*
X13072143Y-13009000D01*
X13091190Y-12999476D01*
X13348333Y-13199476D02*
X13234048Y-13199476D01*
X13291190Y-13199476D02*
X13291190Y-12999476D01*
X13272143Y-13028048D01*
X13253095Y-13047095D01*
X13234048Y-13056619D01*
X13462619Y-13085190D02*
X13443571Y-13075667D01*
X13434048Y-13066143D01*
X13424524Y-13047095D01*
X13424524Y-13037571D01*
X13434048Y-13018524D01*
X13443571Y-13009000D01*
X13462619Y-12999476D01*
X13500714Y-12999476D01*
X13519762Y-13009000D01*
X13529286Y-13018524D01*
X13538809Y-13037571D01*
X13538809Y-13047095D01*
X13529286Y-13066143D01*
X13519762Y-13075667D01*
X13500714Y-13085190D01*
X13462619Y-13085190D01*
X13443571Y-13094714D01*
X13434048Y-13104238D01*
X13424524Y-13123286D01*
X13424524Y-13161381D01*
X13434048Y-13180428D01*
X13443571Y-13189952D01*
X13462619Y-13199476D01*
X13500714Y-13199476D01*
X13519762Y-13189952D01*
X13529286Y-13180428D01*
X13538809Y-13161381D01*
X13538809Y-13123286D01*
X13529286Y-13104238D01*
X13519762Y-13094714D01*
X13500714Y-13085190D01*
X13729286Y-13199476D02*
X13615000Y-13199476D01*
X13672143Y-13199476D02*
X13672143Y-12999476D01*
X13653095Y-13028048D01*
X13634048Y-13047095D01*
X13615000Y-13056619D01*
X13805476Y-12999476D02*
X13805476Y-13037571D01*
X13881667Y-12999476D02*
X13881667Y-13037571D01*
X14176905Y-13275667D02*
X14167381Y-13266143D01*
X14148333Y-13237571D01*
X14138809Y-13218524D01*
X14129286Y-13189952D01*
X14119762Y-13142333D01*
X14119762Y-13104238D01*
X14129286Y-13056619D01*
X14138809Y-13028048D01*
X14148333Y-13009000D01*
X14167381Y-12980428D01*
X14176905Y-12970905D01*
X14243571Y-13018524D02*
X14253095Y-13009000D01*
X14272143Y-12999476D01*
X14319762Y-12999476D01*
X14338809Y-13009000D01*
X14348333Y-13018524D01*
X14357857Y-13037571D01*
X14357857Y-13056619D01*
X14348333Y-13085190D01*
X14234048Y-13199476D01*
X14357857Y-13199476D01*
X14595952Y-13199476D02*
X14595952Y-12999476D01*
X14681667Y-13199476D02*
X14681667Y-13094714D01*
X14672143Y-13075667D01*
X14653095Y-13066143D01*
X14624524Y-13066143D01*
X14605476Y-13075667D01*
X14595952Y-13085190D01*
X14805476Y-13199476D02*
X14786428Y-13189952D01*
X14776905Y-13180428D01*
X14767381Y-13161381D01*
X14767381Y-13104238D01*
X14776905Y-13085190D01*
X14786428Y-13075667D01*
X14805476Y-13066143D01*
X14834048Y-13066143D01*
X14853095Y-13075667D01*
X14862619Y-13085190D01*
X14872143Y-13104238D01*
X14872143Y-13161381D01*
X14862619Y-13180428D01*
X14853095Y-13189952D01*
X14834048Y-13199476D01*
X14805476Y-13199476D01*
X14986428Y-13199476D02*
X14967381Y-13189952D01*
X14957857Y-13170905D01*
X14957857Y-12999476D01*
X15138809Y-13189952D02*
X15119762Y-13199476D01*
X15081667Y-13199476D01*
X15062619Y-13189952D01*
X15053095Y-13170905D01*
X15053095Y-13094714D01*
X15062619Y-13075667D01*
X15081667Y-13066143D01*
X15119762Y-13066143D01*
X15138809Y-13075667D01*
X15148333Y-13094714D01*
X15148333Y-13113762D01*
X15053095Y-13132809D01*
X15224524Y-13189952D02*
X15243571Y-13199476D01*
X15281667Y-13199476D01*
X15300714Y-13189952D01*
X15310238Y-13170905D01*
X15310238Y-13161381D01*
X15300714Y-13142333D01*
X15281667Y-13132809D01*
X15253095Y-13132809D01*
X15234048Y-13123286D01*
X15224524Y-13104238D01*
X15224524Y-13094714D01*
X15234048Y-13075667D01*
X15253095Y-13066143D01*
X15281667Y-13066143D01*
X15300714Y-13075667D01*
X15376905Y-13275667D02*
X15386428Y-13266143D01*
X15405476Y-13237571D01*
X15415000Y-13218524D01*
X15424524Y-13189952D01*
X15434048Y-13142333D01*
X15434048Y-13104238D01*
X15424524Y-13056619D01*
X15415000Y-13028048D01*
X15405476Y-13009000D01*
X15386428Y-12980428D01*
X15376905Y-12970905D01*
D14*
X10580000Y-13348000D02*
X10580000Y-13398000D01*
X10555000Y-13373000D02*
X10605000Y-13373000D01*
D11*
X10900714Y-13263476D02*
X10919762Y-13263476D01*
X10938810Y-13273000D01*
X10948333Y-13282524D01*
X10957857Y-13301571D01*
X10967381Y-13339667D01*
X10967381Y-13387286D01*
X10957857Y-13425381D01*
X10948333Y-13444428D01*
X10938810Y-13453952D01*
X10919762Y-13463476D01*
X10900714Y-13463476D01*
X10881667Y-13453952D01*
X10872143Y-13444428D01*
X10862619Y-13425381D01*
X10853095Y-13387286D01*
X10853095Y-13339667D01*
X10862619Y-13301571D01*
X10872143Y-13282524D01*
X10881667Y-13273000D01*
X10900714Y-13263476D01*
X11053095Y-13444428D02*
X11062619Y-13453952D01*
X11053095Y-13463476D01*
X11043571Y-13453952D01*
X11053095Y-13444428D01*
X11053095Y-13463476D01*
X11243571Y-13263476D02*
X11148333Y-13263476D01*
X11138810Y-13358714D01*
X11148333Y-13349190D01*
X11167381Y-13339667D01*
X11215000Y-13339667D01*
X11234048Y-13349190D01*
X11243571Y-13358714D01*
X11253095Y-13377762D01*
X11253095Y-13425381D01*
X11243571Y-13444428D01*
X11234048Y-13453952D01*
X11215000Y-13463476D01*
X11167381Y-13463476D01*
X11148333Y-13453952D01*
X11138810Y-13444428D01*
X11376905Y-13263476D02*
X11395952Y-13263476D01*
X11415000Y-13273000D01*
X11424524Y-13282524D01*
X11434048Y-13301571D01*
X11443571Y-13339667D01*
X11443571Y-13387286D01*
X11434048Y-13425381D01*
X11424524Y-13444428D01*
X11415000Y-13453952D01*
X11395952Y-13463476D01*
X11376905Y-13463476D01*
X11357857Y-13453952D01*
X11348333Y-13444428D01*
X11338809Y-13425381D01*
X11329286Y-13387286D01*
X11329286Y-13339667D01*
X11338809Y-13301571D01*
X11348333Y-13282524D01*
X11357857Y-13273000D01*
X11376905Y-13263476D01*
X11567381Y-13263476D02*
X11586428Y-13263476D01*
X11605476Y-13273000D01*
X11615000Y-13282524D01*
X11624524Y-13301571D01*
X11634048Y-13339667D01*
X11634048Y-13387286D01*
X11624524Y-13425381D01*
X11615000Y-13444428D01*
X11605476Y-13453952D01*
X11586428Y-13463476D01*
X11567381Y-13463476D01*
X11548333Y-13453952D01*
X11538809Y-13444428D01*
X11529286Y-13425381D01*
X11519762Y-13387286D01*
X11519762Y-13339667D01*
X11529286Y-13301571D01*
X11538809Y-13282524D01*
X11548333Y-13273000D01*
X11567381Y-13263476D01*
X11719762Y-13463476D02*
X11719762Y-13330143D01*
X11719762Y-13349190D02*
X11729286Y-13339667D01*
X11748333Y-13330143D01*
X11776905Y-13330143D01*
X11795952Y-13339667D01*
X11805476Y-13358714D01*
X11805476Y-13463476D01*
X11805476Y-13358714D02*
X11815000Y-13339667D01*
X11834048Y-13330143D01*
X11862619Y-13330143D01*
X11881667Y-13339667D01*
X11891190Y-13358714D01*
X11891190Y-13463476D01*
X11986428Y-13463476D02*
X11986428Y-13330143D01*
X11986428Y-13349190D02*
X11995952Y-13339667D01*
X12015000Y-13330143D01*
X12043571Y-13330143D01*
X12062619Y-13339667D01*
X12072143Y-13358714D01*
X12072143Y-13463476D01*
X12072143Y-13358714D02*
X12081667Y-13339667D01*
X12100714Y-13330143D01*
X12129286Y-13330143D01*
X12148333Y-13339667D01*
X12157857Y-13358714D01*
X12157857Y-13463476D01*
X12548333Y-13253952D02*
X12376905Y-13511095D01*
X12805476Y-13263476D02*
X12824524Y-13263476D01*
X12843571Y-13273000D01*
X12853095Y-13282524D01*
X12862619Y-13301571D01*
X12872143Y-13339667D01*
X12872143Y-13387286D01*
X12862619Y-13425381D01*
X12853095Y-13444428D01*
X12843571Y-13453952D01*
X12824524Y-13463476D01*
X12805476Y-13463476D01*
X12786428Y-13453952D01*
X12776905Y-13444428D01*
X12767381Y-13425381D01*
X12757857Y-13387286D01*
X12757857Y-13339667D01*
X12767381Y-13301571D01*
X12776905Y-13282524D01*
X12786428Y-13273000D01*
X12805476Y-13263476D01*
X12957857Y-13444428D02*
X12967381Y-13453952D01*
X12957857Y-13463476D01*
X12948333Y-13453952D01*
X12957857Y-13444428D01*
X12957857Y-13463476D01*
X13091190Y-13263476D02*
X13110238Y-13263476D01*
X13129286Y-13273000D01*
X13138809Y-13282524D01*
X13148333Y-13301571D01*
X13157857Y-13339667D01*
X13157857Y-13387286D01*
X13148333Y-13425381D01*
X13138809Y-13444428D01*
X13129286Y-13453952D01*
X13110238Y-13463476D01*
X13091190Y-13463476D01*
X13072143Y-13453952D01*
X13062619Y-13444428D01*
X13053095Y-13425381D01*
X13043571Y-13387286D01*
X13043571Y-13339667D01*
X13053095Y-13301571D01*
X13062619Y-13282524D01*
X13072143Y-13273000D01*
X13091190Y-13263476D01*
X13348333Y-13463476D02*
X13234048Y-13463476D01*
X13291190Y-13463476D02*
X13291190Y-13263476D01*
X13272143Y-13292048D01*
X13253095Y-13311095D01*
X13234048Y-13320619D01*
X13443571Y-13463476D02*
X13481667Y-13463476D01*
X13500714Y-13453952D01*
X13510238Y-13444428D01*
X13529286Y-13415857D01*
X13538809Y-13377762D01*
X13538809Y-13301571D01*
X13529286Y-13282524D01*
X13519762Y-13273000D01*
X13500714Y-13263476D01*
X13462619Y-13263476D01*
X13443571Y-13273000D01*
X13434048Y-13282524D01*
X13424524Y-13301571D01*
X13424524Y-13349190D01*
X13434048Y-13368238D01*
X13443571Y-13377762D01*
X13462619Y-13387286D01*
X13500714Y-13387286D01*
X13519762Y-13377762D01*
X13529286Y-13368238D01*
X13538809Y-13349190D01*
X13605476Y-13263476D02*
X13738809Y-13263476D01*
X13653095Y-13463476D01*
X13805476Y-13263476D02*
X13805476Y-13301571D01*
X13881667Y-13263476D02*
X13881667Y-13301571D01*
X14176905Y-13539667D02*
X14167381Y-13530143D01*
X14148333Y-13501571D01*
X14138809Y-13482524D01*
X14129286Y-13453952D01*
X14119762Y-13406333D01*
X14119762Y-13368238D01*
X14129286Y-13320619D01*
X14138809Y-13292048D01*
X14148333Y-13273000D01*
X14167381Y-13244428D01*
X14176905Y-13234905D01*
X14291190Y-13263476D02*
X14310238Y-13263476D01*
X14329286Y-13273000D01*
X14338809Y-13282524D01*
X14348333Y-13301571D01*
X14357857Y-13339667D01*
X14357857Y-13387286D01*
X14348333Y-13425381D01*
X14338809Y-13444428D01*
X14329286Y-13453952D01*
X14310238Y-13463476D01*
X14291190Y-13463476D01*
X14272143Y-13453952D01*
X14262619Y-13444428D01*
X14253095Y-13425381D01*
X14243571Y-13387286D01*
X14243571Y-13339667D01*
X14253095Y-13301571D01*
X14262619Y-13282524D01*
X14272143Y-13273000D01*
X14291190Y-13263476D01*
X14595952Y-13463476D02*
X14595952Y-13263476D01*
X14681667Y-13463476D02*
X14681667Y-13358714D01*
X14672143Y-13339667D01*
X14653095Y-13330143D01*
X14624524Y-13330143D01*
X14605476Y-13339667D01*
X14595952Y-13349190D01*
X14805476Y-13463476D02*
X14786428Y-13453952D01*
X14776905Y-13444428D01*
X14767381Y-13425381D01*
X14767381Y-13368238D01*
X14776905Y-13349190D01*
X14786428Y-13339667D01*
X14805476Y-13330143D01*
X14834048Y-13330143D01*
X14853095Y-13339667D01*
X14862619Y-13349190D01*
X14872143Y-13368238D01*
X14872143Y-13425381D01*
X14862619Y-13444428D01*
X14853095Y-13453952D01*
X14834048Y-13463476D01*
X14805476Y-13463476D01*
X14986428Y-13463476D02*
X14967381Y-13453952D01*
X14957857Y-13434905D01*
X14957857Y-13263476D01*
X15138809Y-13453952D02*
X15119762Y-13463476D01*
X15081667Y-13463476D01*
X15062619Y-13453952D01*
X15053095Y-13434905D01*
X15053095Y-13358714D01*
X15062619Y-13339667D01*
X15081667Y-13330143D01*
X15119762Y-13330143D01*
X15138809Y-13339667D01*
X15148333Y-13358714D01*
X15148333Y-13377762D01*
X15053095Y-13396809D01*
X15224524Y-13453952D02*
X15243571Y-13463476D01*
X15281667Y-13463476D01*
X15300714Y-13453952D01*
X15310238Y-13434905D01*
X15310238Y-13425381D01*
X15300714Y-13406333D01*
X15281667Y-13396809D01*
X15253095Y-13396809D01*
X15234048Y-13387286D01*
X15224524Y-13368238D01*
X15224524Y-13358714D01*
X15234048Y-13339667D01*
X15253095Y-13330143D01*
X15281667Y-13330143D01*
X15300714Y-13339667D01*
X15548333Y-13387286D02*
X15700714Y-13387286D01*
X15624524Y-13463476D02*
X15624524Y-13311095D01*
X15938809Y-13282524D02*
X15948333Y-13273000D01*
X15967381Y-13263476D01*
X16015000Y-13263476D01*
X16034048Y-13273000D01*
X16043571Y-13282524D01*
X16053095Y-13301571D01*
X16053095Y-13320619D01*
X16043571Y-13349190D01*
X15929286Y-13463476D01*
X16053095Y-13463476D01*
X16281667Y-13453952D02*
X16300714Y-13463476D01*
X16338809Y-13463476D01*
X16357857Y-13453952D01*
X16367381Y-13434905D01*
X16367381Y-13425381D01*
X16357857Y-13406333D01*
X16338809Y-13396809D01*
X16310238Y-13396809D01*
X16291190Y-13387286D01*
X16281667Y-13368238D01*
X16281667Y-13358714D01*
X16291190Y-13339667D01*
X16310238Y-13330143D01*
X16338809Y-13330143D01*
X16357857Y-13339667D01*
X16481667Y-13463476D02*
X16462619Y-13453952D01*
X16453095Y-13434905D01*
X16453095Y-13263476D01*
X16586428Y-13463476D02*
X16567381Y-13453952D01*
X16557857Y-13444428D01*
X16548333Y-13425381D01*
X16548333Y-13368238D01*
X16557857Y-13349190D01*
X16567381Y-13339667D01*
X16586428Y-13330143D01*
X16615000Y-13330143D01*
X16634048Y-13339667D01*
X16643571Y-13349190D01*
X16653095Y-13368238D01*
X16653095Y-13425381D01*
X16643571Y-13444428D01*
X16634048Y-13453952D01*
X16615000Y-13463476D01*
X16586428Y-13463476D01*
X16710238Y-13330143D02*
X16786429Y-13330143D01*
X16738809Y-13263476D02*
X16738809Y-13434905D01*
X16748333Y-13453952D01*
X16767381Y-13463476D01*
X16786429Y-13463476D01*
X16843571Y-13453952D02*
X16862619Y-13463476D01*
X16900714Y-13463476D01*
X16919762Y-13453952D01*
X16929286Y-13434905D01*
X16929286Y-13425381D01*
X16919762Y-13406333D01*
X16900714Y-13396809D01*
X16872143Y-13396809D01*
X16853095Y-13387286D01*
X16843571Y-13368238D01*
X16843571Y-13358714D01*
X16853095Y-13339667D01*
X16872143Y-13330143D01*
X16900714Y-13330143D01*
X16919762Y-13339667D01*
X16995952Y-13539667D02*
X17005476Y-13530143D01*
X17024524Y-13501571D01*
X17034048Y-13482524D01*
X17043571Y-13453952D01*
X17053095Y-13406333D01*
X17053095Y-13368238D01*
X17043571Y-13320619D01*
X17034048Y-13292048D01*
X17024524Y-13273000D01*
X17005476Y-13244428D01*
X16995952Y-13234905D01*
D15*
X10596946Y-13656446D02*
X10596946Y-13617554D01*
X10558054Y-13617554D01*
X10558054Y-13656446D01*
X10596946Y-13656446D01*
D11*
X10900714Y-13527476D02*
X10919762Y-13527476D01*
X10938810Y-13537000D01*
X10948333Y-13546524D01*
X10957857Y-13565571D01*
X10967381Y-13603667D01*
X10967381Y-13651286D01*
X10957857Y-13689381D01*
X10948333Y-13708428D01*
X10938810Y-13717952D01*
X10919762Y-13727476D01*
X10900714Y-13727476D01*
X10881667Y-13717952D01*
X10872143Y-13708428D01*
X10862619Y-13689381D01*
X10853095Y-13651286D01*
X10853095Y-13603667D01*
X10862619Y-13565571D01*
X10872143Y-13546524D01*
X10881667Y-13537000D01*
X10900714Y-13527476D01*
X11053095Y-13708428D02*
X11062619Y-13717952D01*
X11053095Y-13727476D01*
X11043571Y-13717952D01*
X11053095Y-13708428D01*
X11053095Y-13727476D01*
X11243571Y-13527476D02*
X11148333Y-13527476D01*
X11138810Y-13622714D01*
X11148333Y-13613190D01*
X11167381Y-13603667D01*
X11215000Y-13603667D01*
X11234048Y-13613190D01*
X11243571Y-13622714D01*
X11253095Y-13641762D01*
X11253095Y-13689381D01*
X11243571Y-13708428D01*
X11234048Y-13717952D01*
X11215000Y-13727476D01*
X11167381Y-13727476D01*
X11148333Y-13717952D01*
X11138810Y-13708428D01*
X11434048Y-13527476D02*
X11338809Y-13527476D01*
X11329286Y-13622714D01*
X11338809Y-13613190D01*
X11357857Y-13603667D01*
X11405476Y-13603667D01*
X11424524Y-13613190D01*
X11434048Y-13622714D01*
X11443571Y-13641762D01*
X11443571Y-13689381D01*
X11434048Y-13708428D01*
X11424524Y-13717952D01*
X11405476Y-13727476D01*
X11357857Y-13727476D01*
X11338809Y-13717952D01*
X11329286Y-13708428D01*
X11567381Y-13527476D02*
X11586428Y-13527476D01*
X11605476Y-13537000D01*
X11615000Y-13546524D01*
X11624524Y-13565571D01*
X11634048Y-13603667D01*
X11634048Y-13651286D01*
X11624524Y-13689381D01*
X11615000Y-13708428D01*
X11605476Y-13717952D01*
X11586428Y-13727476D01*
X11567381Y-13727476D01*
X11548333Y-13717952D01*
X11538809Y-13708428D01*
X11529286Y-13689381D01*
X11519762Y-13651286D01*
X11519762Y-13603667D01*
X11529286Y-13565571D01*
X11538809Y-13546524D01*
X11548333Y-13537000D01*
X11567381Y-13527476D01*
X11719762Y-13727476D02*
X11719762Y-13594143D01*
X11719762Y-13613190D02*
X11729286Y-13603667D01*
X11748333Y-13594143D01*
X11776905Y-13594143D01*
X11795952Y-13603667D01*
X11805476Y-13622714D01*
X11805476Y-13727476D01*
X11805476Y-13622714D02*
X11815000Y-13603667D01*
X11834048Y-13594143D01*
X11862619Y-13594143D01*
X11881667Y-13603667D01*
X11891190Y-13622714D01*
X11891190Y-13727476D01*
X11986428Y-13727476D02*
X11986428Y-13594143D01*
X11986428Y-13613190D02*
X11995952Y-13603667D01*
X12015000Y-13594143D01*
X12043571Y-13594143D01*
X12062619Y-13603667D01*
X12072143Y-13622714D01*
X12072143Y-13727476D01*
X12072143Y-13622714D02*
X12081667Y-13603667D01*
X12100714Y-13594143D01*
X12129286Y-13594143D01*
X12148333Y-13603667D01*
X12157857Y-13622714D01*
X12157857Y-13727476D01*
X12548333Y-13517952D02*
X12376905Y-13775095D01*
X12805476Y-13527476D02*
X12824524Y-13527476D01*
X12843571Y-13537000D01*
X12853095Y-13546524D01*
X12862619Y-13565571D01*
X12872143Y-13603667D01*
X12872143Y-13651286D01*
X12862619Y-13689381D01*
X12853095Y-13708428D01*
X12843571Y-13717952D01*
X12824524Y-13727476D01*
X12805476Y-13727476D01*
X12786428Y-13717952D01*
X12776905Y-13708428D01*
X12767381Y-13689381D01*
X12757857Y-13651286D01*
X12757857Y-13603667D01*
X12767381Y-13565571D01*
X12776905Y-13546524D01*
X12786428Y-13537000D01*
X12805476Y-13527476D01*
X12957857Y-13708428D02*
X12967381Y-13717952D01*
X12957857Y-13727476D01*
X12948333Y-13717952D01*
X12957857Y-13708428D01*
X12957857Y-13727476D01*
X13091190Y-13527476D02*
X13110238Y-13527476D01*
X13129286Y-13537000D01*
X13138809Y-13546524D01*
X13148333Y-13565571D01*
X13157857Y-13603667D01*
X13157857Y-13651286D01*
X13148333Y-13689381D01*
X13138809Y-13708428D01*
X13129286Y-13717952D01*
X13110238Y-13727476D01*
X13091190Y-13727476D01*
X13072143Y-13717952D01*
X13062619Y-13708428D01*
X13053095Y-13689381D01*
X13043571Y-13651286D01*
X13043571Y-13603667D01*
X13053095Y-13565571D01*
X13062619Y-13546524D01*
X13072143Y-13537000D01*
X13091190Y-13527476D01*
X13234048Y-13546524D02*
X13243571Y-13537000D01*
X13262619Y-13527476D01*
X13310238Y-13527476D01*
X13329286Y-13537000D01*
X13338809Y-13546524D01*
X13348333Y-13565571D01*
X13348333Y-13584619D01*
X13338809Y-13613190D01*
X13224524Y-13727476D01*
X13348333Y-13727476D01*
X13538809Y-13727476D02*
X13424524Y-13727476D01*
X13481667Y-13727476D02*
X13481667Y-13527476D01*
X13462619Y-13556048D01*
X13443571Y-13575095D01*
X13424524Y-13584619D01*
X13605476Y-13527476D02*
X13738809Y-13527476D01*
X13653095Y-13727476D01*
X13805476Y-13527476D02*
X13805476Y-13565571D01*
X13881667Y-13527476D02*
X13881667Y-13565571D01*
X14176905Y-13803667D02*
X14167381Y-13794143D01*
X14148333Y-13765571D01*
X14138809Y-13746524D01*
X14129286Y-13717952D01*
X14119762Y-13670333D01*
X14119762Y-13632238D01*
X14129286Y-13584619D01*
X14138809Y-13556048D01*
X14148333Y-13537000D01*
X14167381Y-13508428D01*
X14176905Y-13498905D01*
X14291190Y-13527476D02*
X14310238Y-13527476D01*
X14329286Y-13537000D01*
X14338809Y-13546524D01*
X14348333Y-13565571D01*
X14357857Y-13603667D01*
X14357857Y-13651286D01*
X14348333Y-13689381D01*
X14338809Y-13708428D01*
X14329286Y-13717952D01*
X14310238Y-13727476D01*
X14291190Y-13727476D01*
X14272143Y-13717952D01*
X14262619Y-13708428D01*
X14253095Y-13689381D01*
X14243571Y-13651286D01*
X14243571Y-13603667D01*
X14253095Y-13565571D01*
X14262619Y-13546524D01*
X14272143Y-13537000D01*
X14291190Y-13527476D01*
X14595952Y-13727476D02*
X14595952Y-13527476D01*
X14681667Y-13727476D02*
X14681667Y-13622714D01*
X14672143Y-13603667D01*
X14653095Y-13594143D01*
X14624524Y-13594143D01*
X14605476Y-13603667D01*
X14595952Y-13613190D01*
X14805476Y-13727476D02*
X14786428Y-13717952D01*
X14776905Y-13708428D01*
X14767381Y-13689381D01*
X14767381Y-13632238D01*
X14776905Y-13613190D01*
X14786428Y-13603667D01*
X14805476Y-13594143D01*
X14834048Y-13594143D01*
X14853095Y-13603667D01*
X14862619Y-13613190D01*
X14872143Y-13632238D01*
X14872143Y-13689381D01*
X14862619Y-13708428D01*
X14853095Y-13717952D01*
X14834048Y-13727476D01*
X14805476Y-13727476D01*
X14986428Y-13727476D02*
X14967381Y-13717952D01*
X14957857Y-13698905D01*
X14957857Y-13527476D01*
X15138809Y-13717952D02*
X15119762Y-13727476D01*
X15081667Y-13727476D01*
X15062619Y-13717952D01*
X15053095Y-13698905D01*
X15053095Y-13622714D01*
X15062619Y-13603667D01*
X15081667Y-13594143D01*
X15119762Y-13594143D01*
X15138809Y-13603667D01*
X15148333Y-13622714D01*
X15148333Y-13641762D01*
X15053095Y-13660809D01*
X15224524Y-13717952D02*
X15243571Y-13727476D01*
X15281667Y-13727476D01*
X15300714Y-13717952D01*
X15310238Y-13698905D01*
X15310238Y-13689381D01*
X15300714Y-13670333D01*
X15281667Y-13660809D01*
X15253095Y-13660809D01*
X15234048Y-13651286D01*
X15224524Y-13632238D01*
X15224524Y-13622714D01*
X15234048Y-13603667D01*
X15253095Y-13594143D01*
X15281667Y-13594143D01*
X15300714Y-13603667D01*
X15548333Y-13651286D02*
X15700714Y-13651286D01*
X15624524Y-13727476D02*
X15624524Y-13575095D01*
X15938809Y-13546524D02*
X15948333Y-13537000D01*
X15967381Y-13527476D01*
X16015000Y-13527476D01*
X16034048Y-13537000D01*
X16043571Y-13546524D01*
X16053095Y-13565571D01*
X16053095Y-13584619D01*
X16043571Y-13613190D01*
X15929286Y-13727476D01*
X16053095Y-13727476D01*
X16281667Y-13717952D02*
X16300714Y-13727476D01*
X16338809Y-13727476D01*
X16357857Y-13717952D01*
X16367381Y-13698905D01*
X16367381Y-13689381D01*
X16357857Y-13670333D01*
X16338809Y-13660809D01*
X16310238Y-13660809D01*
X16291190Y-13651286D01*
X16281667Y-13632238D01*
X16281667Y-13622714D01*
X16291190Y-13603667D01*
X16310238Y-13594143D01*
X16338809Y-13594143D01*
X16357857Y-13603667D01*
X16481667Y-13727476D02*
X16462619Y-13717952D01*
X16453095Y-13698905D01*
X16453095Y-13527476D01*
X16586428Y-13727476D02*
X16567381Y-13717952D01*
X16557857Y-13708428D01*
X16548333Y-13689381D01*
X16548333Y-13632238D01*
X16557857Y-13613190D01*
X16567381Y-13603667D01*
X16586428Y-13594143D01*
X16615000Y-13594143D01*
X16634048Y-13603667D01*
X16643571Y-13613190D01*
X16653095Y-13632238D01*
X16653095Y-13689381D01*
X16643571Y-13708428D01*
X16634048Y-13717952D01*
X16615000Y-13727476D01*
X16586428Y-13727476D01*
X16710238Y-13594143D02*
X16786429Y-13594143D01*
X16738809Y-13527476D02*
X16738809Y-13698905D01*
X16748333Y-13717952D01*
X16767381Y-13727476D01*
X16786429Y-13727476D01*
X16843571Y-13717952D02*
X16862619Y-13727476D01*
X16900714Y-13727476D01*
X16919762Y-13717952D01*
X16929286Y-13698905D01*
X16929286Y-13689381D01*
X16919762Y-13670333D01*
X16900714Y-13660809D01*
X16872143Y-13660809D01*
X16853095Y-13651286D01*
X16843571Y-13632238D01*
X16843571Y-13622714D01*
X16853095Y-13603667D01*
X16872143Y-13594143D01*
X16900714Y-13594143D01*
X16919762Y-13603667D01*
X16995952Y-13803667D02*
X17005476Y-13794143D01*
X17024524Y-13765571D01*
X17034048Y-13746524D01*
X17043571Y-13717952D01*
X17053095Y-13670333D01*
X17053095Y-13632238D01*
X17043571Y-13584619D01*
X17034048Y-13556048D01*
X17024524Y-13537000D01*
X17005476Y-13508428D01*
X16995952Y-13498905D01*
D16*
X10567500Y-13938500D02*
X10605000Y-13901000D01*
X10567500Y-13863500D01*
X10530000Y-13901000D01*
X10567500Y-13938500D01*
D11*
X10900714Y-13791476D02*
X10919762Y-13791476D01*
X10938810Y-13801000D01*
X10948333Y-13810524D01*
X10957857Y-13829571D01*
X10967381Y-13867667D01*
X10967381Y-13915286D01*
X10957857Y-13953381D01*
X10948333Y-13972428D01*
X10938810Y-13981952D01*
X10919762Y-13991476D01*
X10900714Y-13991476D01*
X10881667Y-13981952D01*
X10872143Y-13972428D01*
X10862619Y-13953381D01*
X10853095Y-13915286D01*
X10853095Y-13867667D01*
X10862619Y-13829571D01*
X10872143Y-13810524D01*
X10881667Y-13801000D01*
X10900714Y-13791476D01*
X11053095Y-13972428D02*
X11062619Y-13981952D01*
X11053095Y-13991476D01*
X11043571Y-13981952D01*
X11053095Y-13972428D01*
X11053095Y-13991476D01*
X11129286Y-13791476D02*
X11262619Y-13791476D01*
X11176905Y-13991476D01*
X11434048Y-13791476D02*
X11338809Y-13791476D01*
X11329286Y-13886714D01*
X11338809Y-13877190D01*
X11357857Y-13867667D01*
X11405476Y-13867667D01*
X11424524Y-13877190D01*
X11434048Y-13886714D01*
X11443571Y-13905762D01*
X11443571Y-13953381D01*
X11434048Y-13972428D01*
X11424524Y-13981952D01*
X11405476Y-13991476D01*
X11357857Y-13991476D01*
X11338809Y-13981952D01*
X11329286Y-13972428D01*
X11567381Y-13791476D02*
X11586428Y-13791476D01*
X11605476Y-13801000D01*
X11615000Y-13810524D01*
X11624524Y-13829571D01*
X11634048Y-13867667D01*
X11634048Y-13915286D01*
X11624524Y-13953381D01*
X11615000Y-13972428D01*
X11605476Y-13981952D01*
X11586428Y-13991476D01*
X11567381Y-13991476D01*
X11548333Y-13981952D01*
X11538809Y-13972428D01*
X11529286Y-13953381D01*
X11519762Y-13915286D01*
X11519762Y-13867667D01*
X11529286Y-13829571D01*
X11538809Y-13810524D01*
X11548333Y-13801000D01*
X11567381Y-13791476D01*
X11719762Y-13991476D02*
X11719762Y-13858143D01*
X11719762Y-13877190D02*
X11729286Y-13867667D01*
X11748333Y-13858143D01*
X11776905Y-13858143D01*
X11795952Y-13867667D01*
X11805476Y-13886714D01*
X11805476Y-13991476D01*
X11805476Y-13886714D02*
X11815000Y-13867667D01*
X11834048Y-13858143D01*
X11862619Y-13858143D01*
X11881667Y-13867667D01*
X11891190Y-13886714D01*
X11891190Y-13991476D01*
X11986428Y-13991476D02*
X11986428Y-13858143D01*
X11986428Y-13877190D02*
X11995952Y-13867667D01*
X12015000Y-13858143D01*
X12043571Y-13858143D01*
X12062619Y-13867667D01*
X12072143Y-13886714D01*
X12072143Y-13991476D01*
X12072143Y-13886714D02*
X12081667Y-13867667D01*
X12100714Y-13858143D01*
X12129286Y-13858143D01*
X12148333Y-13867667D01*
X12157857Y-13886714D01*
X12157857Y-13991476D01*
X12548333Y-13781952D02*
X12376905Y-14039095D01*
X12805476Y-13791476D02*
X12824524Y-13791476D01*
X12843571Y-13801000D01*
X12853095Y-13810524D01*
X12862619Y-13829571D01*
X12872143Y-13867667D01*
X12872143Y-13915286D01*
X12862619Y-13953381D01*
X12853095Y-13972428D01*
X12843571Y-13981952D01*
X12824524Y-13991476D01*
X12805476Y-13991476D01*
X12786428Y-13981952D01*
X12776905Y-13972428D01*
X12767381Y-13953381D01*
X12757857Y-13915286D01*
X12757857Y-13867667D01*
X12767381Y-13829571D01*
X12776905Y-13810524D01*
X12786428Y-13801000D01*
X12805476Y-13791476D01*
X12957857Y-13972428D02*
X12967381Y-13981952D01*
X12957857Y-13991476D01*
X12948333Y-13981952D01*
X12957857Y-13972428D01*
X12957857Y-13991476D01*
X13091190Y-13791476D02*
X13110238Y-13791476D01*
X13129286Y-13801000D01*
X13138809Y-13810524D01*
X13148333Y-13829571D01*
X13157857Y-13867667D01*
X13157857Y-13915286D01*
X13148333Y-13953381D01*
X13138809Y-13972428D01*
X13129286Y-13981952D01*
X13110238Y-13991476D01*
X13091190Y-13991476D01*
X13072143Y-13981952D01*
X13062619Y-13972428D01*
X13053095Y-13953381D01*
X13043571Y-13915286D01*
X13043571Y-13867667D01*
X13053095Y-13829571D01*
X13062619Y-13810524D01*
X13072143Y-13801000D01*
X13091190Y-13791476D01*
X13234048Y-13810524D02*
X13243571Y-13801000D01*
X13262619Y-13791476D01*
X13310238Y-13791476D01*
X13329286Y-13801000D01*
X13338809Y-13810524D01*
X13348333Y-13829571D01*
X13348333Y-13848619D01*
X13338809Y-13877190D01*
X13224524Y-13991476D01*
X13348333Y-13991476D01*
X13443571Y-13991476D02*
X13481667Y-13991476D01*
X13500714Y-13981952D01*
X13510238Y-13972428D01*
X13529286Y-13943857D01*
X13538809Y-13905762D01*
X13538809Y-13829571D01*
X13529286Y-13810524D01*
X13519762Y-13801000D01*
X13500714Y-13791476D01*
X13462619Y-13791476D01*
X13443571Y-13801000D01*
X13434048Y-13810524D01*
X13424524Y-13829571D01*
X13424524Y-13877190D01*
X13434048Y-13896238D01*
X13443571Y-13905762D01*
X13462619Y-13915286D01*
X13500714Y-13915286D01*
X13519762Y-13905762D01*
X13529286Y-13896238D01*
X13538809Y-13877190D01*
X13719762Y-13791476D02*
X13624524Y-13791476D01*
X13615000Y-13886714D01*
X13624524Y-13877190D01*
X13643571Y-13867667D01*
X13691190Y-13867667D01*
X13710238Y-13877190D01*
X13719762Y-13886714D01*
X13729286Y-13905762D01*
X13729286Y-13953381D01*
X13719762Y-13972428D01*
X13710238Y-13981952D01*
X13691190Y-13991476D01*
X13643571Y-13991476D01*
X13624524Y-13981952D01*
X13615000Y-13972428D01*
X13805476Y-13791476D02*
X13805476Y-13829571D01*
X13881667Y-13791476D02*
X13881667Y-13829571D01*
X14176905Y-14067667D02*
X14167381Y-14058143D01*
X14148333Y-14029571D01*
X14138809Y-14010524D01*
X14129286Y-13981952D01*
X14119762Y-13934333D01*
X14119762Y-13896238D01*
X14129286Y-13848619D01*
X14138809Y-13820048D01*
X14148333Y-13801000D01*
X14167381Y-13772428D01*
X14176905Y-13762905D01*
X14243571Y-13810524D02*
X14253095Y-13801000D01*
X14272143Y-13791476D01*
X14319762Y-13791476D01*
X14338809Y-13801000D01*
X14348333Y-13810524D01*
X14357857Y-13829571D01*
X14357857Y-13848619D01*
X14348333Y-13877190D01*
X14234048Y-13991476D01*
X14357857Y-13991476D01*
X14595952Y-13991476D02*
X14595952Y-13791476D01*
X14681667Y-13991476D02*
X14681667Y-13886714D01*
X14672143Y-13867667D01*
X14653095Y-13858143D01*
X14624524Y-13858143D01*
X14605476Y-13867667D01*
X14595952Y-13877190D01*
X14805476Y-13991476D02*
X14786428Y-13981952D01*
X14776905Y-13972428D01*
X14767381Y-13953381D01*
X14767381Y-13896238D01*
X14776905Y-13877190D01*
X14786428Y-13867667D01*
X14805476Y-13858143D01*
X14834048Y-13858143D01*
X14853095Y-13867667D01*
X14862619Y-13877190D01*
X14872143Y-13896238D01*
X14872143Y-13953381D01*
X14862619Y-13972428D01*
X14853095Y-13981952D01*
X14834048Y-13991476D01*
X14805476Y-13991476D01*
X14986428Y-13991476D02*
X14967381Y-13981952D01*
X14957857Y-13962905D01*
X14957857Y-13791476D01*
X15138809Y-13981952D02*
X15119762Y-13991476D01*
X15081667Y-13991476D01*
X15062619Y-13981952D01*
X15053095Y-13962905D01*
X15053095Y-13886714D01*
X15062619Y-13867667D01*
X15081667Y-13858143D01*
X15119762Y-13858143D01*
X15138809Y-13867667D01*
X15148333Y-13886714D01*
X15148333Y-13905762D01*
X15053095Y-13924809D01*
X15224524Y-13981952D02*
X15243571Y-13991476D01*
X15281667Y-13991476D01*
X15300714Y-13981952D01*
X15310238Y-13962905D01*
X15310238Y-13953381D01*
X15300714Y-13934333D01*
X15281667Y-13924809D01*
X15253095Y-13924809D01*
X15234048Y-13915286D01*
X15224524Y-13896238D01*
X15224524Y-13886714D01*
X15234048Y-13867667D01*
X15253095Y-13858143D01*
X15281667Y-13858143D01*
X15300714Y-13867667D01*
X15376905Y-14067667D02*
X15386428Y-14058143D01*
X15405476Y-14029571D01*
X15415000Y-14010524D01*
X15424524Y-13981952D01*
X15434048Y-13934333D01*
X15434048Y-13896238D01*
X15424524Y-13848619D01*
X15415000Y-13820048D01*
X15405476Y-13801000D01*
X15386428Y-13772428D01*
X15376905Y-13762905D01*
D17*
X10525000Y-14125000D02*
X10605000Y-14205000D01*
X10605000Y-14125000D02*
X10525000Y-14205000D01*
X10605000Y-14165000D02*
G75*
G03*
X10605000Y-14165000I-40000J0D01*
G01*
D11*
X10900714Y-14055476D02*
X10919762Y-14055476D01*
X10938810Y-14065000D01*
X10948333Y-14074524D01*
X10957857Y-14093571D01*
X10967381Y-14131667D01*
X10967381Y-14179286D01*
X10957857Y-14217381D01*
X10948333Y-14236428D01*
X10938810Y-14245952D01*
X10919762Y-14255476D01*
X10900714Y-14255476D01*
X10881667Y-14245952D01*
X10872143Y-14236428D01*
X10862619Y-14217381D01*
X10853095Y-14179286D01*
X10853095Y-14131667D01*
X10862619Y-14093571D01*
X10872143Y-14074524D01*
X10881667Y-14065000D01*
X10900714Y-14055476D01*
X11053095Y-14236428D02*
X11062619Y-14245952D01*
X11053095Y-14255476D01*
X11043571Y-14245952D01*
X11053095Y-14236428D01*
X11053095Y-14255476D01*
X11176905Y-14141190D02*
X11157857Y-14131667D01*
X11148333Y-14122143D01*
X11138810Y-14103095D01*
X11138810Y-14093571D01*
X11148333Y-14074524D01*
X11157857Y-14065000D01*
X11176905Y-14055476D01*
X11215000Y-14055476D01*
X11234048Y-14065000D01*
X11243571Y-14074524D01*
X11253095Y-14093571D01*
X11253095Y-14103095D01*
X11243571Y-14122143D01*
X11234048Y-14131667D01*
X11215000Y-14141190D01*
X11176905Y-14141190D01*
X11157857Y-14150714D01*
X11148333Y-14160238D01*
X11138810Y-14179286D01*
X11138810Y-14217381D01*
X11148333Y-14236428D01*
X11157857Y-14245952D01*
X11176905Y-14255476D01*
X11215000Y-14255476D01*
X11234048Y-14245952D01*
X11243571Y-14236428D01*
X11253095Y-14217381D01*
X11253095Y-14179286D01*
X11243571Y-14160238D01*
X11234048Y-14150714D01*
X11215000Y-14141190D01*
X11376905Y-14055476D02*
X11395952Y-14055476D01*
X11415000Y-14065000D01*
X11424524Y-14074524D01*
X11434048Y-14093571D01*
X11443571Y-14131667D01*
X11443571Y-14179286D01*
X11434048Y-14217381D01*
X11424524Y-14236428D01*
X11415000Y-14245952D01*
X11395952Y-14255476D01*
X11376905Y-14255476D01*
X11357857Y-14245952D01*
X11348333Y-14236428D01*
X11338809Y-14217381D01*
X11329286Y-14179286D01*
X11329286Y-14131667D01*
X11338809Y-14093571D01*
X11348333Y-14074524D01*
X11357857Y-14065000D01*
X11376905Y-14055476D01*
X11567381Y-14055476D02*
X11586428Y-14055476D01*
X11605476Y-14065000D01*
X11615000Y-14074524D01*
X11624524Y-14093571D01*
X11634048Y-14131667D01*
X11634048Y-14179286D01*
X11624524Y-14217381D01*
X11615000Y-14236428D01*
X11605476Y-14245952D01*
X11586428Y-14255476D01*
X11567381Y-14255476D01*
X11548333Y-14245952D01*
X11538809Y-14236428D01*
X11529286Y-14217381D01*
X11519762Y-14179286D01*
X11519762Y-14131667D01*
X11529286Y-14093571D01*
X11538809Y-14074524D01*
X11548333Y-14065000D01*
X11567381Y-14055476D01*
X11719762Y-14255476D02*
X11719762Y-14122143D01*
X11719762Y-14141190D02*
X11729286Y-14131667D01*
X11748333Y-14122143D01*
X11776905Y-14122143D01*
X11795952Y-14131667D01*
X11805476Y-14150714D01*
X11805476Y-14255476D01*
X11805476Y-14150714D02*
X11815000Y-14131667D01*
X11834048Y-14122143D01*
X11862619Y-14122143D01*
X11881667Y-14131667D01*
X11891190Y-14150714D01*
X11891190Y-14255476D01*
X11986428Y-14255476D02*
X11986428Y-14122143D01*
X11986428Y-14141190D02*
X11995952Y-14131667D01*
X12015000Y-14122143D01*
X12043571Y-14122143D01*
X12062619Y-14131667D01*
X12072143Y-14150714D01*
X12072143Y-14255476D01*
X12072143Y-14150714D02*
X12081667Y-14131667D01*
X12100714Y-14122143D01*
X12129286Y-14122143D01*
X12148333Y-14131667D01*
X12157857Y-14150714D01*
X12157857Y-14255476D01*
X12548333Y-14045952D02*
X12376905Y-14303095D01*
X12805476Y-14055476D02*
X12824524Y-14055476D01*
X12843571Y-14065000D01*
X12853095Y-14074524D01*
X12862619Y-14093571D01*
X12872143Y-14131667D01*
X12872143Y-14179286D01*
X12862619Y-14217381D01*
X12853095Y-14236428D01*
X12843571Y-14245952D01*
X12824524Y-14255476D01*
X12805476Y-14255476D01*
X12786428Y-14245952D01*
X12776905Y-14236428D01*
X12767381Y-14217381D01*
X12757857Y-14179286D01*
X12757857Y-14131667D01*
X12767381Y-14093571D01*
X12776905Y-14074524D01*
X12786428Y-14065000D01*
X12805476Y-14055476D01*
X12957857Y-14236428D02*
X12967381Y-14245952D01*
X12957857Y-14255476D01*
X12948333Y-14245952D01*
X12957857Y-14236428D01*
X12957857Y-14255476D01*
X13091190Y-14055476D02*
X13110238Y-14055476D01*
X13129286Y-14065000D01*
X13138809Y-14074524D01*
X13148333Y-14093571D01*
X13157857Y-14131667D01*
X13157857Y-14179286D01*
X13148333Y-14217381D01*
X13138809Y-14236428D01*
X13129286Y-14245952D01*
X13110238Y-14255476D01*
X13091190Y-14255476D01*
X13072143Y-14245952D01*
X13062619Y-14236428D01*
X13053095Y-14217381D01*
X13043571Y-14179286D01*
X13043571Y-14131667D01*
X13053095Y-14093571D01*
X13062619Y-14074524D01*
X13072143Y-14065000D01*
X13091190Y-14055476D01*
X13224524Y-14055476D02*
X13348333Y-14055476D01*
X13281667Y-14131667D01*
X13310238Y-14131667D01*
X13329286Y-14141190D01*
X13338809Y-14150714D01*
X13348333Y-14169762D01*
X13348333Y-14217381D01*
X13338809Y-14236428D01*
X13329286Y-14245952D01*
X13310238Y-14255476D01*
X13253095Y-14255476D01*
X13234048Y-14245952D01*
X13224524Y-14236428D01*
X13538809Y-14255476D02*
X13424524Y-14255476D01*
X13481667Y-14255476D02*
X13481667Y-14055476D01*
X13462619Y-14084048D01*
X13443571Y-14103095D01*
X13424524Y-14112619D01*
X13719762Y-14055476D02*
X13624524Y-14055476D01*
X13615000Y-14150714D01*
X13624524Y-14141190D01*
X13643571Y-14131667D01*
X13691190Y-14131667D01*
X13710238Y-14141190D01*
X13719762Y-14150714D01*
X13729286Y-14169762D01*
X13729286Y-14217381D01*
X13719762Y-14236428D01*
X13710238Y-14245952D01*
X13691190Y-14255476D01*
X13643571Y-14255476D01*
X13624524Y-14245952D01*
X13615000Y-14236428D01*
X13805476Y-14055476D02*
X13805476Y-14093571D01*
X13881667Y-14055476D02*
X13881667Y-14093571D01*
X14176905Y-14331667D02*
X14167381Y-14322143D01*
X14148333Y-14293571D01*
X14138809Y-14274524D01*
X14129286Y-14245952D01*
X14119762Y-14198333D01*
X14119762Y-14160238D01*
X14129286Y-14112619D01*
X14138809Y-14084048D01*
X14148333Y-14065000D01*
X14167381Y-14036428D01*
X14176905Y-14026905D01*
X14291190Y-14055476D02*
X14310238Y-14055476D01*
X14329286Y-14065000D01*
X14338809Y-14074524D01*
X14348333Y-14093571D01*
X14357857Y-14131667D01*
X14357857Y-14179286D01*
X14348333Y-14217381D01*
X14338809Y-14236428D01*
X14329286Y-14245952D01*
X14310238Y-14255476D01*
X14291190Y-14255476D01*
X14272143Y-14245952D01*
X14262619Y-14236428D01*
X14253095Y-14217381D01*
X14243571Y-14179286D01*
X14243571Y-14131667D01*
X14253095Y-14093571D01*
X14262619Y-14074524D01*
X14272143Y-14065000D01*
X14291190Y-14055476D01*
X14595952Y-14255476D02*
X14595952Y-14055476D01*
X14681667Y-14255476D02*
X14681667Y-14150714D01*
X14672143Y-14131667D01*
X14653095Y-14122143D01*
X14624524Y-14122143D01*
X14605476Y-14131667D01*
X14595952Y-14141190D01*
X14805476Y-14255476D02*
X14786428Y-14245952D01*
X14776905Y-14236428D01*
X14767381Y-14217381D01*
X14767381Y-14160238D01*
X14776905Y-14141190D01*
X14786428Y-14131667D01*
X14805476Y-14122143D01*
X14834048Y-14122143D01*
X14853095Y-14131667D01*
X14862619Y-14141190D01*
X14872143Y-14160238D01*
X14872143Y-14217381D01*
X14862619Y-14236428D01*
X14853095Y-14245952D01*
X14834048Y-14255476D01*
X14805476Y-14255476D01*
X14986428Y-14255476D02*
X14967381Y-14245952D01*
X14957857Y-14226905D01*
X14957857Y-14055476D01*
X15138809Y-14245952D02*
X15119762Y-14255476D01*
X15081667Y-14255476D01*
X15062619Y-14245952D01*
X15053095Y-14226905D01*
X15053095Y-14150714D01*
X15062619Y-14131667D01*
X15081667Y-14122143D01*
X15119762Y-14122143D01*
X15138809Y-14131667D01*
X15148333Y-14150714D01*
X15148333Y-14169762D01*
X15053095Y-14188809D01*
X15224524Y-14245952D02*
X15243571Y-14255476D01*
X15281667Y-14255476D01*
X15300714Y-14245952D01*
X15310238Y-14226905D01*
X15310238Y-14217381D01*
X15300714Y-14198333D01*
X15281667Y-14188809D01*
X15253095Y-14188809D01*
X15234048Y-14179286D01*
X15224524Y-14160238D01*
X15224524Y-14150714D01*
X15234048Y-14131667D01*
X15253095Y-14122143D01*
X15281667Y-14122143D01*
X15300714Y-14131667D01*
X15548333Y-14179286D02*
X15700714Y-14179286D01*
X15624524Y-14255476D02*
X15624524Y-14103095D01*
X15938809Y-14074524D02*
X15948333Y-14065000D01*
X15967381Y-14055476D01*
X16015000Y-14055476D01*
X16034048Y-14065000D01*
X16043571Y-14074524D01*
X16053095Y-14093571D01*
X16053095Y-14112619D01*
X16043571Y-14141190D01*
X15929286Y-14255476D01*
X16053095Y-14255476D01*
X16281667Y-14245952D02*
X16300714Y-14255476D01*
X16338809Y-14255476D01*
X16357857Y-14245952D01*
X16367381Y-14226905D01*
X16367381Y-14217381D01*
X16357857Y-14198333D01*
X16338809Y-14188809D01*
X16310238Y-14188809D01*
X16291190Y-14179286D01*
X16281667Y-14160238D01*
X16281667Y-14150714D01*
X16291190Y-14131667D01*
X16310238Y-14122143D01*
X16338809Y-14122143D01*
X16357857Y-14131667D01*
X16481667Y-14255476D02*
X16462619Y-14245952D01*
X16453095Y-14226905D01*
X16453095Y-14055476D01*
X16586428Y-14255476D02*
X16567381Y-14245952D01*
X16557857Y-14236428D01*
X16548333Y-14217381D01*
X16548333Y-14160238D01*
X16557857Y-14141190D01*
X16567381Y-14131667D01*
X16586428Y-14122143D01*
X16615000Y-14122143D01*
X16634048Y-14131667D01*
X16643571Y-14141190D01*
X16653095Y-14160238D01*
X16653095Y-14217381D01*
X16643571Y-14236428D01*
X16634048Y-14245952D01*
X16615000Y-14255476D01*
X16586428Y-14255476D01*
X16710238Y-14122143D02*
X16786429Y-14122143D01*
X16738809Y-14055476D02*
X16738809Y-14226905D01*
X16748333Y-14245952D01*
X16767381Y-14255476D01*
X16786429Y-14255476D01*
X16843571Y-14245952D02*
X16862619Y-14255476D01*
X16900714Y-14255476D01*
X16919762Y-14245952D01*
X16929286Y-14226905D01*
X16929286Y-14217381D01*
X16919762Y-14198333D01*
X16900714Y-14188809D01*
X16872143Y-14188809D01*
X16853095Y-14179286D01*
X16843571Y-14160238D01*
X16843571Y-14150714D01*
X16853095Y-14131667D01*
X16872143Y-14122143D01*
X16900714Y-14122143D01*
X16919762Y-14131667D01*
X16995952Y-14331667D02*
X17005476Y-14322143D01*
X17024524Y-14293571D01*
X17034048Y-14274524D01*
X17043571Y-14245952D01*
X17053095Y-14198333D01*
X17053095Y-14160238D01*
X17043571Y-14112619D01*
X17034048Y-14084048D01*
X17024524Y-14065000D01*
X17005476Y-14036428D01*
X16995952Y-14026905D01*
D18*
X10515000Y-14384000D02*
X10605000Y-14474000D01*
X10605000Y-14384000D02*
X10515000Y-14474000D01*
X10560000Y-14384000D02*
X10560000Y-14474000D01*
X10515000Y-14429000D02*
X10605000Y-14429000D01*
D11*
X10900714Y-14319476D02*
X10919762Y-14319476D01*
X10938810Y-14329000D01*
X10948333Y-14338524D01*
X10957857Y-14357571D01*
X10967381Y-14395667D01*
X10967381Y-14443286D01*
X10957857Y-14481381D01*
X10948333Y-14500428D01*
X10938810Y-14509952D01*
X10919762Y-14519476D01*
X10900714Y-14519476D01*
X10881667Y-14509952D01*
X10872143Y-14500428D01*
X10862619Y-14481381D01*
X10853095Y-14443286D01*
X10853095Y-14395667D01*
X10862619Y-14357571D01*
X10872143Y-14338524D01*
X10881667Y-14329000D01*
X10900714Y-14319476D01*
X11053095Y-14500428D02*
X11062619Y-14509952D01*
X11053095Y-14519476D01*
X11043571Y-14509952D01*
X11053095Y-14500428D01*
X11053095Y-14519476D01*
X11157857Y-14519476D02*
X11195952Y-14519476D01*
X11215000Y-14509952D01*
X11224524Y-14500428D01*
X11243571Y-14471857D01*
X11253095Y-14433762D01*
X11253095Y-14357571D01*
X11243571Y-14338524D01*
X11234048Y-14329000D01*
X11215000Y-14319476D01*
X11176905Y-14319476D01*
X11157857Y-14329000D01*
X11148333Y-14338524D01*
X11138810Y-14357571D01*
X11138810Y-14405190D01*
X11148333Y-14424238D01*
X11157857Y-14433762D01*
X11176905Y-14443286D01*
X11215000Y-14443286D01*
X11234048Y-14433762D01*
X11243571Y-14424238D01*
X11253095Y-14405190D01*
X11376905Y-14319476D02*
X11395952Y-14319476D01*
X11415000Y-14329000D01*
X11424524Y-14338524D01*
X11434048Y-14357571D01*
X11443571Y-14395667D01*
X11443571Y-14443286D01*
X11434048Y-14481381D01*
X11424524Y-14500428D01*
X11415000Y-14509952D01*
X11395952Y-14519476D01*
X11376905Y-14519476D01*
X11357857Y-14509952D01*
X11348333Y-14500428D01*
X11338809Y-14481381D01*
X11329286Y-14443286D01*
X11329286Y-14395667D01*
X11338809Y-14357571D01*
X11348333Y-14338524D01*
X11357857Y-14329000D01*
X11376905Y-14319476D01*
X11567381Y-14319476D02*
X11586428Y-14319476D01*
X11605476Y-14329000D01*
X11615000Y-14338524D01*
X11624524Y-14357571D01*
X11634048Y-14395667D01*
X11634048Y-14443286D01*
X11624524Y-14481381D01*
X11615000Y-14500428D01*
X11605476Y-14509952D01*
X11586428Y-14519476D01*
X11567381Y-14519476D01*
X11548333Y-14509952D01*
X11538809Y-14500428D01*
X11529286Y-14481381D01*
X11519762Y-14443286D01*
X11519762Y-14395667D01*
X11529286Y-14357571D01*
X11538809Y-14338524D01*
X11548333Y-14329000D01*
X11567381Y-14319476D01*
X11719762Y-14519476D02*
X11719762Y-14386143D01*
X11719762Y-14405190D02*
X11729286Y-14395667D01*
X11748333Y-14386143D01*
X11776905Y-14386143D01*
X11795952Y-14395667D01*
X11805476Y-14414714D01*
X11805476Y-14519476D01*
X11805476Y-14414714D02*
X11815000Y-14395667D01*
X11834048Y-14386143D01*
X11862619Y-14386143D01*
X11881667Y-14395667D01*
X11891190Y-14414714D01*
X11891190Y-14519476D01*
X11986428Y-14519476D02*
X11986428Y-14386143D01*
X11986428Y-14405190D02*
X11995952Y-14395667D01*
X12015000Y-14386143D01*
X12043571Y-14386143D01*
X12062619Y-14395667D01*
X12072143Y-14414714D01*
X12072143Y-14519476D01*
X12072143Y-14414714D02*
X12081667Y-14395667D01*
X12100714Y-14386143D01*
X12129286Y-14386143D01*
X12148333Y-14395667D01*
X12157857Y-14414714D01*
X12157857Y-14519476D01*
X12548333Y-14309952D02*
X12376905Y-14567095D01*
X12805476Y-14319476D02*
X12824524Y-14319476D01*
X12843571Y-14329000D01*
X12853095Y-14338524D01*
X12862619Y-14357571D01*
X12872143Y-14395667D01*
X12872143Y-14443286D01*
X12862619Y-14481381D01*
X12853095Y-14500428D01*
X12843571Y-14509952D01*
X12824524Y-14519476D01*
X12805476Y-14519476D01*
X12786428Y-14509952D01*
X12776905Y-14500428D01*
X12767381Y-14481381D01*
X12757857Y-14443286D01*
X12757857Y-14395667D01*
X12767381Y-14357571D01*
X12776905Y-14338524D01*
X12786428Y-14329000D01*
X12805476Y-14319476D01*
X12957857Y-14500428D02*
X12967381Y-14509952D01*
X12957857Y-14519476D01*
X12948333Y-14509952D01*
X12957857Y-14500428D01*
X12957857Y-14519476D01*
X13091190Y-14319476D02*
X13110238Y-14319476D01*
X13129286Y-14329000D01*
X13138809Y-14338524D01*
X13148333Y-14357571D01*
X13157857Y-14395667D01*
X13157857Y-14443286D01*
X13148333Y-14481381D01*
X13138809Y-14500428D01*
X13129286Y-14509952D01*
X13110238Y-14519476D01*
X13091190Y-14519476D01*
X13072143Y-14509952D01*
X13062619Y-14500428D01*
X13053095Y-14481381D01*
X13043571Y-14443286D01*
X13043571Y-14395667D01*
X13053095Y-14357571D01*
X13062619Y-14338524D01*
X13072143Y-14329000D01*
X13091190Y-14319476D01*
X13224524Y-14319476D02*
X13348333Y-14319476D01*
X13281667Y-14395667D01*
X13310238Y-14395667D01*
X13329286Y-14405190D01*
X13338809Y-14414714D01*
X13348333Y-14433762D01*
X13348333Y-14481381D01*
X13338809Y-14500428D01*
X13329286Y-14509952D01*
X13310238Y-14519476D01*
X13253095Y-14519476D01*
X13234048Y-14509952D01*
X13224524Y-14500428D01*
X13529286Y-14319476D02*
X13434048Y-14319476D01*
X13424524Y-14414714D01*
X13434048Y-14405190D01*
X13453095Y-14395667D01*
X13500714Y-14395667D01*
X13519762Y-14405190D01*
X13529286Y-14414714D01*
X13538809Y-14433762D01*
X13538809Y-14481381D01*
X13529286Y-14500428D01*
X13519762Y-14509952D01*
X13500714Y-14519476D01*
X13453095Y-14519476D01*
X13434048Y-14509952D01*
X13424524Y-14500428D01*
X13710238Y-14386143D02*
X13710238Y-14519476D01*
X13662619Y-14309952D02*
X13615000Y-14452809D01*
X13738809Y-14452809D01*
X13805476Y-14319476D02*
X13805476Y-14357571D01*
X13881667Y-14319476D02*
X13881667Y-14357571D01*
X14176905Y-14595667D02*
X14167381Y-14586143D01*
X14148333Y-14557571D01*
X14138809Y-14538524D01*
X14129286Y-14509952D01*
X14119762Y-14462333D01*
X14119762Y-14424238D01*
X14129286Y-14376619D01*
X14138809Y-14348048D01*
X14148333Y-14329000D01*
X14167381Y-14300428D01*
X14176905Y-14290905D01*
X14234048Y-14319476D02*
X14357857Y-14319476D01*
X14291190Y-14395667D01*
X14319762Y-14395667D01*
X14338809Y-14405190D01*
X14348333Y-14414714D01*
X14357857Y-14433762D01*
X14357857Y-14481381D01*
X14348333Y-14500428D01*
X14338809Y-14509952D01*
X14319762Y-14519476D01*
X14262619Y-14519476D01*
X14243571Y-14509952D01*
X14234048Y-14500428D01*
X14595952Y-14519476D02*
X14595952Y-14319476D01*
X14681667Y-14519476D02*
X14681667Y-14414714D01*
X14672143Y-14395667D01*
X14653095Y-14386143D01*
X14624524Y-14386143D01*
X14605476Y-14395667D01*
X14595952Y-14405190D01*
X14805476Y-14519476D02*
X14786428Y-14509952D01*
X14776905Y-14500428D01*
X14767381Y-14481381D01*
X14767381Y-14424238D01*
X14776905Y-14405190D01*
X14786428Y-14395667D01*
X14805476Y-14386143D01*
X14834048Y-14386143D01*
X14853095Y-14395667D01*
X14862619Y-14405190D01*
X14872143Y-14424238D01*
X14872143Y-14481381D01*
X14862619Y-14500428D01*
X14853095Y-14509952D01*
X14834048Y-14519476D01*
X14805476Y-14519476D01*
X14986428Y-14519476D02*
X14967381Y-14509952D01*
X14957857Y-14490905D01*
X14957857Y-14319476D01*
X15138809Y-14509952D02*
X15119762Y-14519476D01*
X15081667Y-14519476D01*
X15062619Y-14509952D01*
X15053095Y-14490905D01*
X15053095Y-14414714D01*
X15062619Y-14395667D01*
X15081667Y-14386143D01*
X15119762Y-14386143D01*
X15138809Y-14395667D01*
X15148333Y-14414714D01*
X15148333Y-14433762D01*
X15053095Y-14452809D01*
X15224524Y-14509952D02*
X15243571Y-14519476D01*
X15281667Y-14519476D01*
X15300714Y-14509952D01*
X15310238Y-14490905D01*
X15310238Y-14481381D01*
X15300714Y-14462333D01*
X15281667Y-14452809D01*
X15253095Y-14452809D01*
X15234048Y-14443286D01*
X15224524Y-14424238D01*
X15224524Y-14414714D01*
X15234048Y-14395667D01*
X15253095Y-14386143D01*
X15281667Y-14386143D01*
X15300714Y-14395667D01*
X15376905Y-14595667D02*
X15386428Y-14586143D01*
X15405476Y-14557571D01*
X15415000Y-14538524D01*
X15424524Y-14509952D01*
X15434048Y-14462333D01*
X15434048Y-14424238D01*
X15424524Y-14376619D01*
X15415000Y-14348048D01*
X15405476Y-14329000D01*
X15386428Y-14300428D01*
X15376905Y-14290905D01*
X10405000Y-14593000D02*
X10605000Y-14793000D01*
X10605000Y-14593000D02*
X10405000Y-14793000D01*
X10575711Y-14763711D02*
X10575711Y-14622289D01*
X10434289Y-14622289D01*
X10434289Y-14763711D01*
X10575711Y-14763711D01*
X10843571Y-14583476D02*
X10967381Y-14583476D01*
X10900714Y-14659667D01*
X10929286Y-14659667D01*
X10948333Y-14669190D01*
X10957857Y-14678714D01*
X10967381Y-14697762D01*
X10967381Y-14745381D01*
X10957857Y-14764428D01*
X10948333Y-14773952D01*
X10929286Y-14783476D01*
X10872143Y-14783476D01*
X10853095Y-14773952D01*
X10843571Y-14764428D01*
X11053095Y-14764428D02*
X11062619Y-14773952D01*
X11053095Y-14783476D01*
X11043571Y-14773952D01*
X11053095Y-14764428D01*
X11053095Y-14783476D01*
X11186428Y-14583476D02*
X11205476Y-14583476D01*
X11224524Y-14593000D01*
X11234048Y-14602524D01*
X11243571Y-14621571D01*
X11253095Y-14659667D01*
X11253095Y-14707286D01*
X11243571Y-14745381D01*
X11234048Y-14764428D01*
X11224524Y-14773952D01*
X11205476Y-14783476D01*
X11186428Y-14783476D01*
X11167381Y-14773952D01*
X11157857Y-14764428D01*
X11148333Y-14745381D01*
X11138810Y-14707286D01*
X11138810Y-14659667D01*
X11148333Y-14621571D01*
X11157857Y-14602524D01*
X11167381Y-14593000D01*
X11186428Y-14583476D01*
X11376905Y-14583476D02*
X11395952Y-14583476D01*
X11415000Y-14593000D01*
X11424524Y-14602524D01*
X11434048Y-14621571D01*
X11443571Y-14659667D01*
X11443571Y-14707286D01*
X11434048Y-14745381D01*
X11424524Y-14764428D01*
X11415000Y-14773952D01*
X11395952Y-14783476D01*
X11376905Y-14783476D01*
X11357857Y-14773952D01*
X11348333Y-14764428D01*
X11338809Y-14745381D01*
X11329286Y-14707286D01*
X11329286Y-14659667D01*
X11338809Y-14621571D01*
X11348333Y-14602524D01*
X11357857Y-14593000D01*
X11376905Y-14583476D01*
X11567381Y-14583476D02*
X11586428Y-14583476D01*
X11605476Y-14593000D01*
X11615000Y-14602524D01*
X11624524Y-14621571D01*
X11634048Y-14659667D01*
X11634048Y-14707286D01*
X11624524Y-14745381D01*
X11615000Y-14764428D01*
X11605476Y-14773952D01*
X11586428Y-14783476D01*
X11567381Y-14783476D01*
X11548333Y-14773952D01*
X11538809Y-14764428D01*
X11529286Y-14745381D01*
X11519762Y-14707286D01*
X11519762Y-14659667D01*
X11529286Y-14621571D01*
X11538809Y-14602524D01*
X11548333Y-14593000D01*
X11567381Y-14583476D01*
X11719762Y-14783476D02*
X11719762Y-14650143D01*
X11719762Y-14669190D02*
X11729286Y-14659667D01*
X11748333Y-14650143D01*
X11776905Y-14650143D01*
X11795952Y-14659667D01*
X11805476Y-14678714D01*
X11805476Y-14783476D01*
X11805476Y-14678714D02*
X11815000Y-14659667D01*
X11834048Y-14650143D01*
X11862619Y-14650143D01*
X11881667Y-14659667D01*
X11891190Y-14678714D01*
X11891190Y-14783476D01*
X11986428Y-14783476D02*
X11986428Y-14650143D01*
X11986428Y-14669190D02*
X11995952Y-14659667D01*
X12015000Y-14650143D01*
X12043571Y-14650143D01*
X12062619Y-14659667D01*
X12072143Y-14678714D01*
X12072143Y-14783476D01*
X12072143Y-14678714D02*
X12081667Y-14659667D01*
X12100714Y-14650143D01*
X12129286Y-14650143D01*
X12148333Y-14659667D01*
X12157857Y-14678714D01*
X12157857Y-14783476D01*
X12548333Y-14573952D02*
X12376905Y-14831095D01*
X12805476Y-14583476D02*
X12824524Y-14583476D01*
X12843571Y-14593000D01*
X12853095Y-14602524D01*
X12862619Y-14621571D01*
X12872143Y-14659667D01*
X12872143Y-14707286D01*
X12862619Y-14745381D01*
X12853095Y-14764428D01*
X12843571Y-14773952D01*
X12824524Y-14783476D01*
X12805476Y-14783476D01*
X12786428Y-14773952D01*
X12776905Y-14764428D01*
X12767381Y-14745381D01*
X12757857Y-14707286D01*
X12757857Y-14659667D01*
X12767381Y-14621571D01*
X12776905Y-14602524D01*
X12786428Y-14593000D01*
X12805476Y-14583476D01*
X12957857Y-14764428D02*
X12967381Y-14773952D01*
X12957857Y-14783476D01*
X12948333Y-14773952D01*
X12957857Y-14764428D01*
X12957857Y-14783476D01*
X13157857Y-14783476D02*
X13043571Y-14783476D01*
X13100714Y-14783476D02*
X13100714Y-14583476D01*
X13081667Y-14612048D01*
X13062619Y-14631095D01*
X13043571Y-14640619D01*
X13348333Y-14783476D02*
X13234048Y-14783476D01*
X13291190Y-14783476D02*
X13291190Y-14583476D01*
X13272143Y-14612048D01*
X13253095Y-14631095D01*
X13234048Y-14640619D01*
X13462619Y-14669190D02*
X13443571Y-14659667D01*
X13434048Y-14650143D01*
X13424524Y-14631095D01*
X13424524Y-14621571D01*
X13434048Y-14602524D01*
X13443571Y-14593000D01*
X13462619Y-14583476D01*
X13500714Y-14583476D01*
X13519762Y-14593000D01*
X13529286Y-14602524D01*
X13538809Y-14621571D01*
X13538809Y-14631095D01*
X13529286Y-14650143D01*
X13519762Y-14659667D01*
X13500714Y-14669190D01*
X13462619Y-14669190D01*
X13443571Y-14678714D01*
X13434048Y-14688238D01*
X13424524Y-14707286D01*
X13424524Y-14745381D01*
X13434048Y-14764428D01*
X13443571Y-14773952D01*
X13462619Y-14783476D01*
X13500714Y-14783476D01*
X13519762Y-14773952D01*
X13529286Y-14764428D01*
X13538809Y-14745381D01*
X13538809Y-14707286D01*
X13529286Y-14688238D01*
X13519762Y-14678714D01*
X13500714Y-14669190D01*
X13729286Y-14783476D02*
X13615000Y-14783476D01*
X13672143Y-14783476D02*
X13672143Y-14583476D01*
X13653095Y-14612048D01*
X13634048Y-14631095D01*
X13615000Y-14640619D01*
X13805476Y-14583476D02*
X13805476Y-14621571D01*
X13881667Y-14583476D02*
X13881667Y-14621571D01*
X14176905Y-14859667D02*
X14167381Y-14850143D01*
X14148333Y-14821571D01*
X14138809Y-14802524D01*
X14129286Y-14773952D01*
X14119762Y-14726333D01*
X14119762Y-14688238D01*
X14129286Y-14640619D01*
X14138809Y-14612048D01*
X14148333Y-14593000D01*
X14167381Y-14564428D01*
X14176905Y-14554905D01*
X14338809Y-14650143D02*
X14338809Y-14783476D01*
X14291190Y-14573952D02*
X14243571Y-14716809D01*
X14367381Y-14716809D01*
X14595952Y-14783476D02*
X14595952Y-14583476D01*
X14681667Y-14783476D02*
X14681667Y-14678714D01*
X14672143Y-14659667D01*
X14653095Y-14650143D01*
X14624524Y-14650143D01*
X14605476Y-14659667D01*
X14595952Y-14669190D01*
X14805476Y-14783476D02*
X14786428Y-14773952D01*
X14776905Y-14764428D01*
X14767381Y-14745381D01*
X14767381Y-14688238D01*
X14776905Y-14669190D01*
X14786428Y-14659667D01*
X14805476Y-14650143D01*
X14834048Y-14650143D01*
X14853095Y-14659667D01*
X14862619Y-14669190D01*
X14872143Y-14688238D01*
X14872143Y-14745381D01*
X14862619Y-14764428D01*
X14853095Y-14773952D01*
X14834048Y-14783476D01*
X14805476Y-14783476D01*
X14986428Y-14783476D02*
X14967381Y-14773952D01*
X14957857Y-14754905D01*
X14957857Y-14583476D01*
X15138809Y-14773952D02*
X15119762Y-14783476D01*
X15081667Y-14783476D01*
X15062619Y-14773952D01*
X15053095Y-14754905D01*
X15053095Y-14678714D01*
X15062619Y-14659667D01*
X15081667Y-14650143D01*
X15119762Y-14650143D01*
X15138809Y-14659667D01*
X15148333Y-14678714D01*
X15148333Y-14697762D01*
X15053095Y-14716809D01*
X15224524Y-14773952D02*
X15243571Y-14783476D01*
X15281667Y-14783476D01*
X15300714Y-14773952D01*
X15310238Y-14754905D01*
X15310238Y-14745381D01*
X15300714Y-14726333D01*
X15281667Y-14716809D01*
X15253095Y-14716809D01*
X15234048Y-14707286D01*
X15224524Y-14688238D01*
X15224524Y-14678714D01*
X15234048Y-14659667D01*
X15253095Y-14650143D01*
X15281667Y-14650143D01*
X15300714Y-14659667D01*
X15376905Y-14859667D02*
X15386428Y-14850143D01*
X15405476Y-14821571D01*
X15415000Y-14802524D01*
X15424524Y-14773952D01*
X15434048Y-14726333D01*
X15434048Y-14688238D01*
X15424524Y-14640619D01*
X15415000Y-14612048D01*
X15405476Y-14593000D01*
X15386428Y-14564428D01*
X15376905Y-14554905D01*
M02*
