G04 #@! TF.GenerationSoftware,KiCad,Pcbnew,(6.0.7)*
G04 #@! TF.CreationDate,2022-10-05T21:11:47-04:00*
G04 #@! TF.ProjectId,Dogometer_v1,446f676f-6d65-4746-9572-5f76312e6b69,rev?*
G04 #@! TF.SameCoordinates,Original*
G04 #@! TF.FileFunction,Paste,Top*
G04 #@! TF.FilePolarity,Positive*
%FSLAX46Y46*%
G04 Gerber Fmt 4.6, Leading zero omitted, Abs format (unit mm)*
G04 Created by KiCad (PCBNEW (6.0.7)) date 2022-10-05 21:11:47*
%MOMM*%
%LPD*%
G01*
G04 APERTURE LIST*
G04 Aperture macros list*
%AMRoundRect*
0 Rectangle with rounded corners*
0 $1 Rounding radius*
0 $2 $3 $4 $5 $6 $7 $8 $9 X,Y pos of 4 corners*
0 Add a 4 corners polygon primitive as box body*
4,1,4,$2,$3,$4,$5,$6,$7,$8,$9,$2,$3,0*
0 Add four circle primitives for the rounded corners*
1,1,$1+$1,$2,$3*
1,1,$1+$1,$4,$5*
1,1,$1+$1,$6,$7*
1,1,$1+$1,$8,$9*
0 Add four rect primitives between the rounded corners*
20,1,$1+$1,$2,$3,$4,$5,0*
20,1,$1+$1,$4,$5,$6,$7,0*
20,1,$1+$1,$6,$7,$8,$9,0*
20,1,$1+$1,$8,$9,$2,$3,0*%
G04 Aperture macros list end*
%ADD10R,0.600000X0.450000*%
%ADD11RoundRect,0.150000X0.512500X0.150000X-0.512500X0.150000X-0.512500X-0.150000X0.512500X-0.150000X0*%
%ADD12RoundRect,0.135000X0.135000X0.185000X-0.135000X0.185000X-0.135000X-0.185000X0.135000X-0.185000X0*%
%ADD13RoundRect,0.140000X-0.170000X0.140000X-0.170000X-0.140000X0.170000X-0.140000X0.170000X0.140000X0*%
%ADD14RoundRect,0.225000X-0.250000X0.225000X-0.250000X-0.225000X0.250000X-0.225000X0.250000X0.225000X0*%
%ADD15O,0.950000X1.250000*%
%ADD16O,1.550000X0.890000*%
%ADD17R,1.350000X0.400000*%
%ADD18R,1.550000X1.500000*%
%ADD19R,1.550000X1.200000*%
%ADD20RoundRect,0.200000X0.200000X0.275000X-0.200000X0.275000X-0.200000X-0.275000X0.200000X-0.275000X0*%
%ADD21RoundRect,0.218750X0.218750X0.256250X-0.218750X0.256250X-0.218750X-0.256250X0.218750X-0.256250X0*%
%ADD22RoundRect,0.135000X-0.135000X-0.185000X0.135000X-0.185000X0.135000X0.185000X-0.135000X0.185000X0*%
%ADD23RoundRect,0.150000X-0.512500X-0.150000X0.512500X-0.150000X0.512500X0.150000X-0.512500X0.150000X0*%
%ADD24R,0.540000X0.540000*%
%ADD25R,0.300000X0.300000*%
%ADD26R,0.900000X0.300000*%
%ADD27R,0.300000X0.900000*%
%ADD28R,4.190000X1.780000*%
%ADD29R,4.190000X2.665000*%
%ADD30RoundRect,0.200000X0.275000X-0.200000X0.275000X0.200000X-0.275000X0.200000X-0.275000X-0.200000X0*%
%ADD31O,2.500000X1.000000*%
%ADD32R,1.500000X0.900000*%
%ADD33R,0.900000X1.500000*%
%ADD34R,0.900000X0.900000*%
%ADD35R,0.700000X1.000000*%
%ADD36R,0.700000X0.600000*%
%ADD37RoundRect,0.200000X-0.275000X0.200000X-0.275000X-0.200000X0.275000X-0.200000X0.275000X0.200000X0*%
%ADD38R,2.000000X1.350000*%
%ADD39R,3.500000X3.300000*%
%ADD40R,2.000000X1.000000*%
%ADD41RoundRect,0.218750X0.256250X-0.218750X0.256250X0.218750X-0.256250X0.218750X-0.256250X-0.218750X0*%
%ADD42RoundRect,0.150000X0.150000X-0.587500X0.150000X0.587500X-0.150000X0.587500X-0.150000X-0.587500X0*%
G04 APERTURE END LIST*
D10*
X124748000Y-99695000D03*
X122648000Y-99695000D03*
D11*
X116840000Y-97072000D03*
X116840000Y-96122000D03*
X116840000Y-95172000D03*
X114565000Y-95172000D03*
X114565000Y-97072000D03*
D12*
X118622000Y-108732000D03*
X117602000Y-108732000D03*
D13*
X115316000Y-110510000D03*
X115316000Y-111470000D03*
D14*
X110998000Y-95294000D03*
X110998000Y-96844000D03*
X155194000Y-114808000D03*
X155194000Y-116358000D03*
D15*
X110236000Y-103438000D03*
D16*
X107536000Y-109438000D03*
D15*
X110236000Y-108438000D03*
D16*
X107536000Y-102438000D03*
D17*
X110236000Y-104638000D03*
X110236000Y-105288000D03*
X110236000Y-105938000D03*
X110236000Y-106588000D03*
X110236000Y-107238000D03*
D18*
X107536000Y-104938000D03*
D19*
X107536000Y-108838000D03*
D18*
X107536000Y-106938000D03*
D19*
X107536000Y-103038000D03*
D20*
X139572000Y-112776000D03*
X137922000Y-112776000D03*
D21*
X149123500Y-119380000D03*
X147548500Y-119380000D03*
D14*
X155194000Y-118110000D03*
X155194000Y-119660000D03*
D22*
X115820000Y-102172000D03*
X116840000Y-102172000D03*
D23*
X125608500Y-95360000D03*
X125608500Y-96310000D03*
X125608500Y-97260000D03*
X127883500Y-97260000D03*
X127883500Y-95360000D03*
D24*
X114866000Y-106388000D03*
X115766000Y-106388000D03*
X115766000Y-105488000D03*
X114866000Y-105488000D03*
D25*
X114066000Y-104688000D03*
D26*
X113766000Y-105188000D03*
X113766000Y-105688000D03*
X113766000Y-106188000D03*
X113766000Y-106688000D03*
D25*
X114066000Y-107188000D03*
D27*
X114566000Y-107488000D03*
X115066000Y-107488000D03*
X115566000Y-107488000D03*
X116066000Y-107488000D03*
D25*
X116566000Y-107188000D03*
D26*
X116866000Y-106688000D03*
X116866000Y-106188000D03*
X116866000Y-105688000D03*
X116866000Y-105188000D03*
D25*
X116566000Y-104688000D03*
D27*
X116066000Y-104388000D03*
X115566000Y-104388000D03*
X115066000Y-104388000D03*
X114566000Y-104388000D03*
D14*
X118618000Y-95281000D03*
X118618000Y-96831000D03*
X129672500Y-95360000D03*
X129672500Y-96910000D03*
D13*
X114046000Y-108732000D03*
X114046000Y-109692000D03*
D28*
X182000000Y-101234000D03*
D29*
X182000000Y-97741500D03*
X182000000Y-104726500D03*
D30*
X154432000Y-111315000D03*
X154432000Y-109665000D03*
X149098000Y-117856000D03*
X149098000Y-116206000D03*
D22*
X112522000Y-102934000D03*
X113542000Y-102934000D03*
D14*
X123830500Y-95360000D03*
X123830500Y-96910000D03*
D20*
X116078000Y-98552000D03*
X114428000Y-98552000D03*
D31*
X158616000Y-107158000D03*
X158616000Y-109698000D03*
X158616000Y-112238000D03*
X158616000Y-114778000D03*
X158616000Y-117318000D03*
X158616000Y-119858000D03*
X174116000Y-119888000D03*
X174116000Y-117348000D03*
X174116000Y-114808000D03*
X174116000Y-112268000D03*
X174116000Y-109728000D03*
X174116000Y-107188000D03*
D14*
X153416000Y-114795000D03*
X153416000Y-116345000D03*
D32*
X135014000Y-93086000D03*
X135014000Y-94356000D03*
X135014000Y-95626000D03*
X135014000Y-96896000D03*
X135014000Y-98166000D03*
X135014000Y-99436000D03*
X135014000Y-100706000D03*
X135014000Y-101976000D03*
X135014000Y-103246000D03*
X135014000Y-104516000D03*
X135014000Y-105786000D03*
X135014000Y-107056000D03*
X135014000Y-108326000D03*
X135014000Y-109596000D03*
D33*
X136779000Y-110846000D03*
X138049000Y-110846000D03*
X139319000Y-110846000D03*
X140589000Y-110846000D03*
X141859000Y-110846000D03*
X143129000Y-110846000D03*
X144399000Y-110846000D03*
X145669000Y-110846000D03*
X146939000Y-110846000D03*
X148209000Y-110846000D03*
X149479000Y-110846000D03*
X150749000Y-110846000D03*
D32*
X152514000Y-109596000D03*
X152514000Y-108326000D03*
X152514000Y-107056000D03*
X152514000Y-105786000D03*
X152514000Y-104516000D03*
X152514000Y-103246000D03*
X152514000Y-101976000D03*
X152514000Y-100706000D03*
X152514000Y-99436000D03*
X152514000Y-98166000D03*
X152514000Y-96896000D03*
X152514000Y-95626000D03*
X152514000Y-94356000D03*
X152514000Y-93086000D03*
D34*
X143664000Y-102206000D03*
X142264000Y-99406000D03*
X140864000Y-102206000D03*
X142264000Y-102206000D03*
X142264000Y-100806000D03*
X140864000Y-99406000D03*
X143664000Y-100806000D03*
X143664000Y-99406000D03*
X140864000Y-100806000D03*
D20*
X121030000Y-99612000D03*
X119380000Y-99612000D03*
D30*
X142494000Y-117856000D03*
X142494000Y-116206000D03*
D35*
X113268000Y-113336000D03*
D36*
X113268000Y-111636000D03*
X111268000Y-111636000D03*
X111268000Y-113536000D03*
D37*
X132334000Y-96394000D03*
X132334000Y-98044000D03*
D38*
X155956000Y-93762000D03*
X155956000Y-98262000D03*
D39*
X118338000Y-115316000D03*
X134138000Y-115316000D03*
D13*
X112776000Y-108732000D03*
X112776000Y-109692000D03*
D14*
X153416000Y-118110000D03*
X153416000Y-119660000D03*
D40*
X160603000Y-87234000D03*
X160603000Y-89234000D03*
X160603000Y-91234000D03*
X160603000Y-93234000D03*
X160603000Y-95234000D03*
X160603000Y-97234000D03*
X160603000Y-99234000D03*
X160603000Y-101234000D03*
X176603000Y-101234000D03*
X176603000Y-99234000D03*
X176603000Y-97234000D03*
X176603000Y-95234000D03*
X176603000Y-93234000D03*
X176603000Y-91234000D03*
X176603000Y-89234000D03*
X176603000Y-87234000D03*
D41*
X112776000Y-96869000D03*
X112776000Y-95294000D03*
D13*
X116586000Y-110510000D03*
X116586000Y-111470000D03*
D38*
X155956000Y-91150000D03*
X155956000Y-86650000D03*
D21*
X142494000Y-119380000D03*
X140919000Y-119380000D03*
D30*
X117856000Y-100246000D03*
X117856000Y-98596000D03*
D42*
X120274000Y-97580000D03*
X122174000Y-97580000D03*
X121224000Y-95705000D03*
M02*
